<?xml version="1.0" encoding="UTF-8"?>
<svg id="Layer_2" data-name="Layer 2" xmlns="http://www.w3.org/2000/svg" viewBox="0 0 262.1 397.7">
  <defs>
    <style>
      .cls-1 {
        fill: #6d6e71;
        stroke: #6d6e71;
      }

      .cls-1, .cls-2, .cls-3, .cls-4 {
        stroke-miterlimit: 10;
        stroke-width: .8px;
      }

      .cls-2 {
        fill: #808285;
        stroke: #808285;
      }

      .cls-3 {
        fill: #a7a9ac;
        stroke: #a7a9ac;
      }

      .cls-4 {
        fill: #58595b;
        stroke: #58595b;
      }
    </style>
  </defs>
  <g id="Layer_5" data-name="Layer 5">
    <g>
      <path class="cls-4" d="M121,380.3s2.1-10.2,3.8-10.7c3.3-1,2.5,1.5,9.4-1.3,1.9-.8,10.9-10.4,12.2-12.8s6.4-8,7.2-9.7,10.2-16.4,10.2-16.4c0,0-7.4,6.7-10,7.9s-5.1.8-5.1.8l-2.4,2s-1.9,1.5-4.1,3.3-8.7,8.9-9.6,11.9-8.3,8.1-8.4,10.3,3.1-13.1,1.9-17.7c-1.2-4.6-3-10.5-5.3-13.7s-6.8-11.1-9.5-13.1c-2.8-2.1-15.4-25.5-15.4-25.5,0,0,10.5,28.1,10.9,32.8s.7,13.6,3.4,19,10.7,14.2,10.7,14.2c0,0-9.2-6.4-14.5-8.2s-6.3-5.6-9-5.9-10-2.7-13.3-2.2-14.2.6-14.2.6c0,0,21.1,14.2,26.7,15.7,5.6,1.5,14,6.3,16.9,6.4,2.9.1,7.9-.6,7.9-.6l1.4.3s-2,8.5-2.3,11.4.5,1,.5,1Z"/>
      <path class="cls-4" d="M99.5,115.6s-8.5,11.7-12.5,14.9-16.9,12.6-16.9,12.6c0,0,5.6-9.4,10.7-13.9s10.6-11.3,13.3-11.6-7.6,2.7-23.8-4.3-29.1-14.1-30.5-14.3-13.3-5.9-13.3-5.9c0,0,7.6,1.7,9.1,2.1s10.2,1.4,13,1.8,13.3,1.1,15.1,2.1,2.9,1.8,2.9,1.8l1.1-.9s9.8,3.6,12.6,4.4,10.8,5.6,12.6,6.2,4.3,2.7,4.3,2.7c0,0-15.7-11.6-18.9-16.9s-12.3-17.9-13.1-20.6-7.6-13.9-7.6-13.9c0,0,4.3,4,9.8,9.6s11.6,12.3,13.7,14.3,7.4,9.3,8.4,11,4,8.7,4.7,10.1,3.5,4.4,3.5,4.4l1.8,4Z"/>
      <path class="cls-4" d="M125.8,251s20.4-12.7,23.6-18.8,5-7.1,6.2-11.6,1.5-10.4,1.9-12.2c.6-3.2,0-17.1,0-17.1l1.5-.2s.3,8.4.3,10.7.4,10.2-1.5,16.2,6.5-6.1,6.5-6.1c0,0,1.4-2.1,3.5-5.4s1.8-1.9,4.1-5,.8-2.2,1.9-3.8,1.4,1.2,1.4,1.2c0,0-2.3,4.3-4.9,7s-5.3,7.9-7,10.4-6.2,7.1-6.2,7.1c0,0-10.2,14.4-12.5,16.9s-19.3,12.9-19.3,12.9l.5-2.1Z"/>
      <path class="cls-2" d="M118,50.3l1,9.9s-1,8.9-1,10.3,1,6.9,1,6.9l-1,27.6-1,9.9-.5,6.4,1,14.8.5,27.1s-4.6,1.8-3.4,2.5,1,6.9,1,6.9c0,0,1.7,7.6,0,9.4s-.5,8.9-.5,8.9v7.9l-1,4.2.2,4.8s3.2,4.6,3.2,10.3-1,28.1-1,28.1l-3,28.6s1.2,3-1,4.3-2.2,2.9-.7,4.8.2,3.8,1.2,7.2-.7,18.1-.7,18.1c0,0-1.5,14.2-1.9,16.9s-2.2,6.9-.8,8.3,2.2,7.4,2.5,12.8-.9,18.6-1,21.2-1.5,9.8-2,14.3.4,1.2.6,7.6,1.9,6.7,1.3,7.2,14.4-.2,14.4-.2c0,0,0-4.8-.2-15.5s.4-2.5.4-3.1c0-1-.7-3.1-.7-4.2,0-3.1-.9-18.7-.9-22.2,0-9.1.7-7,1.6-17.1s.2-3.9.3-5.5c.2-2.4-.5-4.6-.3-7s.6-27.2,1.8-29.8-2.1-7.5,1.4-13.6,1.8-5,1.6-4.9c-1.1.7-1.4-8.7,0-10.1s-1.6-1.7-1.4-5.5-.2-38.2.5-42.5,3-4.6,1.1-11.2c-1.8-6.6-.1-13.5.3-16.2s-1-5.6-1-12.8,2.7-6.1.1-12,.5-24.8-.1-34.1,1.4-15,1.4-17.5-.5-6.6.1-18.3,1.3-13.9,2.2-18.3,1.9-5.3.1-6.9-1.9-19.2-1.9-19.2l-13.8.7Z"/>
      <path class="cls-2" d="M121,395.8l13.7,1.2s-.2-3,1.2-5.8c1.4-2.7,2.6-4,1.5-6.1-1.1-2.1-2.4-.8-2.4-5.5s-1.2-18.5-.6-22.6.4-12.6,1.5-16.8.6-5.8,1.8-8.8.3-6.7.3-10.1.9-15.2,2.1-24.1,3.2-20,3.4-21-11-3-11-3c0,0-1.8,4.3-2.1,10.4s1.3,5.4-.6,10.4-4.1,10-4.3,11.3.9,6.7.9,6.7c0,0,.6,6.9-.8,10.3s-2.5,13.2-2.5,13.2l-1.5,20.7s1.7,7.9,1.2,11.6-2.9,13-2.1,15.8.3,4.7,0,5.5.3,6.7.3,6.7Z"/>
      <path class="cls-2" d="M107.1,264.3s5.5-33.8,4.1-43.1-4.3-19.5-4.3-21.3-1.2-13.4-1.2-13.4c0,0-2.6,4.4-3.7,10.1-1.1,5.6-5.3,12.5-6.4,18.9-1.1,6.4-.8,16.9,0,20.7s2.7,18.3,2.7,18.3l2.1,2.4s-.2-6.4.3-14.3h0c.5-7.9.9-11.9.9-11.9,0,0,.6,10.8,1.5,14s0,2.6.3,7.3,2.1,10.1,2.1,10.1l1.4,2.3Z"/>
      <path class="cls-2" d="M115.4,277.1s-18.4-23-18.6-23.5-1.9-1.4-1.9-1.4l-.8,1.7s1.2,0,2.9,1.9,6.4,7.7,7.7,9.5,4.9,6.2,5.9,7.3,2,2.5,2.5,4.6.1,3.1,1.4,2.5,1-2.6,1-2.6Z"/>
      <path class="cls-2" d="M110.9,379.4s-1.2-1.5-2.1-1.5-3.1,4-4,4.6-7.2,3.4-9.2,3.9c-2,.5-10,1.5-11.2,1.5s-9.2,1.5-10.5,2.1-4.8.8-5.9,2-2,1.6-2,1.6c0,0,3.1-3.6,5.1-5.4,2-1.8,11-9.1,12.5-9.1s8.5-4.2,10.3-4.2,6.3-1.9,8.3-2.2c2.1-.3,3.3-.4,4.1.6s1.5,3,2.4,3.2,2.1,3,2.1,3Z"/>
      <path class="cls-1" d="M87.8,245s-7.9-7.4-27-8-31.8,1.4-37.9,1.4,7.4,1.5,7.4,1.5c0,0,11.1,3,16.5,4.3s9,1.5,9,1.5c0,0-1.1-1.4.3-1.7s2.5-.7,2.1.7-.2,1.8.7,1.9,5.9,1.2,9.7,1.8,15.6.7,16.7.8-3.1-2.2-3.1-2.2c0,0,1.5.3,3.2.2s2.4-2.3,2.4-2.3Z"/>
      <path class="cls-2" d="M95.7,253.5s1.9-.6.9-1.6-2.9-2.4-3-3-5.7-18.2-8.3-21.7-12.1-16.6-13.6-18.2-5.3-5.6-5.3-5.6l2.2,4.1s-5.5-5.2-7.1-8.2-6.6-5.9-6.6-5.9c0,0,1.2,1,3,5.6s5.4,13.7,5.7,15,.7,2.5.7,2.5c0,0,.9.3,1.9,1.4s2.9,3.8,1.5,3.3-2.6-2.3-2.6-2.3c0,0,3.9,8.1,5.7,10.4s9.3,12.4,13.7,16.1,11.2,8.1,11.2,8.1Z"/>
      <path class="cls-4" d="M158.7,205.3s6.6-2.1,10.4-11.9.3-35.7.3-35.7l-7.6-21.9-3-9.1s-3.5,17.2-4.3,26.8-5.3,12.6-5.2,14,1.5,4.3,1.5,4.3c0,0,0,9.1-.3,13.4s3,7,3,7h-3.7s1.6,6.9,4,7.9,4.9,5.2,4.9,5.2Z"/>
      <path class="cls-2" d="M99.5,257.5l-2.1-3.3s-3.9-5.1-8.1-4.6-26.3,3.3-36.9,9.4-14.1,7.6-15.9,9.1-3,1.8-3,1.8c0,0,6.6-2.3,10.5-3s6.2-1.5,12.6-2.1,17.3-.9,18.7-1.5,10.6-1.7,12.6-3.3,4.1-3.1,5.4-4,2.2-2,3.5-.8,2.6,2.2,2.6,2.2Z"/>
      <path class="cls-2" d="M128.6,187.6s15.2-32.4,20.4-39.9,2.5-3.6,4.2-6c4-5.8,9.1-13,12.3-17.6,1.9-2.7,3.1-4.4,3.1-4.4l2.1,1.8s-14.5,20-16.5,23.2-7.5,11.3-9.4,15.5-6.6,11.9-8.2,15.5-8.2,15.5-8.2,15.5l.3-3.7Z"/>
      <path class="cls-3" d="M116.4,202s-6.7-8.2-11.2-14.1-3.1-4.1-3.7-5.1-1.6-2.4-2.6-3.6c-2.1-2.7-4.4-5.2-4.4-5.2,0,0-6.9-15.2-12.2-22.2s-19.5-20.7-25.6-24.1-15.7-8.4-19.2-9.8-17.4-9.8-23.5-12.8-8.5-6.4-8.5-6.4c0,0,14.3,11.7,22.9,23.8s32.3,34.4,32.3,34.4c0,0,10.7,10.5,17.1,11.9s6.3,2,10.7,3.4,10.7,11,10.7,11c0,0-.9.2,4,5.5s13.1,16.5,13.1,16.5l.3-3Z"/>
      <path class="cls-4" d="M121.9,138s-15.8-13.1-18.6-18.9-8.5-7.6-8.5-7.6l4.6,5.2s3.5,8.4,7,10.4,16.8,14.3,16.8,14.3l-1.2-3.4Z"/>
      <path class="cls-3" d="M94,175.4s-11.3,8.9-12.8,10.1-15.5,7.8-17.2,8.5-28.6,9.3-29.6,9.8-2.6-.8-3-.3-1.1,1.4-1.1,1.4l-1.7-.2s-20.5,7.3-21.8,8.2-4.3,1.7-4.3,1.7c0,0,11.9-6.9,13.4-8.1s8.1-6.3,9.8-7.5,10.7-9.9,12.3-10.7,16.4-11.5,17.8-12,10.4-4.3,13.6-4.9,9.1-.5,9.1-.5c0,0,.5.8,2,1.1s3.7.2,3.7.2c0,0,.6.7,2.4,1.2s3.8.8,4.7.9,2.6,1.1,2.6,1.1Z"/>
      <path class="cls-3" d="M97.2,178.7s3.2-.7,1.4-5.2-4.6-8.9-5.2-11.6-.6-9.8-.5-10.5,2.5-14.9,5.6-23.5,9.8-21,9.8-21c0,0,5.2-7.9,6.1-10.1s-1.1,8-1.4,11.2-1,15.1-.8,18,1.3,20.6.5,23.8-3.5,15.4-5,18-5.1,5.3-6.2,5.8.9,1.6-1.1,4-3.2,1.1-3.2,1.1Z"/>
      <path class="cls-2" d="M155.4,140.7s-.3-8.2.8-11.4.8-8.7,0-10.7-8.5-17.7-8.5-17.7l-2.3,1.8s-.3-2.4-1.1-3.4-1.4,1.5-1.4,1.5c0,0,2-4.3.8-6.4s-3.8-1.9-3-3.7-1.1-1.4-2.7-6.7-6.6-13.7-6.6-13.7c0,0,1.8,7.6,3.5,17.7s.1,28.2,2.6,29.6,2.6,2.7,2.6,2.7l-1.7-.5s-.2,3.7,1.7,6.4,4.4,8.2,6.9,9.6,8.5,4.7,8.5,4.7Z"/>
      <path class="cls-2" d="M162.7,130.3s-6-10.4,2-24.7,25.4-33.8,25.4-33.8l12.5-15.2s-8.2,13.9-8.5,17.1-2.7,7.6-2.7,7.6c0,0-.8-3.4-1.5-2.4s.3,4.7.3,4.7c0,0-1.4,6-1.8,7.3s-6.6,14.1-7,15.1-4,8.5-4,8.5c0,0,8.4-5.3,10.4-5.8s3.7.8,3.7.8c0,0-.6-1.4.2-2.1s5-2.6,5-2.6l3-.8-.3,2.6s.4-.5,1.2-1.2,1.4-2.1,1.4-2.1c0,0,11.8-2.8,14-3.5s10.7-4.6,13-4.6,14.6-5,14.6-5c0,0-10.2,7-14.9,10.7s-22.7,14.2-24.7,14.8-8.7,3.1-10.2,3.7-9.9,3.7-9.9,3.7l8.8-1.5,5.3-2s13-6.5,16.6-5.9,15-2.9,17.5-3.8,15.2-5.6,15.2-5.6c0,0-16.8,8.3-22.9,11.9s-35.2,18.5-38.1,18.1-15.8-.6-15.8-.6c0,0,15.7,14.6,20.1,19.7s8.7,12.8,8.7,12.8c0,0-16.1-11.6-18.1-14s-9.7-9.9-12.3-13-6.1-8.5-6.1-8.5Z"/>
      <path class="cls-1" d="M170.3,205.9s6.6-6.3,7.3-8.2-1.5-2.7-1.5-2.7c0,0,1.4-6.6,3.7-8.5s13.8-11,18.3-14,14-10.7,23.2-13.7,24.7-8.7,28.3-10.1,11.3-5.5,11.3-5.5c0,0-18.6,14-24.1,21.9s-22.9,22.6-29.3,26.2-16.9,12-22.2,11.3-14.9,3.4-14.9,3.4Z"/>
      <path class="cls-2" d="M172.2,209s8.8,7.5,23.2,12.2,31.1,6.1,31.1,6.1c0,0,12.3-1.2,16.8.6s16.5,4.9,16.5,4.9c0,0-19.7-11.6-25.9-14.3s-21.3-12.2-21.3-12.2c0,0-8.8-5.4-21.3-2.4s-18.9,5.2-18.9,5.2Z"/>
      <path class="cls-2" d="M136.5,276.9s6.1-11.4,5-13.3c-2.2-3.7-3.5-.6-7.4-9s-1.7-18.9-.9-22.2,3.7-15.8,4.3-18,5.5-22.2,5.5-22.2c0,0,.2,10.4,1.5,13.7s.3,8.2.3,8.2l2.4-.3s-.2,3.2.3,6.7,3,18.6,1.5,22.2-2.4,15.5-4,17.7,7.5-14.9,12.2-18.3,11-7.5,15.5-8.5,14.8-4.9,18.9-4.6,22.9-7.6,22.9-7.6c0,0-20.6,14.2-24.7,18.3s-11.3,12.3-18,15.2-20.7,4.6-20.7,4.6c0,0,13.3,1.5,19.5,4.3s18.4,11.1,21,13.1,16.3,11.2,18.9,14.3,6.1,4.6,6.1,4.6c0,0-7.5-1.4-13.7-4.6s-15.2-4.1-22.9-7-8.2-2.1-16.2-5-8.4-5.2-11.2-7.5-6.6-7.1-6.6-7.1l-1.5-.9s-4.9,9.7-6.9,12.7-1.2.5-1.2.5Z"/>
      <path class="cls-2" d="M123.6,68.7s12.7,7,17.7,8.2c4.9,1.2,20.7,4.2,20.7,4.2,0,0-9.1-6.2-15.6-8s-14.4-5.7-16.9-4.8,8-.8,19.7-14c11.6-13.2,20.3-25.2,21.4-26s9.5-11,9.5-11c0,0-6.2,4.8-7.4,5.8s-8.6,5.7-10.9,7.2-11.6,6.7-12.7,8.4-1.8,2.9-1.8,2.9l-1.4-.4s-7.4,7.4-9.6,9.4-7.4,9.7-8.8,11-2.7,4.3-2.7,4.3c0,0,9.2-17.2,9.9-23.4s3.4-21.4,3.1-24.2,1-15.8,1-15.8c0,0-2.2,5.4-4.7,12.8-2.5,7.4-5.2,16.1-6.3,18.8s-2.7,11.6-2.9,13.5c-.2,1.9,0,9.6,0,11.1s-1.3,5.5-1.3,5.5v4.4Z"/>
      <path class="cls-2" d="M102.6,47.9s8.8,12.6,10.5,16.6.8,1.9,1.4,3.1c1.3,3,3,6.8,4,9.2s1,2.3,1,2.3l-1.1,1.1s-4.5-10.8-5.2-12.3-2.7-5.7-3.8-7.3-3-5.2-4-6.6-4-6.6-4-6.6l1.3.6Z"/>
      <path class="cls-2" d="M114.2,69.5l-1.4-2.9s-2.6-4.4-5.4-3.9-17.5,2.9-24.5,8.1-9.3,6.5-10.5,7.9-2,1.6-2,1.6c0,0,4.4-2,7-2.6s4.1-1.3,8.3-1.8,11.5-.8,12.4-1.3,7.1-1.5,8.3-2.9,2.7-2.7,3.6-3.4,1.4-1.7,2.4-.7,1.7,1.9,1.7,1.9Z"/>
      <path class="cls-4" d="M111.3,63.2s-1.2-1.2.9-2.7,4.6-2.6,5.6-3.6,3.1-4.1,3.3-4.5,3.3-7.3,4.4-12,1.9-12.1,1.9-12.1c0,0,0-5,.3-6.2s-1.8,3.9-2.7,5.4-4,7-4.9,8.2-6.6,8.8-7.1,10.4-3,7.8-3.1,9.4.7,3.8,1,4.4-.9.4-.7,2.1,1.1,1.4,1.1,1.4Z"/>
      <path class="cls-2" d="M111.3,61.3s-2.1,0-1.4-2.5,2.1-5.2,2.2-6.6-.5-5.2-.7-5.5-3-7.5-5.8-11.6-8.2-9.9-8.2-9.9c0,0-4-3.5-4.8-4.6-.8-1,1.5,4,1.9,5.7s2.1,7.8,2.2,9.3,1.1,10.9,2,12.5,3.7,7.6,4.9,8.8,3.7,2.2,4.5,2.3-.4.9,1.1,1.9,2.1.2,2.1.2Z"/>
      <path class="cls-3" d="M120.8,69.9s4.9,1.1,7,0,4.3-3,4,1.1-1.3,20.4-2.4,20.7-1.8,19.6-1.8,20.3,1.8,4.2,1.8,4.2l-5.8.7-6.1-1.5s2.6-10,2.9-11.8,0-13,.5-15-.8-8.7-.3-11.6.3-6.9.3-6.9Z"/>
      <path class="cls-3" d="M119.2,121.6s4.9,1.1,7,0,2.7-1.9,2.4,2.2.2,19.3-.9,19.6.6,4.2.6,5,.5,6.7.5,6.7l-4.6,1.7-5-1.8s.9-5,1.2-6.9-1.7-5.8-1.2-7.8-.8-8.7-.3-11.6.3-6.9.3-6.9Z"/>
      <path class="cls-3" d="M118.5,171s4.9,1.1,7,0,5-2.9,4,1.1c-2.4,8.8-.4,23.2-1.1,22.4-.7-.9.8,7.2.8,7.9s.3,8.1.3,8.1l-7.2.2-4-1.2s-2.6-2.6-2.3-4.4.2-16.8.6-18.7,1-5.4,1.5-8.3.3-6.9.3-6.9Z"/>
      <path class="cls-3" d="M114.9,285.3s4.9,1.1,7,0,4.3-3,4,1.1-1.3,20.4-2.4,20.7-1.8,19.6-1.8,20.3,1.8,4.2,1.8,4.2l-5.8.7-6.1-1.5s2.6-10,2.9-11.8,0-13,.5-15-.8-8.7-.3-11.6.3-6.9.3-6.9Z"/>
      <path class="cls-3" d="M118.2,216.3s4.9,1.1,7,0,4.3-3,4,1.1-1.3,20.4-2.4,20.7.3,5.6.3,6.3.9,6.2.9,6.2l-4.9-1.5-4.6.5s-.3-5.6,0-7.5-.8-5.2-.3-7.2-.8-8.7-.3-11.6.3-6.9.3-6.9Z"/>
      <path class="cls-3" d="M113.1,338.3s5,.8,7-.5,4.1-3.3,4,.8,0,20.4-1.1,20.8-.6,19.6-.5,20.4,2.1,4.1,2.1,4.1l-5.7,1-6.2-1.1s1.9-10.1,2.1-12-.8-13-.5-15-1.4-8.7-1.1-11.6-.1-6.9-.1-6.9Z"/>
    </g>
  </g>
</svg>