<?xml version="1.0" encoding="UTF-8"?>
<svg id="Layer_2" data-name="Layer 2" xmlns="http://www.w3.org/2000/svg" viewBox="0 0 291.1 362.1">
  <defs>
    <style>
      .cls-1 {
        fill: #6d6e71;
        stroke: #6d6e71;
      }

      .cls-1, .cls-2, .cls-3, .cls-4 {
        stroke-miterlimit: 10;
        stroke-width: .8px;
      }

      .cls-2 {
        fill: #808285;
        stroke: #808285;
      }

      .cls-3 {
        fill: #a7a9ac;
        stroke: #a7a9ac;
      }

      .cls-4 {
        fill: #58595b;
        stroke: #58595b;
      }
    </style>
  </defs>
  <g id="Layer_5" data-name="Layer 5">
    <g>
      <path class="cls-4" d="M57.4,340.7s6.1-8.5,7.8-8.2c3.4.4,1.7,2.4,9.1,2.6,2.1,0,14.2-5.1,16.4-6.7s9.1-4.7,10.5-5.9,16-10.8,16-10.8c0,0-9.5,3.1-12.3,3.1s-5-1.3-5-1.3l-3,.9s-2.3.6-5.1,1.3-11.6,4.6-13.6,7-10.9,4-11.9,6,8.2-10.7,8.9-15.4,1.5-10.8.7-14.7c-.8-3.9-1.7-12.9-3.4-15.8-1.7-3.1-3.7-29.6-3.7-29.6,0,0-1.8,29.9-3.4,34.4s-4.9,12.7-4.6,18.7c.3,6,4,17.3,4,17.3,0,0-5.8-9.6-9.9-13.4s-3.5-7.7-5.8-9.1-8-6.5-11.3-7.4-13.2-5.2-13.2-5.2c0,0,13.5,21.6,18,25.2,4.5,3.6,10.2,11.4,12.8,12.7s7.5,2.7,7.5,2.7l1.2.8s-5.3,7-6.7,9.5,0,1.1,0,1.1v.2Z"/>
      <path class="cls-4" d="M145.5,90.2s-12.5,7.2-17.5,8.5c-5,1.3-20.6,4.6-20.6,4.6,0,0,8.9-6.3,15.4-8.3s14.3-6,16.9-5.2-8-.6-20-13.6-20.8-24.7-22-25.5-9.8-10.8-9.8-10.8c0,0,6.3,4.6,7.5,5.6s8.7,5.4,11.1,6.9,11.7,6.4,12.9,8.1c1.2,1.6,1.9,2.8,1.9,2.8l1.4-.4s7.5,7.3,9.7,9.1,7.6,9.5,9,10.8,2.8,4.2,2.8,4.2c0,0-9.6-17-10.4-23.1s-4-21.4-3.6-24.1-1.3-15.8-1.3-15.8c0,0,2.3,5.4,5,12.8,2.7,7.4,5.6,16,6.7,18.6s3,11.5,3.2,13.5.1,9.6.2,11.1,1.4,5.4,1.4,5.4v4.4s-.1.3-.1.3Z"/>
      <path class="cls-4" d="M114.4,224.6s23.8-3.3,29.2-7.6,7.5-4.5,10.4-8.1c2.9-3.6,5.6-8.9,6.7-10.4,1.8-2.7,7-15.6,7-15.6l1.5.4s-3.1,7.8-4.1,9.9-3.8,9.5-8,14.2,8.4-2.9,8.4-2.9c0,0,2.1-1.3,5.4-3.5s2.4-1,5.8-2.9,1.6-1.7,3.3-2.7.8,1.7.8,1.7c0,0-3.9,3-7.3,4.4s-8.1,5.1-10.6,6.7-8.6,4-8.6,4c0,0-15.2,9-18.3,10.4s-22.9,3.9-22.9,3.9l1.3-1.7h0Z"/>
      <path class="cls-2" d="M188.9,38l-3.1,9.5s-4.5,7.7-5.1,9-1.9,6.7-1.9,6.7l-12.1,24.8-4.9,8.6-3.1,5.6-5.1,13.9-10.6,25s-4.9-.2-4.1.9-1.9,6.7-1.9,6.7c0,0-1.5,7.6-3.8,8.6s-4.1,7.9-4.1,7.9l-3.2,7.2-2.6,3.4-1.8,4.5s1.1,5.5-1.3,10.7-12.3,25.3-12.3,25.3l-14.4,24.9s-.1,3.2-2.7,3.5-3.2,1.8-2.6,4.1-1.4,3.6-1.8,7.1-8,16.3-8,16.3c0,0-7.1,12.4-8.6,14.7s-4.8,5.4-4.1,7.3-1,7.7-2.9,12.7-8.4,16.6-9.5,19-5.4,8.3-7.6,12.3-.1,1.3-2.5,7.2-1,6.9-1.7,7.1,13.2,5.7,13.2,5.7c0,0,2-4.4,6.1-14.2s1.4-2.1,1.6-2.7c.4-.9.6-3.1,1.1-4.1,1.3-2.8,6.8-17.4,8.2-20.6,3.7-8.3,3.5-6.1,8.4-15s1.8-3.5,2.5-4.9c1.2-2.1,1.4-4.4,2.6-6.5s11.6-24.6,13.8-26.5,1.1-7.7,6.8-11.9c5.7-4.1,3.7-3.8,3.5-3.8-1.3.2,2.3-8.5,4.1-9.2s-.8-2.2,1-5.6,15.4-35,17.7-38.6,4.6-3,5.6-9.8c1-6.8,5.4-12.4,6.9-14.7s1.4-5.5,4.3-12.1,4.9-4.5,5-10.9,10.5-22.5,13.8-31.2,7.4-13.1,8.4-15.4c1-2.3,2.2-6.2,7.5-16.7s6.8-12.2,9.5-15.8,3.9-4.1,2.9-6.3,6.1-18.3,6.1-18.3l-12.9-5v-.2Z"/>
      <path class="cls-2" d="M51.1,354.9l12,6.7s1-2.8,3.5-4.8c2.4-1.9,4-2.6,3.9-5s-1.9-1.7,0-6,6.4-17.4,8.6-20.9,5.5-11.3,8.2-14.7,2.9-5.1,5.2-7.3,3-6,4.4-9.1,7-13.5,11.7-21.2c4.7-7.6,11.1-17,11.6-17.8s-8.8-7.2-8.8-7.2c0,0-3.4,3.2-6.1,8.6s-1,5.5-4.8,9.3-7.8,7.5-8.5,8.6-1.9,6.5-1.9,6.5c0,0-2.3,6.5-4.9,9.1s-7.7,11-7.7,11l-9.8,18.3s-1.7,7.9-3.6,11.1-7.9,10.7-8.3,13.6-1.6,4.4-2.2,5-2.5,6.2-2.5,6.2h0Z"/>
      <path class="cls-2" d="M91.9,229.1s18.8-28.6,21.3-37.7c2.5-9.1,4-19.6,4.7-21.2s4.4-12.7,4.4-12.7c0,0-4.2,3-7.5,7.7-3.3,4.7-9.9,9.3-13.5,14.7s-7.6,15.1-8.4,18.9-5,17.8-5,17.8l.9,3s2.4-5.9,6.1-12.9h0c3.7-7,5.7-10.5,5.7-10.5,0,0-3.8,10.1-4.3,13.4s-1.1,2.4-2.7,6.8c-1.6,4.4-2.2,10.1-2.2,10.1l.3,2.7h.2Z"/>
      <path class="cls-2" d="M94.3,244.2s-7.5-28.5-7.4-29-1.2-2.1-1.2-2.1l-1.4,1.2s1.1.5,1.9,2.9c.8,2.4,2.7,9.6,3.2,11.8s2,7.7,2.4,9.1.8,3.1.4,5.2-1.2,2.9.3,2.9,2-2,2-2h0Z"/>
      <path class="cls-2" d="M48.6,335.8s-.5-1.9-1.3-2.2-4.5,2.4-5.5,2.6-8,.2-10-.2-9.7-2.7-10.8-3.2-9-2.4-10.4-2.4-4.7-1.2-6.2-.6-2.5.6-2.5.6c0,0,4.3-2,6.9-2.9s13.8-3.8,15.1-3.2,9.5-.4,11.1.4,6.5.8,8.5,1.4c2,.6,3.2,1,3.5,2.2s.2,3.4.9,3.9.7,3.6.7,3.6h.1Z"/>
      <path class="cls-1" d="M82.1,203.6s-4.2-10-21.4-18.3c-17.2-8.3-29.6-11.7-35.2-14.1-5.6-2.5,6.2,4.4,6.2,4.4,0,0,8.9,7.3,13.3,10.6s7.6,5,7.6,5c0,0-.4-1.7,1-1.4s2.6.4,1.6,1.5-.9,1.6-.1,2,4.9,3.5,8.1,5.6,14,7,14.9,7.5-1.9-3.3-1.9-3.3c0,0,1.2.9,2.8,1.5s3.1-1.1,3.1-1.1h0Z"/>
      <path class="cls-2" d="M85.9,214.6s2,.2,1.5-1.1-1.7-3.4-1.5-4,2.2-18.9,1.2-23.2-4.3-20.1-5-22.2-2.6-7.3-2.6-7.3l.3,4.6s-2.9-7-3.2-10.4-3.6-8.1-3.6-8.1c0,0,.7,1.4.5,6.3s-.6,14.7-.9,16-.4,2.6-.4,2.6c0,0,.7.6,1.2,2.1s1.1,4.7,0,3.6-1.4-3.2-1.4-3.2c0,0,.3,9,1,11.8s3.5,15.1,6,20.3,6.9,12,6.9,12h0Z"/>
      <path class="cls-4" d="M163.1,196.2s6.9.8,14.3-6.6c7.5-7.4,14.8-32.5,14.8-32.5l2-23.1,1-9.5s-10.2,14.3-14.8,22.7-10,9.4-10.4,10.7-.4,4.5-.4,4.5c0,0-3.7,8.3-5.7,12.1-2,3.8-.1,7.6-.1,7.6l-3.4-1.5s-1.3,7,.4,8.8,2.4,6.7,2.4,6.7h0Z"/>
      <path class="cls-2" d="M87.7,219.8l-.6-3.9s-1.5-6.2-5.5-7.5-25.4-7.7-37.5-6.4c-12.2,1.3-16,1.2-18.2,1.8s-3.5.4-3.5.4c0,0,7,.6,10.8,1.5s6.3,1.2,12.4,3.2,16.2,6.2,17.7,6.2,10.4,2.8,12.9,2.1,5-1.2,6.6-1.5,2.8-.9,3.5.7,1.5,3.1,1.5,3.1h0Z"/>
      <path class="cls-2" d="M142.8,167.8s27.1-23.4,34.9-28.2c7.8-4.7,3.7-2.3,6.3-3.8,6-3.7,13.6-8.2,18.4-11.1,2.8-1.7,4.6-2.8,4.6-2.8l1.2,2.5s-21.4,12.4-24.5,14.5-11.4,7.3-14.9,10.3-10.9,8.2-13.8,10.8c-2.9,2.6-13.8,10.8-13.8,10.8l1.8-3.3h-.1Z"/>
      <path class="cls-3" d="M125.8,176s-2.8-10.2-4.5-17.4-1.2-5-1.3-6.2-.5-2.8-.9-4.3c-.8-3.3-1.9-6.5-1.9-6.5,0,0-.1-16.7-2.1-25.2s-9.4-26.8-13.6-32.4-10.9-14.1-13.6-16.8-11.9-16-16.3-21.3-5.2-9.3-5.2-9.3c0,0,8.3,16.5,11.2,31.1s15.5,44.6,15.5,44.6c0,0,5.5,13.9,10.8,17.8s4.9,4.4,8.4,7.5,5.3,14.4,5.3,14.4c0,0-.9-.2,1.4,6.7s5.3,20.4,5.3,20.4l1.5-2.6v-.3Z"/>
      <path class="cls-4" d="M156.8,119.7s-9.1-18.4-9.3-24.8c-.2-6.4-4.7-10.4-4.7-10.4l2.1,6.6s-.2,9.1,2.2,12.3c2.4,3.3,9.5,19.9,9.5,19.9l.3-3.6h0Z"/>
      <path class="cls-3" d="M116.1,142.6s-13.9,3.5-15.8,4-17.3.8-19.2.8-29.9-3.1-31-3.1-2-1.8-2.6-1.5-1.6.8-1.6.8l-1.5-.9s-21.7-1.7-23.3-1.4-4.6-.2-4.6-.2c0,0,13.7-1.5,15.5-1.9,1.9-.5,10-2.5,12-2.9s13.8-4.7,15.6-4.8,19.7-3.8,21.1-3.7,11.2.3,14.4,1.1,8.5,3.2,8.5,3.2c0,0,.1.9,1.4,1.8s3.3,1.7,3.3,1.7c0,0,.3.9,1.7,2.1s3.1,2.3,3.9,2.7,1.9,2.1,1.9,2.1h0Z"/>
      <path class="cls-3" d="M117.7,146.9s3.2.7,3.4-4.2-.6-10,0-12.7,3.4-9.2,3.8-9.8,8.3-12.6,14.7-19.2c6.3-6.6,17.5-15.2,17.5-15.2,0,0,8-5.1,9.7-6.7s-4.3,6.9-5.8,9.7-7.1,13.4-8.1,16.1-7.2,19.3-9.2,21.9-9.5,12.6-11.9,14.4-6.8,2.8-8,2.8.2,1.8-2.6,3.2-3.4-.3-3.4-.3Z"/>
      <path class="cls-2" d="M186.3,135.8s3.1-7.6,5.4-10.1,4.3-7.6,4.4-9.8-.6-19.6-.6-19.6l-2.8.7s.7-2.3.4-3.6-1.9.8-1.9.8c0,0,3.6-3.1,3.3-5.5s-2.7-3.3-1.2-4.6-.4-1.7.3-7.2-.5-15.2-.5-15.2c0,0-1.4,7.7-4,17.6s-11.4,25.8-9.7,28.1,1.3,3.5,1.3,3.5l-1.3-1.1s-1.7,3.3-1.1,6.5c.6,3.2.7,9.3,2.4,11.6s5.9,7.8,5.9,7.8h-.2Z"/>
      <path class="cls-2" d="M197.2,129.3s-1.3-11.9,11.9-21.8c13.1-9.8,37-20.5,37-20.5l17.6-8.8s-13.1,9.4-14.7,12.2-5.6,5.8-5.6,5.8c0,0,.7-3.4-.4-2.8s-1.6,4.4-1.6,4.4c0,0-3.7,4.9-4.6,5.9s-11.8,10.2-12.5,10.9-7.1,6.1-7.1,6.1c0,0,9.8-1.4,11.9-1.1s3.1,2.2,3.1,2.2c0,0,0-1.5,1-1.8s5.6-.3,5.6-.3l3.1.5-1.3,2.3s.6-.3,1.6-.6,2.1-1.3,2.1-1.3c0,0,11.9,2.2,14.2,2.5s11.6.1,13.7,1.1,15.4,1.4,15.4,1.4c0,0-12.2,2.2-18,3.7-5.8,1.5-26.5,3.7-28.6,3.5s-9.2-.7-10.8-.8-10.5-.6-10.5-.6l8.6,2.2,5.7.3s14.5-.7,17.6,1.4,14.9,3.5,17.5,3.6,16.2,1.1,16.2,1.1c0,0-18.7.7-25.8,1.6s-39.7,2.6-42.2,1-14.2-7-14.2-7c0,0,8.4,19.7,10.3,26.2s2.7,15.2,2.7,15.2c0,0-10-17.1-10.8-20.2s-4.8-13-5.9-16.9-2.1-10.2-2.1-10.2v-.4Z"/>
      <path class="cls-1" d="M173.4,201.5s8.6-3.1,10-4.5-.3-3.1-.3-3.1c0,0,4-5.5,6.8-6.3s17.1-4.4,22.4-5.3,17.1-4.1,26.8-3.1c9.6,1,26.1,2.1,30,2.3s12.6-.4,12.6-.4c0,0-22.7,5.2-30.9,10.2s-30.1,11.3-37.4,12-20.3,4.1-24.9,1.3c-4.6-2.8-15-3-15-3h0Z"/>
      <path class="cls-2" d="M173.9,205.1s5,10.4,16.2,20.6c11.2,10.2,25.9,18.2,25.9,18.2,0,0,11.7,3.9,15.1,7.4s13.1,11.2,13.1,11.2c0,0-13.3-18.6-17.8-23.6s-14.5-19.8-14.5-19.8c0,0-5.8-8.5-18.5-10.9-12.6-2.3-19.4-2.9-19.4-2.9v-.2Z"/>
      <path class="cls-2" d="M113.7,252.6s10.2-7.9,10-10.1c-.5-4.3-3-2-3.1-11.2s6.1-18,8.2-20.6,9.8-12.9,11.2-14.7,14.1-18,14.1-18c0,0-4,9.6-4.2,13.1s-3.1,7.6-3.1,7.6l2.3.7s-1.5,2.8-2.5,6.2-4.8,18.2-7.7,20.9-8.5,13.2-10.9,14.5,12.9-10.6,18.6-11.8,13.1-2.4,17.6-1.5,15.5,1.5,19.1,3.5,24,2.4,24,2.4c0,0-24.6,4.6-30,6.7-5.4,2.1-15.3,6.6-22.6,6.6-7.3,0-20.8-4.2-20.8-4.2,0,0,11.5,6.8,16.1,11.9s12.3,17.6,13.9,20.5,10.3,16.9,11.4,20.8,3.7,6.7,3.7,6.7c0,0-6.3-4.3-10.6-9.8-4.4-5.4-12.2-9.9-18.1-15.7-5.9-5.8-6.6-5.3-12.8-11.2-6.1-5.9-5.6-8.2-7.2-11.4s-3.1-9.2-3.1-9.2l-1-1.4s-8.4,6.9-11.5,8.8-1.3,0-1.3,0h0Z"/>
      <path class="cls-2" d="M186.6,57.1s8.8,11.6,12.8,14.7c4,3.1,17.2,12.3,17.2,12.3,0,0-5.8-9.4-11-13.7-5.2-4.3-10.8-11.1-13.5-11.3s7.6,2.5,23.7-4.8c16-7.3,28.8-14.8,30.1-15s13.2-6.2,13.2-6.2c0,0-7.6,1.9-9.1,2.3s-10.2,1.7-12.9,2.1-13.3,1.4-15,2.5-2.8,1.9-2.8,1.9l-1.1-.9s-9.8,3.8-12.6,4.7-10.7,5.9-12.5,6.5-4.2,2.8-4.2,2.8c0,0,15.4-12,18.6-17.4s11.8-18.2,12.7-20.8,7.3-14,7.3-14c0,0-4.2,4-9.5,9.8-5.3,5.7-11.3,12.6-13.4,14.6-2.1,2-7.2,9.5-8.1,11.2-1,1.7-3.9,8.8-4.5,10.1s-3.4,4.5-3.4,4.5l-1.8,4h0Z"/>
      <path class="cls-2" d="M175.8,29.6s2.9,15.1,2.8,19.4,0,2.1,0,3.4c0,3.3,0,7.4,0,10s0,2.5,0,2.5l-1.5.6s.3-11.7.3-13.4-.1-6.3-.5-8.2-.6-6-1-7.7-1-7.7-1-7.7l.9,1.1h0Z"/>
      <path class="cls-2" d="M177.6,54v-3.2c0,0-.7-5.1-3.4-5.8s-17.2-4.5-25.7-2.6c-8.5,1.9-11.1,2.2-12.8,2.9s-2.5.6-2.5.6c0,0,4.8,0,7.5.5s4.3.5,8.3,1.7,10.8,3.9,11.9,3.9,7.1,1.5,8.8.7,3.6-1.4,4.7-1.6,2-1,2.5.3.8,2.4.8,2.4h0Z"/>
      <path class="cls-4" d="M177.6,47.1s-.6-1.6,1.9-2.1,5.3-.5,6.6-1,4.5-2.5,4.8-2.8,6-5.3,8.9-9.2,6.7-10.3,6.7-10.3c0,0,2-4.6,2.8-5.5s-3.2,2.8-4.7,3.8-6.5,4.8-7.8,5.5-9.6,5.4-10.7,6.6-5.9,5.9-6.7,7.3-.9,3.8-.9,4.4-1,0-1.5,1.6.4,1.7.4,1.7v-.2Z"/>
      <path class="cls-2" d="M178.3,45.4s-1.9-.9-.3-2.9c1.7-2,4-3.9,4.7-5.1s1.7-5,1.6-5.3.3-8.1-.6-13c-.9-4.9-3.5-12.4-3.5-12.4,0,0-2.2-4.8-2.5-6.2-.3-1.2-.3,4.3-.6,6s-1.3,8-1.8,9.4-3.4,10.4-3.3,12.2.3,8.4.9,10,2.5,3.5,3.2,3.9-.7.7.2,2.2,1.8,1,1.8,1Z"/>
      <path class="cls-3" d="M183.5,57.1s4,3,6.4,2.8c2.4-.2,5.1-1,3.2,2.6s-9.5,18.1-10.6,17.9-9.6,17.2-9.9,17.8,0,4.6,0,4.6l-5.6-1.7-5-3.9s6.4-8.1,7.4-9.6,5.3-11.9,6.6-13.5,2.8-8.3,4.4-10.7,3.1-6.2,3.1-6.2v-.2Z"/>
      <path class="cls-3" d="M161,103.7s4,3,6.4,2.8c2.4-.2,3.2-.6,1.3,3s-7.7,17.7-8.8,17.5-1.2,4.1-1.5,4.8-2.3,6.3-2.3,6.3l-4.9-.3-3.8-3.7s2.9-4.2,3.9-5.8.8-6,2.1-7.6,2.8-8.3,4.4-10.7,3.1-6.2,3.1-6.2v-.2Z"/>
      <path class="cls-3" d="M140.3,148.5s4,3,6.4,2.8,5.7-.6,3.2,2.6c-5.8,7.1-9.8,21-10.1,20-.3-1.1-2.2,6.9-2.5,7.5s-3,7.5-3,7.5l-6.7-2.7-3.2-2.7s-1.3-3.4-.3-5,7-15.3,8.2-16.8,3.1-4.5,4.7-7,3.1-6.2,3.1-6.2h.2Z"/>
      <path class="cls-3" d="M90.5,251.5s4,3,6.4,2.8,5.1-1,3.2,2.6-9.5,18.1-10.6,17.9-9.6,17.2-9.9,17.8,0,4.6,0,4.6l-5.6-1.7-5-3.9s6.4-8.1,7.4-9.6,5.3-11.9,6.6-13.5,2.8-8.3,4.4-10.7,3.1-6.2,3.1-6.2v-.2Z"/>
      <path class="cls-3" d="M121.6,189.8s4,3,6.4,2.8,5.1-1,3.2,2.6-9.5,18.1-10.6,17.9-2,5.2-2.3,5.9-1.7,6-1.7,6l-3.9-3.4-4.4-1.4s2-5.2,3.1-6.9,1.4-5.1,2.7-6.7,2.8-8.3,4.4-10.7,3.1-6.2,3.1-6.2h0Z"/>
      <path class="cls-3" d="M67.3,299.2s4.2,2.8,6.6,2.4,5.1-1.3,3.3,2.4-8.3,18.6-9.5,18.6-8.5,17.7-8.8,18.4.3,4.6.3,4.6l-5.6-1.4-5.2-3.5s5.8-8.5,6.8-10.1,4.6-12.2,5.6-13.9,2.3-8.5,3.7-11,2.7-6.3,2.7-6.3h0Z"/>
    </g>
  </g>
</svg>