<?xml version="1.0" encoding="UTF-8"?>
<svg id="Layer_2" data-name="Layer 2" xmlns="http://www.w3.org/2000/svg" viewBox="0 0 143.2 423.1">
  <defs>
    <style>
      .cls-1 {
        fill: #808285;
      }

      .cls-1, .cls-2, .cls-3, .cls-4 {
        stroke-width: 0px;
      }

      .cls-5 {
        stroke: #a7a9ac;
        stroke-miterlimit: 10;
        stroke-width: .5px;
      }

      .cls-5, .cls-3 {
        fill: #a7a9ac;
      }

      .cls-2 {
        fill: #fff;
      }

      .cls-4 {
        fill: #bcbec0;
      }
    </style>
  </defs>
  <g id="Layer_5" data-name="Layer 5">
    <path class="cls-1" d="M68.7,206.5c.9-2.7,1.7-5.3,2.6-7.9.8-2.4,2.3-4.6,2.4-7.3,0-.5.1-1,.3-1.4.5-1.4,1.1-2.8,1.7-4.1.3-.8.8-1.6,1.1-2.4.3-.8,2-6.9,2.5-8.9.3-1.1,2.1-6.6,3-8,.7-1,1.3-4,1.4-4,0-.6.9-3.4,1.3-4.4.4-1.1.6-2.2.9-3.3,1-3.1,1.9-6.2,3-9.3.2-.7,2.5-3.9,2-5.1,0,0,2-6.4,2.3-7.7.4-1.4,1-2.7,1.5-4,.8-2.2,1.5-4.4,2.3-6.5,0-.1,0-.3.1-.5.9-2.3,1.7-4.6,2.6-7,0,0,2.1-5.7,2.9-8.6.9-3.1,1.8-6.1,2.8-9.1.3-.9.8-1.8,1.2-2.7.1-.4.5-1.9.6-2.3.9-3,1.7-6,2.7-8.9.5-1.5,1.4-2.8,2-4.2.4-.9.6-2,.9-2.9.9-2.8,2-5.7,2.8-8.5.2-.7,0-1.5,0-2.3,0,0-.4-.3-.5-.2-.2.1-.5.4-.6.6-.5,1.5-.8,3.1-1.3,4.7-.3,1.1,0,2.3-1.2,3.1-.4.3-.5.9-.6,1.4-1.2,3.8-2.3,7.6-3.4,11.4-.1.3-1,2.6-1.3,3.5-.9,2.6-1.7,5.3-2.7,7.9-.9,2.6-2,5.2-2.9,7.8-.6,1.6-1,3.4-1.5,5-.9,2.8-2,5.6-2.9,8.4-1.5,4.4-2.8,8.9-4.3,13.3-.8,2.4-1.9,4.6-2.7,7-1,2.8-1.8,5.7-2.7,8.5-1.7,5.1-3.5,10.3-5.2,15.4-1.5,4.4-3,8.7-4.5,13.1-.8,2.4-1.8,4.7-2.3,7.1-.6,3.1-2.1,5.9-3.1,8.9-.8,2.4-1.3,4.9-2.1,7.3-.5,1.5-1.1,2.9-1.7,4.4,0,.1-.1.3-.1.5q0,1.6-1.7,1.6c-.2,0-.3,0-.8,0,.8.8,2.1,1.3,1,2.8-.5,0-1.1,0-2,.2.2.2.3.4.5.5,1.3.4,1.5.7,1,1.9-2.4,6.9-4.8,13.8-7.1,20.8-2.2,6.7-4.4,13.4-6.5,20.1-1.2,3.8-2.2,7.6-3,11.5,6.1-17.6,12.3-35.3,17.6-53.5,2.7.8,5.2,1.6,7.7,2.3,0-.1.1-.2.2-.4-.3-.2-.6-.5-.9-.6-2-.7-4-1.4-6-2.1-.2,0-.4-.3-.6-.5.8-1.4,1.9-1.3,3.1-.8,1.6.6,3.3,1.2,4.9,1.7,1.3.4.7,1.4,1.1,2.2-1.2,0-1.5.3-1.2,1.5.2.7-.2,1.6-.4,2.4-2.6,7.5-5.3,15-8,22.5-2.6,7.3-5.2,14.5-7.8,21.8-1.6,4.4-3.2,8.7-4.7,13.1-2.1,5.9-4,11.9-6,17.8-1.8,5.1-3.5,10.3-5.4,15.4-.7,2-1.1,4.1-.9,6.3.7,10.9,1.4,21.9,2,32.8.7,10.6,1.4,21.2,2,31.8.4,6.6.6,13.2.9,19.8.4,7.5.8,15.1,1.2,22.6,0,.8,0,1.6-.2,2.2-.2.5-.9,1.1-1.4,1.2-.8,0-1-.7-1-1.5,0-1.1,0-2.2,0-3.2,0-.5-.3-.9-.4-1.4.8-1.1-.6-1.8-.6-2.9,1.3-1.1-.2-1.9-.3-3,.1-.1.4-.3.6-.5-.2-.5-.5-1-.6-1.4-1.3-4.4-1.3-9-1.9-13.5-.5-4.3-1-8.5-1.5-12.8,0-.8,0-1.7-.2-2.5-.4-2.2-1.1-4.3-1.4-6.5-.7-4.7-1.2-9.5-1.8-14.3-.7-5.5-1.5-11.1-2.1-16.6-.4-2.9-.6-5.8-.9-8.7,0-.3-.1-.7-.5-1.1-.5,1.6-1.1,3.1-1.6,4.7-3.4,11.6-8.2,22.6-12.5,33.8-3.8,10.1-7.6,20.3-11.4,30.4-1.9,5.1-3.7,10.1-5.6,15.2-.2.6-.5,1.1-.9,1.6-.3.3-.9.5-1.2.3-.3-.2-.7-.8-.6-1.2.8-3.6,1.9-7.1,3.2-10.6.9-2.5,1.5-5.1,2.3-7.7.4-1.2.8-2.4,1.2-3.6-.2,0-.4-.1-.5-.2-1,3.2-2.1,6.3-3.1,9.5-.1,0-.3,0-.4-.1.3-1.2.7-2.4,1-3.6,1.2-4.1,2.4-8.3,3.6-12.4.8-2.5,1.8-4.9,2.5-7.5.5-1.7.6-3.6,1-5.4.9-3.5,2-6.9,3-10.3,1.2-4,2.2-8,3.4-12,1.6-5.3,3.2-10.6,4.8-15.9,1.5-5,3-10.1,4.6-15.1,1.5-4.8,3.1-9.5,4.5-14.2.4-1.2.2-2.7,0-4-.5-6-1.1-12-1.6-18-.9-9.6-1.7-19.3-2.6-28.9-.6-7.2-1.1-14.3-1.8-21.5-.8-8.9-1.6-17.8-2.3-26.6-.7-7.5-1.3-15-2-22.5-.7-8.1-1.5-16.3-2.2-24.4-.4-5.1-.6-10.1-1-15.2-.6-8-1.4-16-2.1-24-.4-5.1-.7-10.1-1.1-15.2-.4-5.3-.9-10.6-1.3-15.9-.8-10-1.6-20-2.3-30-.5-6.4-.8-12.8-1.2-19.3-.1-1.8-1.5-28.2-1.7-30.1,0,0-.8-12.4-.8-12.4,2.7-.2,1.7,0,1.8,0,.1.4,1,37.5,1,37.9.2,1.1.3,2.2.3,3.4.1,2.5.2,4.9.3,7.4,0,.4.1,2.6,1,4,0,0,1.1.3,1.1.3,1.5.6.6-5.7.5-8.6,0-2.3-.5-9.6-.5-10.9,0-.5-1.2-15.1-1.4-16-.3-1.2,0-1.6,1.3-1.6,1.8,0,3.6-.3,5.5-.5,0-.1,0-.3,0-.4-1.1,0-2.1,0-3.2,0-1.1,0-2.1.2-3.2.1-.4,0-.9-.5-1-.9-.2-.6,0-1.1.8-1.2,2.6-.2,5.2-.5,7.8-.7.1,0,.3,0,.4,0,0-.1,0-.3,0-.4-3-.6-6,.1-9,.3-.2-2.3-.5-4.5-.6-6.7,0-1.5,0-3,0-4.5,0-.7.4-1.1,1.1-1.1C14.2.5,17,.2,19.8,0c1,0,1.6.5,1.7,1.4.2,1.8.3,3.6.5,5.4.1,1.3.3,2.6.4,3.9,0,1.5,0,3,0,4.4,0,.8.5,1.6.6,2.4.1,1,.1,2,.2,3,.3,6.3.7,12.5,1,18.8.2,4.3.5,8.5.8,12.8.5,7.2.9,14.4,1.4,21.5.4,7.1.9,14.2,1.4,21.3.7,10.5,1.3,21.1,2,31.6.8,12.1,1.5,24.3,2.3,36.4.6,9.7,1.3,19.4,2,29.1,0,1.3,0,2.6,0,4.2-1.8,0-3.7-.2-5.5,0-1.8.2-3.7-.6-5.5.8.7.4,1.2.7,1.8,1,.1-.3.2-.6.4-.9.5,0,1-.1,1.5-.1,1.5,0,2.9,0,4.4,0,.7,0,1.3,0,2-.3,1-.3,1.3,0,1.4,1,.3,4.5.7,9,1,13.5,1,13.7,2,27.4,3,41,.6,8.2,1.3,16.4,2,24.6,0,1.1.3,2.2.8,3.3.4-1.2.8-2.4,1.2-3.6,2.4-8.2,4.7-16.4,7.2-24.6,1.6-5.2,3.5-10.3,5.2-15.4,2.2-6.5,4.5-13,6.7-19.5,1.5-4.4,3-8.8,4.5-13.2,1.4-4,2.8-8.1,4.2-12.1.8-2.3,1.3-4.6,2.1-6.8.9-2.7,1.9-5.3,2.8-8,.5-1.5.7-3,1.2-4.5.5-1.4,1.1-2.8,1.6-4.3,1-2.8,2-5.5,3-8.3,1.5-4.5,3-9,4.5-13.5,1.9-5.8,3.8-11.5,5.7-17.3,1.3-3.8,2.6-7.5,3.9-11.3,1.9-5.7,3.9-11.4,5.8-17.1,1.6-4.5,3.2-9,4.8-13.6,2-5.6,4-11.1,6-16.7,2.2-6.5,4.4-13,6.6-19.5,1.7-5,3.4-10.1,5.1-15.1.3-1,.9-.9,1.8-.7,1.6.4,3.2.6,4.9.6-.9-.4-1.8-1-2.8-1.3-1-.3-2.1-.3-3.2-.4.2-1.8.5-1.9,2.2-1.3,1.8.6,3.8.9,5.7,1.3,0-.1,0-.2,0-.3-2.4-.8-4.7-1.6-7.2-2.5,1-2.8,2-5.7,3-8.6.2-.5.4-1.1.5-1.6.5-1.6,1.1-2,2.7-1.6,3.8,1.2,7.5,2.4,11.3,3.7.9.3,1,1,.7,1.8-1.2,3.2-2.3,6.4-3.4,9.6-1.9,5.2-3.8,10.4-5.7,15.6-2.2,6-4.4,12.1-6.6,18.1-3.5,9.9-7,19.7-10.5,29.6-4.2,11.8-8.4,23.6-12.6,35.5-2.7,7.5-5.3,15-7.9,22.5-2.8,7.9-5.5,15.7-8.3,23.6-1.8,5-3.5,10-5.4,15-1.1,2.9-2.4,5.6-3.6,8.4-.8,1.9-1.4,3.8-2,5.7-.3.8-.5,1.4-1.4.5-.4-.4-1.2-.4-1.8-.7-1.6-.6-3.3-1.2-4.9-1.8ZM6.3,395c0,.1.3.4.5.5.2-.2.5-.3.5-.5.1-.6,0-1.2.3-1.7.5-.8,2-6.3,2.4-6.3-.3-1,.3-1.7.6-2.5.7-2,.8-4.2,2.1-5.9,0,0,0-.2,0-.3.3-1.4.6-2.9,1.1-4.3.5-1.5,1.1-2.9,1.6-4.4,1.5-4.6,2.9-9.2,4.5-13.8.3-.8-.2-.8-.4-1.1.3,0,.8,0,.9-.1.3-1.1.5-2.2.8-3.2.3-.7.7-1.3.9-2,1.1-3.3,2.1-6.5,3.1-9.8.6-2.1,1-4.2,1.6-6.2,1.4-4.4,3-8.7,4.4-13.2.5-1.7,1.4-3.4.8-5.5-.2.4-.3.7-.4.9-1.6,4.9-3.2,9.9-4.9,14.8-1.2,3.7-2.5,7.3-3.8,11-.9,2.6-1.6,5.3-2.6,7.9-.4,1.1-1.1,3.8-1.3,4.1-.5.7-.1,1.1.4,1.4-.3.2-.9.4-1,.6-.2.7-.2,1.5-.5,2.2-.4,1.2-1.1,2.4-1.5,3.7-.5,1.7-1.1,3.3-1.3,5.1-.1,1.5-1,3-1.5,4.5-.8,2.5-1.7,5.1-2.5,7.6-.7,2.2-1.5,4.4-2.2,6.6-.2.7-.6,1.5-.8,2.3-.3,1.3-1.7,6.3-2.2,7.7ZM116.8,58.3c.4.9-.3,4.8-1.5,6,.5,0,.6,0,.7,0,.8-.6,3.6-10.2,3.5-12.1-.4,1.5-1.7,3.6-2.1,5.1-.1,0,.1,0,0,0,.1.3-.3,1-.6,1ZM39.4,351.4c-1.3-10-2.3-19.7-3.3-29.4-.9-9.7-2-19.5-3.1-29.2-.2,0-.3,0-.5,0,1.3,19.6,2.9,39.2,5.4,58.9.7-.2,1.2-.3,1.5-.4ZM25,206.4c.5,13.3,1.6,26.4,3.3,39.6-.2-13.3-1.7-26.4-3.3-39.6ZM50.3,279.6c-.2,0-.3-.2-.5-.3-.4.5-1.1,1-1.2,1.5-.7,2.2-1.1,4.5-1.7,6.7-.5,1.8-1.4,3.5-2.1,5.2-.7,1.9-1.5,3.7-2.1,5.6-.3.9-.4,1.9-.6,2.8.1,0,.2,0,.4,0,2.6-7.2,5.3-14.5,7.9-21.7ZM53,268.9c-1.1,3.5-2.2,6.7-3.4,10.3,1.7-1.6,4.2-9,3.4-10.3ZM23.2,199.6c0,.2.1.4.2.6,3.4-.5,6.9-.4,10.3-1.1-.3-.2-.6-.3-.9-.3-2.7,0-5.4.2-8.1.3-.5,0-.9.3-1.4.5ZM57.4,258.4c-.1,0-.2,0-.3,0-.6,1.3-1.3,2.7-1.8,4.1-1.2,3.6-1.1,3.6-.6,4.3.9-2.8,1.8-5.5,2.7-8.3Z"/>
    <path class="cls-3" d="M39.4,351.4c-.3,0-.7.2-1.5.4-2.5-19.7-4.1-39.3-5.4-58.9.2,0,.3,0,.5,0,1,9.7,2.1,19.5,3.1,29.2.9,9.7,1.9,19.5,3.3,29.4Z"/>
    <path class="cls-4" d="M17.2,108.8c0-.1,0-.3.4-.4l2.4,21.8c.2,1.1,1.3,26.4.7,26-.7-5.5-3.3-29.8-3.3-31.2,0-.5,0-13.1-.1-16.2Z"/>
    <path class="cls-2" d="M19.6,354.7c.2.3.7.3.4,1.1-1.6,4.6-3,9.2-4.5,13.8-.5,1.5-2.3,7.2-2.7,8.7,0,.1-1.5,4.3-2.2,6.2-.3.8-.9,1.5-.6,2.5-.4,0-.8.1-1.1.2,0,0,0,0,0,0,.1-.7.2-1.5.4-2.2.7-2.2,1.4-4.4,2.2-6.6.8-2.5,1.7-5.1,2.5-7.6.5-1.5,1.3-3,1.5-4.5.2-1.8.8-3.4,1.3-5.1.4-1.3,1-2.4,1.5-3.7.2-.7.2-1.5.5-2.2.1-.3.6-.4,1-.6,0,0,0,0,0,0Z"/>
    <path class="cls-3" d="M25,206.4c1.7,13.1,3.1,26.3,3.3,39.6-1.7-13.1-2.9-26.3-3.3-39.6Z"/>
    <path class="cls-2" d="M50.3,279.6c-2.6,7.2-5.3,14.5-7.9,21.7-.1,0-.2,0-.4,0,.2-.9.3-1.9.6-2.8.6-1.9,1.4-3.8,2.1-5.6.7-1.7,1.5-3.4,2.1-5.2.7-2.2,1.1-4.5,1.7-6.7.2-.6.8-1,1.2-1.5.2,0,.3.2.5.3Z"/>
    <path class="cls-2" d="M53,268.9c.8,1.2-1.7,8.7-3.4,10.3,1.2-3.6,2.2-6.8,3.4-10.3Z"/>
    <path class="cls-2" d="M23.2,199.6c.5-.2.9-.5,1.4-.5,2.7-.2,5.4-.2,8.1-.3.3,0,.6,0,.9.3-3.4.7-6.9.6-10.3,1.1,0-.2-.1-.4-.2-.6Z"/>
    <path class="cls-2" d="M118,58.3c.2,1-1.3,5.4-2.1,6,0,0-.2,0-.7,0,1.2-1.3,2.8-5.8,2.4-6.7.2,0,.4.6.4.6Z"/>
    <path class="cls-2" d="M57.4,258.4c-.9,2.7-1.8,5.5-2.7,8.3-.5-.7-.6-.7.6-4.3.4-1.4,1.2-2.7,1.8-4.1.1,0,.2,0,.3,0Z"/>
    <path class="cls-2" d="M7.9,391c.4.8-.5,3.4-.6,4,0,.2-.3.3-.5.5-.2-.2-.5-.4-.5-.5.5-1.3,1.1-2.6,1.6-4h0Z"/>
    <path class="cls-5" d="M38.5,352.9l2.1,14.3s.8,5.9,1,6.5.6.8.6.3-.3-2.2-.4-3.3-2.2-18.1-2.2-18.1h-1Z"/>
  </g>
</svg>