<?xml version="1.0" encoding="UTF-8"?>
<svg id="Layer_2" data-name="Layer 2" xmlns="http://www.w3.org/2000/svg" version="1.1" viewBox="0 0 423.2 253.1">
  <defs>
    <style>
      .cls-1 {
        fill: #bcbec0;
      }

      .cls-1, .cls-2, .cls-3, .cls-4 {
        stroke-width: 0px;
      }

      .cls-2, .cls-5 {
        fill: #a7a9ac;
      }

      .cls-5 {
        stroke: #a7a9ac;
        stroke-miterlimit: 10;
        stroke-width: .5px;
      }

      .cls-3 {
        fill: #808285;
      }

      .cls-4 {
        fill: #fff;
      }
    </style>
  </defs>
  <g id="Layer_5" data-name="Layer 5">
    <path class="cls-3" d="M206.5,115.6c-2.7-.9-5.3-1.7-7.9-2.6-2.4-.8-4.6-2.3-7.3-2.4-.5,0-1,0-1.4-.3-1.4-.5-2.8-1.1-4.1-1.7-.8-.3-1.6-.8-2.4-1.1-.8-.3-6.9-2-8.9-2.5-1.1-.3-6.6-2.1-8-3-1-.7-4-1.3-4-1.4-.6,0-3.4-.9-4.4-1.3-1.1-.4-2.2-.6-3.3-.9-3.1-1-6.2-1.9-9.3-3-.7-.2-3.9-2.5-5.1-2,0,0-6.4-2-7.7-2.3-1.4-.4-2.7-1-4-1.5-2.2-.8-4.4-1.5-6.5-2.3h-.5c-2.3-.9-4.6-1.7-7-2.6,0,0-5.7-2.1-8.6-2.9-3.1-.9-6.1-1.8-9.1-2.8-.9-.3-1.8-.8-2.7-1.2-.4,0-1.9-.5-2.3-.6-3-.9-6-1.7-8.9-2.7-1.5-.5-2.8-1.4-4.2-2-.9-.4-2-.6-2.9-.9-2.8-.9-5.7-2-8.5-2.8-.7-.2-1.5,0-2.3,0,0,0-.3.4-.2.5,0,.2.4.5.6.6,1.5.5,3.1.8,4.7,1.3,1.1.3,2.3,0,3.1,1.2.3.4.9.5,1.4.6,3.8,1.2,7.6,2.3,11.4,3.4.3,0,2.6,1,3.5,1.3,2.6.9,5.3,1.7,7.9,2.7,2.6.9,5.2,2,7.8,2.9,1.6.6,3.4,1,5,1.5,2.8.9,5.6,2,8.4,2.9,4.4,1.5,8.9,2.8,13.3,4.3,2.4.8,4.6,1.9,7,2.7,2.8,1,5.7,1.8,8.5,2.7,5.1,1.7,10.3,3.5,15.4,5.2,4.4,1.5,8.7,3,13.1,4.5,2.4.8,4.7,1.8,7.1,2.3,3.1.6,5.9,2.1,8.9,3.1,2.4.8,4.9,1.3,7.3,2.1s2.9,1.1,4.4,1.7h.5c1.1,0,1.6.6,1.6,1.7v.8c.8-.8,1.3-2.1,2.8-1,0,.5,0,1.1.2,2,.2-.2.4-.3.5-.5.4-1.3.7-1.5,1.9-1,6.9,2.4,13.8,4.8,20.8,7.1,6.7,2.2,13.4,4.4,20.1,6.5,3.8,1.2,7.6,2.2,11.5,3-17.6-6.1-35.3-12.3-53.5-17.6.8-2.7,1.6-5.2,2.3-7.7-.1,0-.2,0-.4-.2-.2.3-.5.6-.6.9-.7,2-1.4,4-2.1,6,0,.2-.3.4-.5.6-1.4-.8-1.3-1.9-.8-3.1.6-1.6,1.2-3.3,1.7-4.9.4-1.3,1.4-.7,2.2-1.1,0,1.2.3,1.5,1.5,1.2.7-.2,1.6.2,2.4.4,7.5,2.6,15,5.3,22.5,8,7.3,2.6,14.5,5.2,21.8,7.8,4.4,1.6,8.7,3.2,13.1,4.7,5.9,2.1,11.9,4,17.8,6,5.1,1.8,10.3,3.5,15.4,5.4,2,.7,4.1,1.1,6.3.9,10.9-.7,21.9-1.4,32.8-2,10.6-.7,21.2-1.4,31.8-2,6.6-.4,13.2-.6,19.8-.9,7.5-.4,15.1-.8,22.6-1.2.8,0,1.6,0,2.2.2.5.2,1.1.9,1.2,1.4,0,.8-.7,1-1.5,1h-3.2c-.5,0-.9.3-1.4.4-1.1-.8-1.8.6-2.9.6-1.1-1.3-1.9.2-3,.3-.1,0-.3-.4-.5-.6-.5.2-1,.5-1.4.6-4.4,1.3-9,1.3-13.5,1.9-4.3.5-8.5,1-12.8,1.5-.8,0-1.7,0-2.5.2-2.2.4-4.3,1.1-6.5,1.4-4.7.7-9.5,1.2-14.3,1.8-5.5.7-11.1,1.5-16.6,2.1-2.9.4-5.8.6-8.7.9-.3,0-.7,0-1.1.5,1.6.5,3.1,1.1,4.7,1.6,11.6,3.4,22.6,8.2,33.8,12.5,10.1,3.8,20.3,7.6,30.4,11.4,5.1,1.9,10.1,3.7,15.2,5.6.6.2,1.1.5,1.6.9.3.3.5.9.3,1.2s-.8.7-1.2.6c-3.6-.8-7.1-1.9-10.6-3.2-2.5-.9-5.1-1.5-7.7-2.3-1.2-.4-2.4-.8-3.6-1.2,0,.2-.1.4-.2.5,3.2,1,6.3,2.1,9.5,3.1,0,0,0,.3-.1.4-1.2-.3-2.4-.7-3.6-1-4.1-1.2-8.3-2.4-12.4-3.6-2.5-.8-4.9-1.8-7.5-2.5-1.7-.5-3.6-.6-5.4-1-3.5-.9-6.9-2-10.3-3-4-1.2-8-2.2-12-3.4-5.3-1.6-10.6-3.2-15.9-4.8-5-1.5-10.1-3-15.1-4.6-4.8-1.5-9.5-3.1-14.2-4.5-1.2-.4-2.7-.2-4,0-6,.5-12,1.1-18,1.6-9.6.9-19.3,1.7-28.9,2.6-7.2.6-14.3,1.1-21.5,1.8-8.9.8-17.8,1.6-26.6,2.3-7.5.7-15,1.3-22.5,2-8.1.7-16.3,1.5-24.4,2.2-5.1.4-10.1.6-15.2,1-8,.6-16,1.4-24,2.1-5.1.4-10.1.7-15.2,1.1-5.3.4-10.6.9-15.9,1.3-10,.8-20,1.6-30,2.3-6.4.5-12.8.8-19.3,1.2-1.8.1-28.2,1.5-30.1,1.7l-12.4.8c-.2-2.7,0-1.7,0-1.8.4-.1,37.5-1,37.9-1,1.1-.2,2.2-.3,3.4-.3,2.5-.1,4.9-.2,7.4-.3.4,0,2.6-.1,4-1l.3-1.1c.6-1.5-5.7-.6-8.6-.5-2.3,0-9.6.5-10.9.5s-15.1,1.2-16,1.4c-1.2.3-1.6,0-1.6-1.3s-.3-3.6-.5-5.5h-.4v3.2c0,1.1.2,2.1.1,3.2,0,.4-.5.9-.9,1-.6.2-1.1,0-1.2-.8-.2-2.6-.5-5.2-.7-7.8v-.4h-.4c-.6,3,.1,6,.3,9-2.3.2-4.5.5-6.7.6H2c-.7,0-1.1-.4-1.1-1.1-.4-2.9-.7-5.7-.9-8.5,0-1,.5-1.6,1.4-1.7,1.8-.2,3.6-.3,5.4-.5,1.3,0,2.6-.3,3.9-.4h4.4c.8,0,1.6-.5,2.4-.6,1,0,2,0,3-.2,6.3-.3,12.5-.7,18.8-1,4.3-.2,8.5-.5,12.8-.8,7.2-.5,14.4-.9,21.5-1.4,7.1-.4,14.2-.9,21.3-1.4,10.5-.7,21.1-1.3,31.6-2,12.1-.8,24.3-1.5,36.4-2.3,9.7-.6,19.4-1.3,29.1-2h4.2c0,1.8-.2,3.7,0,5.5s-.6,3.7.8,5.5c.4-.7.7-1.2,1-1.8-.3,0-.6-.2-.9-.4,0-.5-.1-1-.1-1.5v-4.4c0-.7,0-1.3-.3-2-.3-1,0-1.3,1-1.4,4.5-.3,9-.7,13.5-1,13.7-1,27.4-2,41-3,8.2-.6,16.4-1.3,24.6-2,1.1,0,2.2-.3,3.3-.8-1.2-.4-2.4-.8-3.6-1.2-8.2-2.4-16.4-4.7-24.6-7.2-5.2-1.6-10.3-3.5-15.4-5.2-6.5-2.2-13-4.5-19.5-6.7-4.4-1.5-8.8-3-13.2-4.5-4-1.4-8.1-2.8-12.1-4.2-2.3-.8-4.6-1.3-6.8-2.1-2.7-.9-5.3-1.9-8-2.8-1.5-.5-3-.7-4.5-1.2-1.4-.5-2.8-1.1-4.3-1.6-2.8-1-5.5-2-8.3-3l-13.5-4.5c-5.8-1.9-11.5-3.8-17.3-5.7-3.8-1.3-7.5-2.6-11.3-3.9-5.7-1.9-11.4-3.9-17.1-5.8-4.5-1.6-9-3.2-13.6-4.8-5.6-2-11.1-4-16.7-6-6.5-2.2-13-4.4-19.5-6.6-5-1.7-10.1-3.4-15.1-5.1-1-.3-.9-.9-.7-1.8.4-1.6.6-3.2.6-4.9-.4.9-1,1.8-1.3,2.8s-.3,2.1-.4,3.2c-1.8-.2-1.9-.5-1.3-2.2.6-1.8.9-3.8,1.3-5.7h-.3c-.8,2.4-1.6,4.7-2.5,7.2-2.8-1-5.7-2-8.6-3-.5-.2-1.1-.4-1.6-.5-1.6-.5-2-1.1-1.6-2.7,1.2-3.8,2.4-7.5,3.7-11.3.3-.9,1-1,1.8-.7,3.2,1.2,6.4,2.3,9.6,3.4,5.2,1.9,10.4,3.8,15.6,5.7,6,2.2,12.1,4.4,18.1,6.6,9.9,3.5,19.7,7,29.6,10.5,11.8,4.2,23.6,8.4,35.5,12.6,7.5,2.7,15,5.3,22.5,7.9,7.9,2.8,15.7,5.5,23.6,8.3,5,1.8,10,3.5,15,5.4,2.9,1.1,5.6,2.4,8.4,3.6,1.9.8,3.8,1.4,5.7,2,.8.3,1.4.5.5,1.4s-.4,1.2-.7,1.8c-.6,1.6-1.2,3.3-1.8,4.9v.3h.1ZM395,178c.1,0,.4-.3.5-.5-.2-.2-.3-.5-.5-.5-.6,0-1.2,0-1.7-.3-.8-.5-6.3-2-6.3-2.4-1,.3-1.7-.3-2.5-.6-2-.7-4.2-.8-5.9-2.1h-.3c-1.4-.3-2.9-.6-4.3-1.1-1.5-.5-2.9-1.1-4.4-1.6-4.6-1.5-9.2-2.9-13.8-4.5-.8-.3-.8.2-1.1.4,0-.3,0-.8-.1-.9-1.1-.3-2.2-.5-3.2-.8-.7-.3-1.3-.7-2-.9-3.3-1.1-6.5-2.1-9.8-3.1-2.1-.6-4.2-1-6.2-1.6-4.4-1.4-8.7-3-13.2-4.4-1.7-.5-3.4-1.4-5.5-.8.4.2.7.3.9.4,4.9,1.6,9.9,3.2,14.8,4.9,3.7,1.2,7.3,2.5,11,3.8,2.6.9,5.3,1.6,7.9,2.6,1.1.4,3.8,1.1,4.1,1.3.7.5,1.1,0,1.4-.4.2.3.4.9.6,1,.7.2,1.5.2,2.2.5,1.2.4,2.4,1.1,3.7,1.5,1.7.5,3.3,1.1,5.1,1.3,1.5.1,3,1,4.5,1.5,2.5.8,5.1,1.7,7.6,2.5,2.2.7,4.4,1.5,6.6,2.2.7.2,1.5.6,2.3.8,1.3.3,6.3,1.7,7.7,2.2v-.4h-.1ZM58.3,67.5c.9-.4,4.8.3,6,1.5v-.7c-.6-.8-10.2-3.6-12.1-3.5,1.5.4,3.6,1.7,5.1,2.1h0c.3,0,1,.3,1,.6ZM351.4,144.9c-10,1.3-19.7,2.3-29.4,3.3-9.7.9-19.5,2-29.2,3.1v.5c19.6-1.3,39.2-2.9,58.9-5.4-.2-.7-.3-1.2-.4-1.5h.1ZM206.4,159.3c13.3-.5,26.4-1.6,39.6-3.3-13.3.2-26.4,1.7-39.6,3.3ZM279.6,134c0,.2-.2.3-.3.5.5.4,1,1.1,1.5,1.2,2.2.7,4.5,1.1,6.7,1.7,1.8.5,3.5,1.4,5.2,2.1,1.9.7,3.7,1.5,5.6,2.1.9.3,1.9.4,2.8.6v-.4c-7.2-2.6-14.5-5.3-21.7-7.9h.2,0ZM268.9,131.3c3.5,1.1,6.7,2.2,10.3,3.4-1.6-1.7-9-4.2-10.3-3.4ZM199.6,161.1c.2,0,.4,0,.6-.2-.5-3.4-.4-6.9-1.1-10.3-.2.3-.3.6-.3.9,0,2.7.2,5.4.3,8.1,0,.5.3.9.5,1.4h0ZM258.4,126.9v.3c1.3.6,2.7,1.3,4.1,1.8,3.6,1.2,3.6,1.1,4.3.6-2.8-.9-5.5-1.8-8.3-2.7h-.1Z"/>
    <path class="cls-2" d="M351.4,144.9c0,.3.2.7.4,1.5-19.7,2.5-39.3,4.1-58.9,5.4v-.5c9.7-1,19.5-2.1,29.2-3.1,9.7-.9,19.5-1.9,29.4-3.3h-.1Z"/>
    <path class="cls-1" d="M108.8,167.1s-.3,0-.4-.4l21.8-2.4c1.1-.2,26.4-1.3,26-.7-5.5.7-29.8,3.3-31.2,3.3h-16.2v.2Z"/>
    <path class="cls-4" d="M354.7,164.7c.3-.2.3-.7,1.1-.4,4.6,1.6,9.2,3,13.8,4.5,1.5.5,7.2,2.3,8.7,2.7.1,0,4.3,1.5,6.2,2.2.8.3,1.5.9,2.5.6,0,.4.1.8.2,1.1h0c-.7-.1-1.5-.2-2.2-.4-2.2-.7-4.4-1.4-6.6-2.2-2.5-.8-5.1-1.7-7.6-2.5-1.5-.5-3-1.3-4.5-1.5-1.8-.2-3.4-.8-5.1-1.3-1.3-.4-2.4-1-3.7-1.5-.7-.2-1.5-.2-2.2-.5-.3,0-.4-.6-.6-1h0v.2h0Z"/>
    <path class="cls-2" d="M206.4,159.3c13.1-1.7,26.3-3.1,39.6-3.3-13.1,1.7-26.3,2.9-39.6,3.3Z"/>
    <path class="cls-4" d="M279.6,134c7.2,2.6,14.5,5.3,21.7,7.9v.4c-.9-.2-1.9-.3-2.8-.6-1.9-.6-3.8-1.4-5.6-2.1-1.7-.7-3.4-1.5-5.2-2.1-2.2-.7-4.5-1.1-6.7-1.7-.6-.2-1-.8-1.5-1.2,0-.2.2-.3.3-.5h-.2,0Z"/>
    <path class="cls-4" d="M268.9,131.3c1.2-.8,8.7,1.7,10.3,3.4-3.6-1.2-6.8-2.2-10.3-3.4Z"/>
    <path class="cls-4" d="M199.6,161.1c-.2-.5-.5-.9-.5-1.4-.2-2.7-.2-5.4-.3-8.1,0-.3,0-.6.3-.9.7,3.4.6,6.9,1.1,10.3-.2,0-.4,0-.6.2h0Z"/>
    <path class="cls-4" d="M58.3,66.3c1-.2,5.4,1.3,6,2.1v.7c-1.3-1.2-5.8-2.8-6.7-2.4,0-.2.6-.4.6-.4h0Z"/>
    <path class="cls-4" d="M258.4,126.9c2.7.9,5.5,1.8,8.3,2.7-.7.5-.7.6-4.3-.6-1.4-.4-2.7-1.2-4.1-1.8v-.3h.1Z"/>
    <path class="cls-4" d="M391,176.4c.8-.4,3.4.5,4,.6.2,0,.3.3.5.5-.2.2-.4.5-.5.5-1.3-.5-2.6-1.1-4-1.6h0Z"/>
    <path class="cls-5" d="M352.9,145.8l14.3-2.1s5.9-.8,6.5-1,.8-.6.3-.6-2.2.3-3.3.4-18.1,2.2-18.1,2.2v1h.3Z"/>
  </g>
</svg>