<svg width="130" height="67" viewBox="0 0 130 67" fill="none" xmlns="http://www.w3.org/2000/svg">
<path d="M14.6919 44.7849C13.0696 46.5387 17.1756 65.0501 19.6919 64.6471" stroke="#DBB818" stroke-width="3" stroke-linecap="round"/>
<path d="M15.6918 48.3088C8.07403 48.3088 18.9915 42.2036 22.377 42.489C32.8461 43.3716 19.135 54.2599 14.6918 55.0363" stroke="#DBB818" stroke-width="3" stroke-linecap="round"/>
<path d="M27.0251 52.1531C27.4224 54.0621 29.4288 56.2142 30.0992 58.2043C30.3146 58.8437 32.9718 66.1439 32.1548 62.6537C31.0036 57.7366 32.2511 43.1506 40.6918 49.9106" stroke="#DBB818" stroke-width="3" stroke-linecap="round"/>
<path d="M47.3584 48.6292C44.2484 50.3875 43.0108 61.0572 48.2473 59.1298C56.3224 56.1576 54.1545 47.0575 45.6918 48.3088" stroke="#DBB818" stroke-width="3" stroke-linecap="round"/>
<path d="M55.0251 48.3088C56.0625 49.6959 63.0942 59.4647 63.84 57.3144C64.6355 55.0206 63.7873 45.1814 66.0251 44.4645" stroke="#DBB818" stroke-width="3" stroke-linecap="round"/>
<path d="M75.3585 47.0274C75.6913 50.8657 78.749 54.1755 77.6918 58.2399" stroke="#DBB818" stroke-width="3" stroke-linecap="round"/>
<path d="M70.6918 40.9406C70.8088 39.592 71.9297 39.8878 72.6918 40.6202" stroke="#DBB818" stroke-width="3" stroke-linecap="round"/>
<path d="M81.3585 44.7849C82.1033 48.3637 83.2462 52.0008 84.4325 55.4635C85.3183 58.0489 85.4269 50.605 85.5066 49.875C85.6994 48.1097 86.9831 39.4981 90.9511 42.7915C94.3398 45.6043 94.3398 52.2585 94.6918 56.3178" stroke="#DBB818" stroke-width="3" stroke-linecap="round"/>
<path d="M105.358 46.707C103.022 42.2148 99.3551 48.4189 99.1918 51.1386C98.6716 59.8054 108.183 58.0147 113.025 55.0363" stroke="#DBB818" stroke-width="3" stroke-linecap="round"/>
<path d="M115.025 46.0663C112.734 48.5435 131.606 45.3157 123.84 43.1831C119.167 41.9 119.291 40.9984 115.747 45.4256C114.333 47.1924 115.753 50.509 116.914 52.0641C119.372 55.3572 124.225 54.2484 127.692 53.7549" stroke="#DBB818" stroke-width="3" stroke-linecap="round"/>
<path d="M17.0488 8.40743C17.2605 10.0352 19.0405 8.28871 18.8266 7.0548C18.3192 4.12887 14.5484 1.97133 11.7154 2.00029C0.199584 2.11802 -0.301723 20.7802 6.38212 26.4009C10.3039 29.6989 22.0675 24.562 23.0118 19.7979C23.7902 15.8706 16.9581 15.9795 14.7154 17.0571" stroke="#DBB818" stroke-width="3" stroke-linecap="round"/>
<path d="M25.3821 15.4553C27.037 17.7526 26.7717 22.8229 29.7155 24.2117C34.1284 26.2938 36.3155 19.1454 36.3821 16.4876C36.4259 14.7417 38.6636 10.0311 38.7155 14.0671C38.7498 16.7379 38.8499 22.2655 42.0488 23.1439" stroke="#DBB818" stroke-width="3" stroke-linecap="round"/>
<path d="M55.7154 15.135C56.0074 12.3295 54.4105 7.94246 50.6414 9.58209C46.0207 11.5921 47.4651 22.2496 50.9006 20.3141C53.6489 18.7657 56.4003 9.33317 54.5488 11.8246C53.2829 13.528 56.5205 20.9679 58.3821 21.8625" stroke="#DBB818" stroke-width="3" stroke-linecap="round"/>
<path d="M63.3821 12.8924C64.758 15.5372 64.6685 18.4371 65.7155 21.1683C66.6237 23.5376 66.3511 15.2461 67.1229 13.7289C67.8253 12.3481 72.9186 8.38382 73.9747 11.1839C74.8665 13.548 73.2713 19.7269 75.7155 20.9014" stroke="#DBB818" stroke-width="3" stroke-linecap="round"/>
<path d="M90.0489 12.5721C88.0644 10.665 85.861 7.00582 84.0489 11.3262C81.7925 16.7057 84.5198 23.3508 87.9748 15.4553C89.6305 11.6716 87.2822 6.91803 88.7896 13.0348C90.0763 18.2562 94.6705 33.1414 85.0489 32.1139" stroke="#DBB818" stroke-width="3" stroke-linecap="round"/>
<path d="M95.7155 8.72781C96.0886 11.9549 114.583 17.9522 113.382 20.2607" stroke="#DBB818" stroke-width="3" stroke-linecap="round"/>
<path d="M107.715 7.76673C110.336 7.76673 105.46 12.0691 104.79 12.9992C102.866 15.6663 100.673 19.5174 102.049 22.8235" stroke="#DBB818" stroke-width="3" stroke-linecap="round"/>
<path d="M114.715 7.44636C111.668 7.08026 117.771 23.9979 120.049 19.6199" stroke="#DBB818" stroke-width="3" stroke-linecap="round"/>
<path d="M113.715 3.92244C113.246 3.47127 113.129 3.46966 113.715 3.28171" stroke="#DBB818" stroke-width="3" stroke-linecap="round"/>
</svg>
