<svg width="128" height="59" viewBox="0 0 128 59" fill="none" xmlns="http://www.w3.org/2000/svg">
<path d="M2.71323 11.6107C2.9096 14.8193 2.21631 18.1583 2.45398 21.4706C2.75275 25.6343 2.79598 26.5437 2.04654 21.8621" stroke="#DBB818" stroke-width="3" stroke-linecap="round"/>
<path d="M3.71323 11.9311C6.65998 11.9311 9.66748 20.9869 12.3799 23.0724C15.787 25.6919 15.3799 10.1597 15.3799 7.76643" stroke="#DBB818" stroke-width="3" stroke-linecap="round"/>
<path d="M21.7132 11.9311C15.1132 16.1596 21.6268 27.0195 28.3984 23.9979C35.9637 20.6221 31.7013 10.6496 24.3799 10.6496" stroke="#DBB818" stroke-width="3" stroke-linecap="round"/>
<path d="M35.3799 13.8532L36.3799 14.8143" stroke="#DBB818" stroke-width="3" stroke-linecap="round"/>
<path d="M34.7132 12.2514C32.9579 12.4389 36.734 23.5634 36.3799 22.1113C34.8595 15.8769 39.1861 10.3828 45.7132 12.8921" stroke="#DBB818" stroke-width="3" stroke-linecap="round"/>
<path d="M50.7132 6.80535C50.7132 12.8693 53.7517 18.5908 56.0465 24.1047" stroke="#DBB818" stroke-width="3" stroke-linecap="round"/>
<path d="M46.7132 17.3771C41.9033 17.3771 56.2366 15.7753 61.0465 15.7753" stroke="#DBB818" stroke-width="3" stroke-linecap="round"/>
<path d="M61.7132 1.99998C61.7132 6.85717 63.1061 11.5501 64.5465 16.1847C64.8895 17.2883 66.4157 23.5478 66.7873 19.8332C66.9139 18.568 68.0455 10.2401 70.454 10.7742C73.9652 11.553 74.9766 17.8678 75.3799 20.5807" stroke="#DBB818" stroke-width="3" stroke-linecap="round"/>
<path d="M80.3799 18.6586C85.2804 23.3683 90.016 12.1968 86.5281 9.01223C83.8858 6.59984 81.7215 15.2929 81.7873 16.416C82.1688 22.9241 86.7996 23.2227 92.0465 21.5418" stroke="#DBB818" stroke-width="3" stroke-linecap="round"/>
<path d="M97.0465 9.68853C97.1442 12.411 98.1722 14.769 99.3799 17.1991C99.699 17.8413 103.274 23.3335 102.158 20.8654C100.635 17.5007 99.2972 6.69103 106.713 8.72745" stroke="#DBB818" stroke-width="3" stroke-linecap="round"/>
<path d="M111.713 8.08676C111.869 10.9296 114.034 14.1931 115.158 16.7542C116.246 19.2357 115.928 21.2894 116.065 18.0712C116.136 16.4113 116.524 8.74862 119.528 9.51056C123.664 10.5595 125.101 18.2048 126.38 21.5418" stroke="#DBB818" stroke-width="3" stroke-linecap="round"/>
<path d="M7.05181 40.7275C7.05181 38.7834 6.94612 39.8837 7.68146 41.4038C10.0331 46.2652 11.7959 51.8502 14.8667 56.336C17.3493 59.9628 18.1366 51.1124 18.4037 49.8399C19.1316 46.3713 19.6257 38.9407 22.7185 36.5628" stroke="#DBB818" stroke-width="3" stroke-linecap="round"/>
<path d="M53.0518 34C53.0518 40.2194 55.3492 46.8333 55.7185 53.2215" stroke="#DBB818" stroke-width="3" stroke-linecap="round"/>
<path d="M64.3852 40.4071C64.3852 42.9146 65.631 45.7129 66.5333 48.0067C68.7673 53.686 67.6222 48.6621 67.9592 45.6752C68.1996 43.544 70.1883 35.9858 73.5333 39.6952C76.7353 43.246 78.1147 48.7182 79.0518 53.2214" stroke="#DBB818" stroke-width="3" stroke-linecap="round"/>
<path d="M92.0518 41.6885C89.7748 41.4697 88.8401 35.2078 85.774 38.9299C84.0354 41.0405 80.5992 54.4534 86.7555 51.495C90.6838 49.6073 94.795 36.4972 93.0518 40.3715C91.5398 43.7318 93.2936 49.0651 94.7185 52.2603" stroke="#DBB818" stroke-width="3" stroke-linecap="round"/>
<path d="M100.385 41.0478C100.385 43.0499 101.795 50.576 101.737 49.7687C101.465 45.9758 105.824 31.3278 108.496 41.1902C109.214 43.8405 109.57 46.9104 109.57 49.6619C109.57 52.4979 109.832 43.9309 110.718 41.2258C112.163 36.8168 117.411 38.3818 120.015 41.4038C122.32 44.0784 122.385 47.696 122.385 50.9789" stroke="#DBB818" stroke-width="3" stroke-linecap="round"/>
<path d="M28.0518 48.4161C29.4963 51.0464 31.5696 53.3852 33.3852 55.7843" stroke="#DBB818" stroke-width="3" stroke-linecap="round"/>
<path d="M36.3851 47.4549C39.4379 56.5237 45.628 39.4591 38.7554 41.9021C29.388 45.2318 39.1192 58.6494 48.7184 51.9399" stroke="#DBB818" stroke-width="3" stroke-linecap="round"/>
<path d="M50.3851 45.8531C48.3395 45.8531 53.9516 45.6634 54.1258 45.6395C58.4534 45.0453 62.4196 43.0177 66.7184 42.3291" stroke="#DBB818" stroke-width="3" stroke-linecap="round"/>
<path d="M26.7185 36.2424C26.8951 36.9212 28.624 36.311 29.0518 36.2424" stroke="#DBB818" stroke-width="3" stroke-linecap="round"/>
</svg>
