<?xml version="1.0" encoding="UTF-8"?>
<svg id="Layer_2" data-name="Layer 2" xmlns="http://www.w3.org/2000/svg" viewBox="0 0 715.9 129.2">
  <defs>
    <style>
      .cls-1 {
        fill: #6d6e71;
      }

      .cls-1, .cls-2, .cls-3, .cls-4, .cls-5 {
        stroke-width: 0px;
      }

      .cls-2 {
        fill: #808285;
      }

      .cls-3 {
        fill: #939598;
      }

      .cls-4 {
        fill: #bcbec0;
      }

      .cls-5 {
        fill: #d1d3d4;
      }
    </style>
  </defs>
  <g id="Layer_3" data-name="Layer 3">
    <g>
      <path class="cls-1" d="M676.7,80.5c-.4.3-.4.8-.2,1.2,1.9,3.5-.3,9.1-1.5,12.3-1,2.9-1.8,2-3.1,4.4s-2.1,9.8-1.3,8.3c1.3-2.4,2-6.7,2.6-7.5,2.1-2.4,2.9-1.8,4.4-4.1s1.3-.3,1.8.5c1.1,1.6-1.2,5.4-1.2,8.8,0,3.6.8,10,2.3,12.7.5,0,1.2,4.5,1.7,4.4.6-2.6-2.6-9.4-2.1-12.1s.4-3.8.3-6.9c0-2.3,2.8-5.9,2.2-8.1s-3-3.4-3-5.5.2-.1.6-.2.5,0,.6,0c.3-.1,2.1.6,2.3.8,2.1,1.8,6.3,1.5,8,2s-1.3-1.9-2.4-1.5c-2.5.8-6.2-1.5-6.6-1.9-.8-.8-4.2.2-3-1.5,1-1.5,0-4.4,0-5.8s-.5-1-1.1-.9-.5,0-.7.1-.5.2-.7.5,0,0-.1.1Z"/>
      <g>
        <path class="cls-1" d="M671.3,43.6s7.5,20.8,7.2,23.5c-.3,2.7,0-14,1.2-14.4,1.2-.4,4.9-8.7,4.9-8.7l4.4-2.2s-3.7,3.4-4.9,6.5-3.7,9.4-3.9,11.6c-.2,2.2,1.2,13.7,1.4,14.6s-6.7,1.4-6.7.2.1-15.3-.7-17.2-2.4-10.8-3.7-11.8.9-2.2.9-2.2Z"/>
        <path class="cls-1" d="M670.6,40.2s-2.2-3.8-3.9-2.6-5.9,4.1-5.8,5.7-5,12.5-4.4,19c.6,6.4,3.7-1.7,3.7-1.7,0,0,2.8-2,4.6-3.1,1.9-1.1,13.1-15.9,12.3-17s-6.5-.2-6.5-.2Z"/>
        <path class="cls-1" d="M684.5,44.1s5.3,0,6.7,1.1c1.4,1.1,5.7,7.4,6.3,8.1s3.5,5,4.6,4.8.9-10-.2-11.6c-1.2-1.5-9.7-7.8-11.1-7.8s-6.3,5.4-6.3,5.4Z"/>
      </g>
      <g>
        <path class="cls-1" d="M400.9,26.1s-10.6,30.5-10.1,34.5c.5,4,0-20.5-1.6-21.1-1.6-.6-6.8-12.8-6.8-12.8l-6.2-3.2s5.2,5,6.8,9.6c1.6,4.6,5.2,13.8,5.5,16.9.3,3.2-1.6,20.1-2,21.4s9.4,2.1,9.4.3-.2-22.4,1-25.3,3.4-15.8,5.2-17.3-1.3-3.2-1.3-3.2Z"/>
        <path class="cls-1" d="M401.9,21s3.1-5.6,5.5-3.8,8.3,6.1,8.1,8.3c-.2,2.2,7,18.4,6.2,27.8-.8,9.4-5.2-2.6-5.2-2.6,0,0-3.9-2.9-6.5-4.5s-18.4-23.3-17.3-24.9,9.1-.3,9.1-.3Z"/>
        <path class="cls-1" d="M382.3,26.8s-7.5,0-9.4,1.6c-2,1.6-8,10.9-8.8,11.8-.8,1-4.9,7.4-6.5,7s-1.3-14.7.3-16.9c1.6-2.2,13.7-11.5,15.6-11.5s8.8,8,8.8,8Z"/>
      </g>
      <g>
        <path class="cls-1" d="M168.1,41.2s-7.1,23.2-6.7,26.2c.3,3,0-15.5-1.1-16s-4.6-9.7-4.6-9.7l-4.1-2.4s3.5,3.8,4.6,7.3c1.1,3.5,3.5,10.4,3.7,12.9s-1.1,15.3-1.3,16.3,6.3,1.6,6.3.2-.1-17,.7-19.2,2.3-12,3.5-13.1-.9-2.4-.9-2.4Z"/>
        <path class="cls-1" d="M168.8,37.3s2.1-4.2,3.7-2.9c1.6,1.3,5.5,4.6,5.4,6.3s4.7,13.9,4.1,21.1c-.5,7.2-3.5-1.9-3.5-1.9,0,0-2.6-2.2-4.3-3.4-1.7-1.2-12.3-17.7-11.5-18.9.8-1.2,6.1-.2,6.1-.2Z"/>
        <path class="cls-1" d="M155.8,41.7s-5,0-6.3,1.2-5.3,8.2-5.9,9-3.3,5.6-4.3,5.3c-1.1-.2-.9-11.2.2-12.9,1.1-1.7,9.1-8.7,10.4-8.7s5.9,6.1,5.9,6.1Z"/>
      </g>
      <g>
        <path class="cls-1" d="M314.1,33.3s-1.4.9-1.1-.5.6-2.5,0-2.6-1.2.2-1.6,0-2.1-1.8-2.7-1.6-1.3,1.9-2.7,2-2,0-2.5-.3-1.5.5-1.5.5c0,0-1,1.5-1.7,1.2s-2.1-.6-3.3.9-3,1.4-4.9,3.6-.3,1.6,0,2.1,1.7.8,1.6,1.5-.8,2.2,1.8,2.5c2.6.3,3.3.5,3.6,1.1s-.6,2.7-.2,3.2.8.8,1.6,1.1.2.9.4,1.3.9.3.9.3c0,0,1.5-1.3,2-2.3s2.5-4.3,2.9-4.3,1.7-.8,1.9-.1-.2.3,0,.7,1.6,1.6,3.2.8,2.1-2.6,2.5-2.5,1.1.3,2,0,1.1-.3,1.2,0,.1,1.4.6,1.4,1.1-1.1,1.4-1.2,1.2.3,1.6.6,1.9-.3,1.8-.5.6-1,.8-1,1.2.3,1.7.3,5.2-2.2,5.4-3.6,1.2-3.1.1-4.8-2.5-3.6-4.6-3.5c-2.1.1-3.7-.3-4.3-.3s-2.9.3-3.2,1-1,0-1.3,0-2.5,2.1-2.7,2.3-.9.5-.9.5Z"/>
        <path class="cls-1" d="M326.7,78.9s-2.2,1.8-4.2,1.2c-1.9-.7-7-1.2-7-1.2,0,0,2.1-2.6,2.6-6.8s0-3.5.4-5.7c1.1-5.7,1.4-9.8,1.9-12s-8.6-15.4-7.1-13.4-3.1,1.3-.4-.9,7.6,12.4,7.8,10.6c1.1-11.6,4-37.6,7.5-39.1,5.7-2.4,9.9-5.4,9.9-5.4l4,4.8-13.1,5.8s-2.6,3.1-3.6,11.1c-3.2,25.3-2,28.2-1.8,28.6.7,1.5,4.6-25.3,5.4-26.4s4.4-4.8,4.4-4.8l4.7,3.5s-6.6.9-7,2.2-3.2,10.2-3.7,12.1,3.6-4,3.6-4c0,0,.7.2.7.8s-2.9,3.9-2.7,4.6-2.2,4.3-2.4,7.3,0,5.3,0,5.3c0,0,0,.4-1.3,5.4s1.3,16.4,1.3,16.4Z"/>
        <path class="cls-3" d="M326.8,28.8s1.9.5,1.1-1.4c-.9-1.9-.5-2.3-.1-2.2s.6-.8.3-.9-.6-1,.2-1.3c.8-.4.5-.6.6-1s2.7-4.1,3.6-4,6-3.5,9.5-1.6c3.5,1.9,5.9,5.9,6.5,5.7s4.1.9,4.7,2.6,5.7,5.5,4.9,6.5-1.3.9-.8,1.7,2.2,1.4,1.4,2.1-.6,1.3-.3,1.5,1.4.8,1.2,1.2.5,1.5.8,1.7,4.2,4.2,4,4.5.3,2-1.1,2.9c-1.5,1-.6-.4-1.7-.4s-6.6-1.4-6.7-2.1,0-1.6-.9-1.5-2.3,0-2.9-.3,0-1-.9-1.4-2.2-.9-2.7-.9-.7.6-1.2.6-1.2-.4-1.8-.8-1.3-.2-1.5.2-.6.6-1.2.6-2.1-1.1-2.6-.8-1.7.7-2.2.5-.8.3-2,.8-1.5.2-2.1-.1-2,.2-2.2.6-.8.4-1.5-.1-.6-.4-1.9-.4-8.4-3.3-8.2-5.9-.1-7.5,3.2-7.7c3.3-.3,4.4,1.1,4.4,1.1Z"/>
        <path id="Shadow" class="cls-1" d="M326.8,28.8s1.9.5,1.1-1.4c-.9-1.9-.5-2.3-.1-2.2s.6-.8.3-.9-.6-1,.2-1.3c.8-.4.5-.6.6-1s2.7-4.1,3.6-4,6-3.5,9.5-1.6c3.5,1.9,5.9,5.9,6.5,5.7s4.1.9,4.7,2.6,5.7,5.5,4.9,6.5-1.3.9-.8,1.7,2.2,1.4,1.4,2.1-.6,1.3-.3,1.5,1.4.8,1.2,1.2-2.1.9-3.9.2-4.6.6-4.4.7c.3.2-3.8,1-4.7-1.2s-.7-1.5-6.5-2.2c-5.6-.7-17.6-1.7-17.5-3,.2-2.7-3.5-4.3-.2-4.6,3.3-.3,4.4,1.1,4.4,1.1Z"/>
        <g>
          <path class="cls-4" d="M330.4,27.4s0,0-.1,0c0,0,0,0,0,0,2.8,1.1,5.7,2.1,8.5,2.9,1.1.3,2.2.6,3.3.8.4,0,.5,0,1.2,0,.9.1,1.7.4,2.4.8,3.9,1.8,7.7,3.9,11,6.5.7.7,1.9,2.2,2.6,2.9,0,0,3.1,3.5,3.1,3.5.1.2.1.4,0,.6-.2.1-.4.1-.5,0-2-1.9-4-3.8-5.8-5.9-3.3-2.4-7-4.8-10.7-6.6-.9-.4-1.6-.8-2.5-.7-1.5,0-2.9-.3-4.3-.5-2.9-.6-5.9-1.3-8.7-2.1,0,0-.3,0-.3,0,0,0,0,0-.2,0-1.7-.6-.4-3.1,1-2h0Z"/>
          <path class="cls-4" d="M349.1,34.8c-.9.5-.7,2.3-.3,3.1.1.3,0,.6-.2.7-.8.3-.8-.8-.9-1.4-.2-1.1.2-2.1,0-3.3,0-.6.3-1.1.9-1.1,1.2-.1,1.6,1.6.5,2h0Z"/>
          <path class="cls-4" d="M332.6,30.2c-1.8-.1-8.8.2-8,3,.1.3.4,1.1.5,1.4.4,1.3.9,2.6,1.2,3.9,0,.4-.1.7-.5.8-.4,0-.8-.1-.8-.5-.3-1.3-.7-2.6-1.1-3.9,0,0-.3-1-.3-1-1.5-3.3,2.4-4.5,4.8-4.9,1.4-.3,2.7-.4,4.1-.6.5,0,.9.3.9.7,0,.5-.4,1-.9.9h0Z"/>
          <path class="cls-4" d="M349.6,33.4c1.5,0,2.9-.1,4.3.3.5.1,1,.3,1.2.8,0,0,0,0,0,0-1,0-1.8-.3-2.7-.3-.9,0-1.8,0-2.7,0-.7,0-.7-.9,0-1h0Z"/>
          <path class="cls-4" d="M332.1,29.3c.3-2.2,1.3-5.3,4-5.2,0,0,2,0,2,0,2.7.2,5.4,0,8,.9.2,0,0,.4-.1.3-2.5-.8-5.3-.4-7.9-.3,0,0-2,.2-2,.2-1.8.2-1.9,2.5-1.7,4,.2,1.8-2.5,1.9-2.4,0h0Z"/>
          <path class="cls-4" d="M338.5,30.7c1.9-4.7,7.9-2.9,11.6-2.1.4,0,.6.4.5.8,0,.4-.5.6-.9.5-.9-.4-1.8-.7-2.8-.9-2.1-.5-5.5-.8-6.5,1.6,0,.1,0,.4,0,.4.6.5.7,1.4.2,2-.9,1.2-2.8.2-2.4-1.2,0,0,.3-1,.3-1h0Z"/>
          <path class="cls-4" d="M338.8,31.8c-.9-.2-2.4-.5-3.1.2-.1.2-.2.4,0,.9.4,1.6,1.2,3.2,2.1,4.6.1.2,0,.5,0,.6-.2.1-.4,0-.6,0-.4-.8-.8-1.6-1.2-2.4-.4-.8-.7-1.6-1-2.4-.1-.4-.3-1,0-1.6,1-1.4,2.7-1.2,4.2-1.3,1.2,0,1,1.9-.2,1.6h0Z"/>
        </g>
        <path class="cls-3" d="M340.2,7.1s1.9,1.4,1.6-.8-.9-3.7.1-4,1.7.3,2.2,0,3-2.7,3.8-2.4,1.8,2.8,3.8,3.1,2.7.1,3.5-.5,2.1.7,2.1.7c0,0,1.4,2.3,2.4,1.8,1-.5,2.9-.9,4.7,1.4,1.8,2.3,4.2,2.2,6.8,5.5s.4,2.4,0,3.1-2.4,1.2-2.2,2.2,1.1,3.3-2.5,3.8-4.6.8-5,1.7.8,4,.2,4.9-1.2,1.2-2.2,1.6-.2,1.4-.6,1.9-1.2.5-1.2.5c0,0-2.1-2-2.8-3.5s-3.6-6.4-4-6.4-2.4-1.2-2.6-.2.2.5,0,1.1-2.2,2.5-4.5,1.3c-2.3-1.2-3-3.8-3.5-3.7s-1.6.5-2.8.1c-1.2-.4-1.5-.5-1.7,0s-.2,2.1-.8,2.1-1.5-1.7-2-1.7-1.7.5-2.2.9-2.6-.4-2.6-.8-.8-1.5-1.2-1.5-1.7.5-2.4.5-7.2-3.3-7.6-5.5-1.7-4.7-.2-7.2c1.5-2.4,3.5-5.5,6.4-5.3,2.9.2,5.1-.4,6-.4s4,.5,4.5,1.4,1.4,0,1.9.1,3.4,3.2,3.8,3.4,1.2.8,1.2.8Z"/>
        <path class="cls-1" d="M336.8,5.8s-5-2.4-6.1-1.5,1.4,1.3,2.2,2.8.2,1.2,2.1,1.8,4.7,1.8,5.7,3.3,5.4,2.4,5.9,3.7,2.4,3.4,3.4,3.5,3.2,2.6,3.4,3,2.7,2.2,2.7,2.4-3-6.3-3-6.3l-9-8.2s-2.8-2-4.4-2.2c-1.6-.2-2.9-2.3-2.9-2.3Z"/>
        <path class="cls-4" d="M342.4,7.9c4.1,3.7,8.2,7.3,11.6,11.6,1.5,1.6,2,4,2.7,6.1.2.5.6,1.8.8,2.3,0,0,.1.4.1.4v.2c0,0,0,0,0,0,0,.3,0,.9-.5.8-.4,0-.5-.7-.7-1-.8-2.2-1.5-4.7-2.5-6.8-2.2-3-4.8-5.8-7.7-8.2-1.7-1.4-3.3-2.8-5-4.2-.7-.6.2-1.8.9-1.1h0Z"/>
        <path class="cls-4" d="M355.7,7.3c-2.9.5-5.8,1.1-8.5,2.4-.8.4-1.7,1.1-1.7,1.7,0,.6-1.1.6-1,0,.6-3.3,8.2-4.4,11-5,.7-.1.8.9.1,1h0Z"/>
        <path class="cls-4" d="M365.8,15.9c-5.4-2.5-13.3-6.6-19.1-3.4-.5.3-1.1-.4-.6-.8,2.9-2.5,7.2-2.1,10.6-1.2,3.4,1,6.7,2.5,9.6,4.5.5.3,0,1.2-.5.9h0Z"/>
        <path class="cls-4" d="M351.5,16.6c2.9,0,5.9.3,8.6,1.3.9.4,1.9.8,2.6,1.8.2.2.1.5,0,.7-.2.2-.5.1-.7-.1-2.8-2.2-7.1-2-10.5-2.7-.6,0-.6-1,0-1h0Z"/>
        <path class="cls-4" d="M342.6,10.2c-2.7-1.5-9.1-5.3-12-3.5-2.2,1.9-4.5,4.2-5.8,6.8-.2.6-1.2.3-.9-.4,1.4-2.7,3.4-4.8,5.6-6.7.8-.8,1.8-1.2,2.9-1.2,4,.3,7.4,2.3,10.8,4.1.6.3,0,1.2-.5.9h0Z"/>
        <path class="cls-4" d="M345.1,12c-3-.9-7.5-3.6-9.8-.5,0,0-.7.8-.7.8-.9,1.1-1.9,2.1-2.9,3.1-.4.4-1.1-.2-.8-.6,1-1.4,2.2-2.8,3.3-4.2.6-1,1.8-1.8,3-2,1.6-.2,3.1,0,4.5.5,1.4.5,2.7,1.2,3.9,2.1.2.2.3.5,0,.7-.1.2-.4.2-.6.2h0Z"/>
        <path class="cls-4" d="M347.2,13.9c-.9,0-1.9-.2-2.8-.3-1-.1-2-.5-2.9-.2-.2.2-.3.5-.4.8-.6,1.4-1.3,3-2.8,3.6-.3.1-.6,0-.7-.3,0-.3,0-.6.3-.6,1.6-.2,2.3-2.4,3-3.7.9-.9,2.5-.6,3.6-.7,1,0,1.9.2,2.9.5.3,0,.4.4.3.6,0,.2-.3.4-.5.3h0Z"/>
        <path class="cls-4" d="M349.7,16.6c-2,0-3.9,1.5-3.1,3.6.2.7-.9.9-1,.2-.6-2.7,1.6-4.2,4-4.8.7-.2.9,1,.1,1h0Z"/>
      </g>
      <path class="cls-1" d="M208.6,78.8c-.4.3-.4.8-.2,1.2,1.9,3.5-.3,9.1-1.5,12.3s-1.8,2-3.1,4.4-2.1,9.8-1.3,8.3c1.3-2.4,2-6.7,2.6-7.5,2.1-2.4,2.9-1.8,4.4-4.1.5-.8,1.3-.3,1.8.5,1.1,1.6-1.2,5.4-1.2,8.8s.8,10,2.3,12.7c.5,0,1.2,4.5,1.7,4.4.6-2.6-2.6-9.4-2.1-12.1s.4-3.8.3-6.9,2.8-5.9,2.2-8.1-3-3.4-3-5.5.2-.1.6-.2.5,0,.6,0c.3-.1,2.1.6,2.3.8,2.1,1.8,6.3,1.5,8,2s-1.3-1.9-2.4-1.5c-2.5.8-6.2-1.5-6.6-1.9-.8-.8-4.2.2-3-1.5,1-1.5,0-4.4,0-5.8s-.5-1-1.1-.9-.5,0-.7.1-.5.2-.7.5,0,0-.1.1Z"/>
      <path class="cls-1" d="M440.2,78c-.4.3-.4.8-.2,1.2,1.9,3.5-.3,9.1-1.5,12.3s-1.8,2-3.1,4.4-2.1,9.8-1.3,8.3c1.3-2.4,2-6.7,2.6-7.5,2.1-2.4,2.9-1.8,4.4-4.1s1.3-.3,1.8.5c1.1,1.6-1.2,5.4-1.2,8.8s.8,10,2.3,12.7c.5,0,1.2,4.5,1.7,4.4.6-2.6-2.6-9.4-2.1-12.1s.4-3.8.3-6.9,2.8-5.9,2.2-8.1-3-3.4-3-5.5.2-.1.6-.2.5,0,.6,0c.3-.1,2.1.6,2.3.8,2.1,1.8,6.3,1.5,8,2s-1.3-1.9-2.4-1.5c-2.5.8-6.2-1.5-6.6-1.9-.8-.8-4.2.2-3-1.5s0-4.4,0-5.8-.5-1-1.1-.9-.5,0-.7.1-.5.2-.7.5,0,0-.1.1Z"/>
      <path class="cls-1" d="M389.8,78.5c5.6-3.4,2.8.5,2.5,4.7s5.6,12.7,5.8,14.7c.6,4.7,1.9,4.5,4.4,8.5s-2,8.3-.4,11.2c-3.9,0-2.2-8.8-3.9-11s-3.1-9.4-4.7-9.7c-2.9,3.5,3.5,10.1,1.6,14.2,0-1.9-1.9-3.8-2.9-5-1.3,2.5,0,7.6-2.1,10.4-3.4-3.2,4.2-15.2-2-15.5-.1,1.9-2,2.7-2.2,4.5s-1.8,3.2-2.6,5.1c-1.7,3.9.6,6.9,0,10.7-.2.1-.5.2-.7.3-.9-3.3-3.3-7.1-2.5-10.7s3.9-11.8,5-15.4,3.6-.8,4-4.3-.9-9.8.7-12.8c.8,0,.6-.9,0,0Z"/>
      <path class="cls-3" d="M288.3,69.7c0,2.7.3,4.4.9,7.1s-.3,1.9.1,3.9c.9,4.1-.6,6.5.3,10.8,5.3.2,7.1.8,11.4,2.5s8.8-2.1,13.4-1.2c-3.9,0-9.4,3.5-13,2.5-4.5-1.2-5.9-2.2-11.3-2.1-.2.6.4,4.9.7,5.4,3.4-.5,5.4-.5,8.4.2s7.7.5,11.3.4c1.6,0,3.2,0,4.7-.3,2.8-.6,2.1-.9,4.1-1.8,2.1-1,2-1,4.3-1.8-3.6,1.2-2.6,2.7-5.7,3.9s-5.4,1.1-8.3,1.4c-6.3.6-12.3,0-18.4-.3-.2,1-.9,3.1-.6,4.1,2.5,0,.3,11.7,4.4,15.7-1.8,0-2.8-4.1-4.4-6.9-3.5,4.6,2.1,10.8,1.5,16.1-6.8-4.7-1.5-15.3-4.5-21.6-1.5,3.4-2,9.9-5,12.7-1-3.9,4.3-6.6,2.4-10.7-1.6,2.6-5.5,2.4-7.3,4.8-.9-2.4,5.2-4.3,6.2-6.7,4.3.3,4.7-7.5,4.9-10.2s.5-.3-.8-2.2-4.1-.8-7.3,1.1-5.6,4.2-8.5,5.4c2.2-2,6-5.4,9-6.8,4.5-2.1,6.9-1.5,6.7-3.5-.7-7.5.6-7.2-1.6-8.1-1.6.5-4.1-1.2-5.1-.2.8-1.7,4.4-.6,5-1.6s.7-7.2.8-8.6c.2-2.6-.3-1.1,1.6-3.4Z"/>
      <path class="cls-1" d="M161.6,80.6c-.6.3-.6.8-.3,1.2,2.8,3.5-.5,9.1-2.2,12.3s-2.8,2-4.7,4.4c-1.1,1.4-3.1,9.8-1.9,8.3,2-2.4,2.9-6.7,4-7.5,3.1-2.4,4.4-1.8,6.6-4.1.8-.8,1.9-.3,2.7.5,1.7,1.6-1.7,5.4-1.7,8.8s1.2,10,3.5,12.7c.7,0,1.8,4.5,2.5,4.4,1-2.6-3.9-9.4-3.1-12.1s.6-3.8.4-6.9,4.2-5.9,3.3-8.1c-.9-2-4.5-3.4-4.5-5.5s.3-.1.9-.2.8,0,1,0c.5-.1,3.1.6,3.5.8,3.2,1.8,9.5,1.5,12,2s-1.9-1.9-3.7-1.5c-3.7.8-9.2-1.5-9.8-1.9-1.1-.8-6.3.2-4.6-1.5s0-4.4,0-5.8-.8-1-1.7-.9-.8,0-1.1.1-.8.2-1,.5,0,0-.2.1Z"/>
      <path class="cls-4" d="M473.8,79.3c.5.3.5.9.2,1.4-2.3,4.2.4,10.9,1.8,14.7,1.2,3.5,2.2,2.4,3.7,5.2s2.5,11.7,1.5,9.9c-1.6-2.8-2.3-8-3.1-9-2.5-2.9-3.5-2.1-5.3-4.9-.6-.9-1.5-.3-2.2.6-1.4,1.9,1.4,6.4,1.4,10.5,0,4.3-1,12-2.8,15.2-.6,0-1.5,5.4-2,5.2-.8-3.1,3.1-11.2,2.5-14.5-.6-3.2-.5-4.5-.3-8.2s-3.4-7.1-2.6-9.7,3.5-4,3.6-6.5-.2-.1-.7-.3-.6,0-.8,0c-.4-.1-2.5.7-2.8,1-2.5,2.2-7.6,1.8-9.6,2.3-1.4.4,1.5-2.3,2.9-1.8,2.9,1,7.4-1.8,7.8-2.3.9-1,5,.3,3.6-1.8s0-5.2,0-6.9.6-1.2,1.4-1.1.6,0,.9.1.7.3.8.6,0,.1.1.1Z"/>
      <path class="cls-4" d="M76.2,76.4c4.9-3.3,2.4.5,2.1,4.6s4.7,12.3,4.9,14.3c.5,4.6,1.6,4.4,3.7,8.3,1.6,2.9-1.8,8-.5,10.9-3.4,0-1.8-8.5-3.3-10.6s-2.6-9.1-4-9.4c-2.6,3.3,2.9,9.8,1.3,13.8,0-1.9-1.6-3.7-2.5-4.9-1.1,2.4,0,7.4-2,10-2.9-3.1,3.8-14.7-1.6-15-.1,1.8-1.8,2.5-2,4.3s-1.6,3.1-2.3,4.9c-1.5,3.8.5,6.7-.1,10.4-.2.1-.4.2-.7.3-.8-3.2-2.8-6.9-2-10.3s3.5-11.4,4.5-14.9,3.1-.7,3.5-4.1c.4-3.3-.7-9.5.7-12.4.7,0,.5-.9,0,0Z"/>
      <path class="cls-1" d="M594.9,78.3c4.3-3,2.2.5,1.9,4.1s4.2,11.1,4.3,12.9c.4,4.1,1.4,3.9,3.3,7.4,1.4,2.6-1.6,7.2-.4,9.8-3,0-1.6-7.7-2.9-9.6s-2.3-8.2-3.5-8.5c-2.3,3,2.6,8.9,1.1,12.4,0-1.7-1.4-3.3-2.2-4.4-1,2.1,0,6.7-1.7,9.1-2.6-2.8,3.4-13.2-1.4-13.5-.1,1.6-1.6,2.3-1.8,3.9s-1.4,2.8-2,4.4c-1.3,3.4.4,6-.1,9.3-.2.1-.4.2-.6.2-.7-2.9-2.4-6.2-1.8-9.3s3.1-10.3,4-13.4,2.7-.7,3.1-3.7-.6-8.5.6-11.2c.6,0,.4-.8,0,0Z"/>
      <path class="cls-1" d="M24,78.3c-.4.3-.4.8-.2,1.2,1.9,3.5-.3,9.1-1.5,12.3-1,2.9-1.8,2-3.1,4.4-.7,1.4-2.1,9.8-1.3,8.3,1.3-2.4,2-6.7,2.6-7.5,2.1-2.4,2.9-1.8,4.4-4.1s1.3-.3,1.8.5c1.1,1.6-1.2,5.4-1.2,8.8s.8,10,2.3,12.7c.5,0,1.2,4.5,1.7,4.4.6-2.6-2.6-9.4-2.1-12.1s.4-3.8.3-6.9,2.8-5.9,2.2-8.1-3-3.4-3-5.5.2-.1.6-.2.5,0,.6,0c.3-.1,2.1.6,2.3.8,2.1,1.8,6.3,1.5,8,2s-1.3-1.9-2.4-1.5c-2.5.8-6.2-1.5-6.6-1.9-.8-.8-4.2.2-3-1.5s0-4.4,0-5.8-.5-1-1.1-.9-.5,0-.7.1-.5.2-.7.5,0,0-.1.1Z"/>
      <g>
        <path class="cls-1" d="M21.5,42.6s7.5,21.3,7.2,24.1c-.3,2.8,0-14.3,1.2-14.7,1.2-.4,4.8-8.9,4.8-8.9l4.4-2.2s-3.7,3.5-4.8,6.7-3.7,9.6-3.9,11.8,1.2,14.1,1.4,15-6.7,1.5-6.7.2.1-15.6-.7-17.6c-.8-2-2.4-11.1-3.7-12.1s.9-2.2.9-2.2Z"/>
        <path class="cls-1" d="M20.8,39s-2.2-3.9-3.9-2.7-5.9,4.2-5.8,5.8-5,12.8-4.4,19.4c.6,6.6,3.7-1.8,3.7-1.8,0,0,2.8-2,4.6-3.1s13-16.3,12.2-17.4c-.8-1.1-6.5-.2-6.5-.2Z"/>
        <path class="cls-1" d="M34.6,43.1s5.3,0,6.7,1.1c1.4,1.1,5.7,7.6,6.2,8.3s3.5,5.1,4.6,4.9.9-10.3-.2-11.8c-1.2-1.6-9.7-8-11.1-8s-6.2,5.6-6.2,5.6Z"/>
      </g>
      <g>
        <path class="cls-1" d="M119.1,39.8s8.6,25.2,8.2,28.5c-.4,3.3,0-16.9,1.3-17.4,1.3-.5,5.6-10.6,5.6-10.6l5-2.6s-4.2,4.1-5.6,7.9-4.2,11.4-4.5,14c-.3,2.6,1.3,16.6,1.6,17.7s-7.7,1.7-7.7.3.1-18.5-.8-20.9-2.8-13.1-4.2-14.3,1.1-2.6,1.1-2.6Z"/>
        <path class="cls-1" d="M118.4,35.6s-2.5-4.6-4.5-3.2c-2,1.5-6.8,5-6.6,6.9.1,1.8-5.7,15.2-5,23,.7,7.8,4.2-2.1,4.2-2.1,0,0,3.2-2.4,5.3-3.7,2.1-1.3,15-19.3,14-20.6-.9-1.3-7.4-.3-7.4-.3Z"/>
        <path class="cls-1" d="M134.2,40.3s6.1,0,7.7,1.3c1.6,1.3,6.5,9,7.2,9.8s4,6.1,5.3,5.8,1.1-12.2-.3-14c-1.3-1.8-11.1-9.5-12.7-9.5s-7.2,6.6-7.2,6.6Z"/>
      </g>
      <g>
        <path class="cls-1" d="M62.9,28.8l-.7.9s.7,2.5.5,5-1.3,8.5-.9,9.7.5,8.1.5,8.1l.5,1.6,1.7-.3s-1.2-1.4-1-2.6-.5-7.7-.2-9,.1-4.4.3-5.8-.1-4.3-.2-5.2-.5-2.5-.5-2.5Z"/>
        <path class="cls-1" d="M74.5,67.3v3.8l-2.1-1.8s0-1.2-1.1-5-.5-5-.5-5c0,0,.7,2.1,1,3.2s.8,2.9,1.4,3.9,1.4.9,1.4.9Z"/>
        <path class="cls-1" d="M74,67.3l.5,8.4,1.5-.4s-1.5-13.3-1.4-14.1-.9,0-.9,0l.3,6.1Z"/>
        <path class="cls-1" d="M74.5,63.3s1.7-2.4,1-3.5-.5-2.8.1-4.4.7-5.9.7-7.9-.2-7.7.4-8.8,1.1-6,1.4-7.3.7-3.7.3-4.9-2.1-1.6-2.1-1.6c0,0-.5-.4.5.7s.9,1.8.8,3.2-1.3,5.5-1.3,5.9-2,6.3-2.1,6.6-1,3.7-1.1,5.7-.9,6.2-.7,8,.8,4.4.8,4.4c0,0-.3-.2-.4.9s-.5,2,.1,2.6,1.4.6,1.4.6Z"/>
        <path class="cls-2" d="M87.4,43.9s-6.7,10.3-7.9,13.5-4.7,11.8-4.7,11.8l-.9,3.9,1,1.8s.1-2.2.7-3.6,3.7-10.7,4.6-12.5,5.5-10.2,5.9-10.8.9-2.1,1.4-2.9-.1-1.2-.1-1.2Z"/>
        <path class="cls-3" d="M68.8,61.8s2.1,5.8,3.6,7.1,3.6,4.4,3.6,4.4l-1.2,2s-7.7-12.9-7.9-13.3,2.1-.2,2.1-.2Z"/>
        <path class="cls-4" d="M76.9,75.6s-.4,1-1.9,1-3.3-.9-3.3-.9l.3-1.2-5.1-11.2.4-2.3,5.1,10.2,2.1,3.6.6-2.8c0-.3.1-.5.7-.1l.4.2c.2.1.4.3.5.5.1.4.3.7.3.9v2.1Z"/>
        <path class="cls-3" d="M89.4,35.7s-.7-2.8.2-3.9,1.6-1.5,1.3-2.7-1.7-2.2-1.7-2.5.4-3,1.5-3.3,2.3-1.4,2.9-1.5,3.1.2,4.5,1.2c1.4,1,3.5,3.8,4.2,4.1s2.4,1.8,2.8,3,.6,4.4,1.2,4.8,2.5,1.8,3,2.7.3,5.4-.2,6.2-.8,3.4-.2,4.9-.7,5.1-.9,5.6-2,2.2-2,3.5.8,3.2.8,4.7-1.5,4-1.7,4.2-2-.7-2.3-1.2.1-.7-2.2-1.4-5.1-1.8-5.1-3,1.7-1.8-1-2.5c-.9-.2-2.5-.6-2.9-3.7-.3-2.6-.3-6.5-2.2-7.3s-2.5-1.8-3.2-4-.4-2.8-2-4.5-3.3-3.5-2.9-6,.5-3.8.2-4.8-1.1-3,.2-3.2,2.5,1.5,2.5,1.5c0,0,1-.3,1.3.7s.9,2.7,1.3,3.6,2.4,4.8,2.4,4.8Z"/>
        <path class="cls-3" d="M65.2,22.2s4.3-4,5.2-6,2-2.9-.8-3.6-9.9,1.2-9.9,1.2c0,0-9.6,3.2-11.3,5.5s-6.6,9.5-7,11.3-1.5,4.1-2.2,4.8-1.5,5.8-1.2,7.4-.3,2.3-.5,2.8,0,1.7.2,2.8.4,1.6.4,1.6l1.3-1.3.9-1.1s.4,0,2.6-.7,7.9-4.8,8.6-6.2,5-5.9,6.7-7,4.4-4.1,7.5-5.8c3.1-1.7,8.3-4.9,10-6.7,1.7-1.8.3-5-.2-5.6s-2,.3-2,.3c0,0-4.5,4.1-6.2,5.2-1.7,1.1-2.3,1.2-2.3,1.2Z"/>
        <path class="cls-3" d="M65.5,58.6s1.1-.3,2.7-.6,2.7-.9,3.2-.4,1.4,2.4.6,3.5-2.8,3.2-3.9,3.6-4.2,1.2-4.6,1.7-2.8,1.6-4.3,1.7-5.5.1-6.3-.4-1.7-.6-2-1,.4-2.1.8-2.6,1.1-2.3,1.5-3.6,1.4-3.2,2.3-3.9,2.6-2.8,4.3-3,2.4-.5,3.1-.5.3,1,1,.7,1.2-1,2-.2,1.6,1,1.2,2.4-1.6,2.7-1.6,2.7Z"/>
        <path class="cls-5" d="M83.1,26.6l1.2,2.6.3-1.8v2.9c0,0,1.7,3.3,1.7,3.3,0,0,.7-1.3.6-1.8s-.1,2.2-.1,2.2l1.4,3.8s.5-1.5.5-2.1.2.7.2,1.4-.1,1.7-.1,1.7c0,0,1.3,3.2,1.8,3.5s1.3-5.4,1.4-5.9-1.4-3.3-1.4-3.3c0,0-.7-1.1,0-.5s1.2,2.1,1.2,2.1l.4.8.5-4.2s-1-.7-1-1.1-.2-1.4.1-1,0,.7.4,1.2l.4.4.3-2.8s-1.7-1-1.8-2.1.1-1.8.3-1.5-.3.6.2,1.5,1,1.4,1,1.4v-4.5s.3.2.3.7.3,3.1.3,3.1c0,0,2.2-1.4,2.6-1.6s1-.9,1.2-1.2.4.2.3.4-3.7,2.8-3.8,2.9-.3,5.3-.3,5.3c0,0,2.3-.9,2.7-1.5s2.9-3.4,3.5-3.6l.6-.2s-1,1.1-1.3,1.5-1.8,1.7-1.9,2-2,1.8-2.5,2-1,.6-1,.6l-.8,4.3s2.4-1.2,3.6-2.1,5.1-5.1,4.9-4-.9.9-1.4,1.5-3.8,3.3-4.4,3.8-2.7,1.5-2.7,1.5l-.5,2.6-.6,2.1.9,1.5s.1-.1.3-.4c.7-.8,2.3-2.7,3.7-3s5.4-1.2,8-1,3.8,0,3.8,0c0,0-.3.4-.8.4s-3.3-.2-4-.1-6.9,1.1-7.1,1.3-3,2.2-3.1,2.7-.2.8-.2.8l2.5,3.6s5.2-.5,7.6.9,2.9,2.1,2.9,2.1c0,0-1.5-.7-2.9-1.4s-3.5-1.1-4.3-1.3-3.1.3-3.1.3l2.6,5.5s4.1,0,5.3,1,1.4,1.4,1.4,1.4c0,0-.8-.7-1.7-1s-3-1-3.8-1-1.1.2-1.1.2l3.2,5.4s2.7,1.1,3.4,1.6,0,.7,0,.7c0,0-1.8-1.1-2.4-1.3s1.7,3.7,1.7,3.7l-6.7-9.8s-1.4,1.5-1,2.4.3,3.1.3,3.1c0,0-.9-2.6-.8-3.2s1-3,1-3l-3.1-6.4s-.7,2-.8,2.7-.3,1.1-.3,1.1c0,0-.2-2.1,0-2.4s.6-2.5.6-2.5l-2.4-3.8s-2.4-2.8-2.5-3.1-2.7-2.5-4-3.7-.5-.4-.7-.7c-.8-.8-1-1.5-1-1.5l5.4,4.3-2.1-4.9s-1.6-1.3-2.4-2-1-1.3-1-1.3c0,0,.3-.4.6-.1s2.1,2.1,2.1,2.1c0,0-2-3.7-2-4.1s-.3-2.1-.3-2.1Z"/>
        <path class="cls-1" d="M83.2,37.6s2.1,2.4,2.4,3.1.7,2.8.7,2.8l1.2,3s1.3.9,1.4,1.5.2,1.9.2,1.9c0,0,1.8,1.9,2.1,2.8s.5,2.7.5,2.7c0,0-.6,1.4.7,2.1s1.9,1.1.8.2-.7-2.7-.5-3.2c.2-1,.2-3-.1-3.7s-1.6-2.5-2.6-3.4-1.4-1.5-1.4-1.5c0,0,0-1.5,0-2.1s.5-1.6-.3-2.5-4.9-3.8-4.9-3.8Z"/>
        <path class="cls-1" d="M51.6,40.7c.8-1.3,5-5.9,6.7-7s4.4-4.1,7.5-5.8c3.1-1.7,8.3-4.9,10-6.7,1.7-1.8-7.2,2.1-10,4.9s-3.3,2.5-4.5,3.2c-3.6,1.9-7,6.1-7,6.1,0,0-3.4,6.6-2.6,5.3Z"/>
      </g>
      <g>
        <path class="cls-1" d="M220.7,20.5l.7,1s-.7,2.8-.5,5.6c.2,2.8,1.3,9.5.9,10.9s-.5,9.1-.5,9.1l-.5,1.8-1.8-.4s1.3-1.6,1-2.9.5-8.6.2-10.1-.1-4.9-.3-6.4.1-4.8.2-5.8.5-2.8.5-2.8Z"/>
        <path class="cls-1" d="M209,63.7v4.3s2.1-2,2.1-2c0,0,0-1.4,1.1-5.7s.6-5.7.6-5.7c0,0-.7,2.3-1,3.6s-.8,3.3-1.4,4.4-1.4,1-1.4,1Z"/>
        <path class="cls-1" d="M209.4,63.7l-.5,9.4-1.6-.5s1.6-14.9,1.5-15.8.9,0,.9,0l-.3,6.8Z"/>
        <path class="cls-1" d="M208.9,59.2s-1.7-2.7-1-4,.5-3.2-.1-5-.7-6.6-.7-8.8.2-8.7-.4-9.9-1.1-6.8-1.5-8.2-.7-4.2-.3-5.5,2.1-1.8,2.1-1.8c0,0,.5-.4-.5.8s-.9,2.1-.8,3.6,1.4,6.1,1.4,6.6,2,7.1,2.1,7.4,1,4.1,1.1,6.4c.1,2.3.9,6.9.7,8.9s-.8,4.9-.8,4.9c0,0,.3-.2.4,1s.5,2.3-.1,2.9-1.5.6-1.5.6Z"/>
        <path class="cls-2" d="M195.9,37.5s6.8,11.5,8,15.1,4.8,13.3,4.8,13.3l.9,4.4-1,2s-.1-2.5-.7-4.1-3.8-12-4.7-14-5.6-11.4-5.9-12.2-.9-2.3-1.5-3.2.1-1.4.1-1.4Z"/>
        <path class="cls-3" d="M214.7,57.5s-2.1,6.5-3.6,8-3.6,4.9-3.6,4.9l1.3,2.2s7.9-14.4,8.1-14.9-2.1-.2-2.1-.2Z"/>
        <path class="cls-4" d="M206.5,73s.4,1.2,1.9,1.1,3.3-1,3.3-1l-.3-1.4,5.1-12.5-.4-2.6-5.1,11.4-2.1,4.1-.6-3.1c0-.3-.1-.5-.7-.1l-.4.2c-.2.1-.4.3-.5.5-.2.4-.3.8-.3,1v2.3Z"/>
        <path class="cls-3" d="M193.8,28.3s.7-3.1-.2-4.4c-.9-1.3-1.6-1.7-1.4-3s1.8-2.4,1.8-2.9-.4-3.4-1.6-3.7-2.3-1.6-2.9-1.7-3.1.2-4.6,1.3-3.6,4.3-4.3,4.6-2.4,2-2.8,3.3c-.4,1.3-.6,5-1.3,5.4s-2.6,2-3,3-.3,6,.2,7,.8,3.8.2,5.5.7,5.8.9,6.3,2,2.5,2,4-.8,3.5-.8,5.3,1.6,4.5,1.8,4.7,2-.8,2.3-1.4-.1-.8,2.2-1.6c2.3-.7,5.2-2,5.2-3.4s-1.7-2.1,1-2.8c1-.2,2.6-.6,2.9-4.1.3-3,.3-7.3,2.2-8.2s2.6-2,3.2-4.5.4-3.1,2-5.1,3.4-3.9,2.9-6.7c-.5-2.9-.5-4.3-.2-5.3s1.1-3.4-.2-3.6c-1.4-.2-2.5,1.7-2.5,1.7,0,0-1-.4-1.4.8s-.9,3-1.4,4.1-2.4,5.4-2.4,5.4Z"/>
        <path class="cls-3" d="M218.4,13.2s-4.3-4.5-5.3-6.7c-1-2.2-2-3.3.8-4.1s10,1.4,10,1.4c0,0,9.7,3.5,11.5,6.2s6.7,10.6,7.1,12.6,1.6,4.6,2.2,5.3,1.5,6.5,1.3,8.3.3,2.6.5,3.1,0,1.9-.2,3.1-.4,1.8-.4,1.8l-1.4-1.5-.9-1.2s-.4,0-2.6-.8c-2.2-.8-8-5.4-8.8-6.9s-5.1-6.6-6.8-7.8-4.5-4.7-7.6-6.5c-3.1-1.9-8.4-5.5-10.1-7.6s-.3-5.6.2-6.3,2,.4,2,.4c0,0,4.5,4.6,6.3,5.8s2.3,1.3,2.3,1.3Z"/>
        <path class="cls-3" d="M218.1,53.9s-1.1-.3-2.7-.6-2.7-1-3.2-.5-1.4,2.7-.6,3.9,2.8,3.6,4,4.1c1.1.4,4.2,1.3,4.7,1.9s2.9,1.8,4.4,1.9c1.5,0,5.6.1,6.4-.5s1.8-.6,2-1.1-.4-2.4-.8-2.9-1.1-2.6-1.6-4.1-1.5-3.6-2.3-4.4-2.6-3.1-4.4-3.3c-1.8-.2-2.5-.6-3.1-.6s-.3,1.2-1,.7-1.2-1.2-2-.3-1.7,1.2-1.3,2.7,1.7,3,1.7,3Z"/>
        <path class="cls-5" d="M200.2,18.1l-1.2,2.9-.3-2v3.3c0,0-1.7,3.7-1.7,3.7,0,0-.7-1.4-.6-2s.1,2.5.1,2.5l-1.4,4.3s-.5-1.7-.5-2.3-.2.8-.2,1.5.1,1.9.1,1.9c0,0-1.3,3.6-1.8,3.9s-1.4-6.1-1.5-6.6,1.4-3.7,1.4-3.7c0,0,.7-1.2,0-.6s-1.3,2.4-1.3,2.4l-.4.9-.5-4.7s1-.8,1-1.2.2-1.6-.1-1.2,0,.8-.4,1.3l-.4.5-.3-3.2s1.7-1.1,1.8-2.4-.1-2-.3-1.7.3.7-.2,1.7-1,1.5-1,1.5v-5s-.3.2-.3.7-.3,3.4-.3,3.4c0,0-2.2-1.5-2.6-1.8s-1-1-1.2-1.4-.4.2-.3.5,3.8,3.1,3.9,3.3.3,5.9.3,5.9c0,0-2.4-1-2.8-1.7s-2.9-3.8-3.5-4.1l-.6-.2s1,1.3,1.3,1.7,1.8,1.9,1.9,2.3,2.1,2,2.6,2.2,1,.7,1,.7l.8,4.8s-2.4-1.4-3.7-2.4-5.1-5.7-4.9-4.5.9,1,1.5,1.7,3.9,3.7,4.4,4.2,2.7,1.7,2.7,1.7l.6,2.9.6,2.4-.9,1.7s-.1-.2-.3-.4c-.7-.9-2.3-3-3.7-3.3s-5.5-1.3-8.1-1.1c-2.6.2-3.8,0-3.8,0,0,0,.3.4.8.5s3.3-.2,4.1-.1,7,1.2,7.2,1.4,3.1,2.5,3.2,3.1.2.9.2.9l-2.6,4s-5.3-.6-7.7,1-3,2.3-3,2.3c0,0,1.5-.7,2.9-1.6s3.5-1.2,4.4-1.4,3.1.4,3.1.4l-2.6,6.1s-4.2,0-5.4,1.1-1.5,1.6-1.5,1.6c0,0,.8-.7,1.7-1.2.9-.4,3.1-1.1,3.8-1.1s1.1.2,1.1.2l-3.3,6s-2.8,1.3-3.5,1.8,0,.7,0,.7c0,0,1.8-1.2,2.4-1.5s-1.7,4.1-1.7,4.1l6.8-10.9s1.4,1.7,1,2.7-.3,3.4-.3,3.4c0,0,.9-2.9.8-3.6s-1-3.4-1-3.4l3.1-7.1s.7,2.2.8,3.1.3,1.2.3,1.2c0,0,.2-2.4,0-2.6s-.6-2.8-.6-2.8l2.4-4.2s2.5-3.1,2.6-3.4,2.8-2.9,4.1-4.1.5-.5.7-.7c.8-.9,1-1.7,1-1.7l-5.5,4.8,2.1-5.5s1.6-1.4,2.4-2.2,1-1.5,1-1.5c0,0-.3-.5-.6-.1s-2.2,2.3-2.2,2.3c0,0,2-4.1,2-4.6s.3-2.4.3-2.4Z"/>
        <path class="cls-1" d="M200.1,30.4s-2.1,2.6-2.4,3.4-.7,3.2-.7,3.2l-1.2,3.4s-1.3,1-1.4,1.7-.2,2.1-.2,2.1c0,0-1.8,2.2-2.1,3.2s-.5,3-.5,3c0,0,.6,1.6-.7,2.4s-1.9,1.3-.8.2.7-3,.6-3.6c-.2-1.1-.2-3.3.1-4.2s1.6-2.8,2.6-3.8,1.4-1.6,1.4-1.6c0,0,0-1.7,0-2.4s-.5-1.8.3-2.8,5-4.2,5-4.2Z"/>
        <path class="cls-1" d="M232.2,33.9c-.8-1.5-5.1-6.6-6.8-7.8s-4.5-4.7-7.6-6.5c-3.1-1.9-8.4-5.5-10.1-7.6s7.3,2.4,10.2,5.5,3.3,2.9,4.6,3.6c3.7,2.1,7.1,6.9,7.1,6.9,0,0,3.4,7.4,2.7,6Z"/>
      </g>
      <g>
        <path class="cls-1" d="M587.9,38.2s10.1,28,9.6,31.6c-.5,3.7,0-18.8,1.5-19.3s6.5-11.7,6.5-11.7l5.9-2.9s-5,4.5-6.5,8.8-5,12.6-5.3,15.5c-.3,2.9,1.5,18.5,1.9,19.6s-9,1.9-9,.3.2-20.5-.9-23.1-3.3-14.5-5-15.8,1.2-2.9,1.2-2.9Z"/>
        <path class="cls-1" d="M587,33.6s-2.9-5.1-5.3-3.5c-2.3,1.6-7.9,5.6-7.7,7.6s-6.7,16.8-5.9,25.5c.8,8.6,5-2.3,5-2.3,0,0,3.7-2.6,6.2-4.1,2.5-1.5,17.5-21.4,16.4-22.9-1.1-1.5-8.7-.3-8.7-.3Z"/>
        <path class="cls-1" d="M605.6,38.8s7.1,0,9,1.5c1.9,1.5,7.6,10,8.4,10.8s4.6,6.7,6.2,6.4c1.5-.3,1.2-13.5-.3-15.5-1.5-2.1-13-10.5-14.9-10.5s-8.4,7.3-8.4,7.3Z"/>
      </g>
      <g>
        <path class="cls-1" d="M531.1,31.1s10.6,32.9,10.1,37.2c-.5,4.3,0-22,1.6-22.7,1.6-.7,6.8-13.8,6.8-13.8l6.2-3.4s-5.2,5.3-6.8,10.3c-1.6,5-5.2,14.8-5.5,18.3-.3,3.4,1.6,21.7,2,23.1s-9.4,2.2-9.4.3.2-24.1-1-27.2-3.4-17.1-5.2-18.6,1.3-3.4,1.3-3.4Z"/>
        <path class="cls-1" d="M530.1,25.6s-3.1-6-5.5-4.1-8.3,6.5-8.1,9c.2,2.4-7,19.8-6.2,30,.8,10.2,5.2-2.8,5.2-2.8,0,0,3.9-3.1,6.5-4.8s18.4-25.1,17.3-26.9-9.1-.3-9.1-.3Z"/>
        <path class="cls-1" d="M549.7,31.8s7.5,0,9.4,1.7c2,1.7,8,11.7,8.8,12.7.8,1,4.9,7.9,6.5,7.6,1.6-.3,1.3-15.8-.3-18.3-1.6-2.4-13.7-12.4-15.6-12.4s-8.8,8.6-8.8,8.6Z"/>
      </g>
      <g>
        <path class="cls-1" d="M432.2,27.3s10.1,37.1,9.6,41.9c-.5,4.9,0-24.8,1.5-25.6,1.5-.8,6.5-15.5,6.5-15.5l5.9-3.9s-5,6-6.5,11.6-5,16.7-5.3,20.6c-.3,3.9,1.5,24.4,1.9,26s-9,2.5-9,.4.2-27.2-.9-30.7c-1.1-3.5-3.3-19.2-5-21s1.2-3.9,1.2-3.9Z"/>
        <path class="cls-1" d="M431.3,21.1s-2.9-6.8-5.3-4.7c-2.3,2.1-7.9,7.4-7.7,10.1.2,2.7-6.7,22.3-5.9,33.8.8,11.4,5-3.1,5-3.1,0,0,3.7-3.5,6.2-5.4,2.5-1.9,17.5-28.3,16.4-30.3-1.1-1.9-8.7-.4-8.7-.4Z"/>
        <path class="cls-1" d="M449.9,28.1s7.1,0,9,1.9,7.6,13.2,8.4,14.4,4.6,8.9,6.2,8.5c1.5-.4,1.2-17.8-.3-20.6-1.5-2.7-13-14-14.9-14s-8.4,9.7-8.4,9.7Z"/>
      </g>
      <path class="cls-2" d="M20.9,72.8c-1.5.9-8.9.4-12.4,1.2-3.3.8-6,2.5-8.5,3.7,7.5,9.2,30.6,5,42.7,4.7s15.4-1.3,23-1c12.9.5,25.3,2.7,38.5,2.4,12.2-.3,22.7-2.3,35.1-1.5,9.6.6,19.3.4,29,.9,21,1.2,44.3-.6,64.9,2s12.5,2.3,19.7,2c7.8-.3,14.7-1.8,22.6-1.5,14,.5,24.7-.4,37.9-2.3,9.6-1.4,17.9,0,27.2,1.2,16.7,2,33.4-1.3,50.2-.9,23.8.7,47.2-.6,71.1.9,15.4,1,29.7-.5,45.1,1.4,20.8,2.7,39.3.2,60-1.5,14.6-1.2,28.1-1.9,42.6-3.6,14.1-1.7,28.1,1.8,42.5,1.3,11.7-.3,23.5-.5,35.4-.5,6.6,0,12.2.3,18.2-1.5,3.3-1,6.1-2.9,10.2-3.3-4.8-7.5-22.6-5.4-33-6.4-9.2-.9-16.3-1-25.8-.4-7.7.5-16-2.3-22.8-1.5-1.5,4.6-21.6-1-26.4-1.6-9.1-1.1-14.4,1.5-22.2,2.4-5.4.6-12.7.4-17.8-.7-5.5-1.1-8.9-3.4-15.6-2.3s-7,3.2-15.5,2.6c-6.2-.5-12.3-2.2-18.6-1.5-2.5,4.4-12.8,2.6-18,1.9-8.8-1.1-12.8-.3-21,.4-10.3.9-13-2.9-21.4-4-9.8-1.3-11.8,2.7-21.5,2-6.8-.4-11.1-1.5-17,.4-5.1,1.7-8,3.1-15,3.8-7.1.6-13.7-.2-20.7,0-4.5.1-9.7,1.4-14.7,1.6-8.2.4-16.3-1-24.2-1.9s-9.7,0-11.8-.9c-3.3-1.4-2-3.4-5.2-4.8-4.8-2.2-16.9-1.1-21.9.1-1.3,2.1-5.6,3.1-8.9,3.6-3.7.6-5.6-.6-8.8-.3-5.9.5-10.6,4.3-17.4,1.3,4.7-6.7-11.1-5.6-17.3-4.3-9,1.8-12.1,3.8-23.2,3.4.2-.7-.4-1.7-.3-2.4-11-2.8-19.5.2-28.9,1.5-3.6.5-7.8-.3-11.3-.4-4.7-.1-11.2,1-14.9.8-6.9-.3-14.7-4.1-20.1-6.6-8.7,3.8-20.2,7.8-31.1,8.1-11.7.4-24.3-2.7-36-1.9-4,.2-10.3,1.4-14.1,1.3-6.2,0-11.5-2.9-17.7-2.3-4.4.4-6.3,2.3-10.9,2.9-6.1.8-13-1.1-17.9-2.9-2.7,1.5-7.5,2.2-6.2,4.8Z"/>
      <g>
        <path class="cls-1" d="M558,23.8l-.7,1s.7,2.7.5,5.3c-.2,2.7-1.3,9-.9,10.3s.5,8.6.5,8.6l.5,1.7,1.8-.3s-1.3-1.5-1-2.8-.5-8.2-.2-9.6.1-4.7.3-6.1-.1-4.5-.2-5.5-.5-2.6-.5-2.6Z"/>
        <path class="cls-1" d="M569.8,64.6v4.1s-2.1-1.9-2.1-1.9c0,0,0-1.3-1.1-5.3s-.6-5.3-.6-5.3c0,0,.7,2.2,1,3.4s.8,3.1,1.4,4.2,1.4.9,1.4.9Z"/>
        <path class="cls-1" d="M569.3,64.7l.5,8.9,1.6-.4s-1.6-14.1-1.5-14.9-.9,0-.9,0l.3,6.5Z"/>
        <path class="cls-1" d="M569.9,60.4s1.7-2.5,1-3.7-.5-3,.1-4.7.7-6.2.7-8.4c0-2.1-.2-8.2.4-9.3s1.1-6.4,1.5-7.8.7-4,.3-5.2-2.1-1.7-2.1-1.7c0,0-.5-.4.5.8s.9,2,.8,3.4-1.4,5.8-1.4,6.3-2,6.7-2.1,7-1,3.9-1.1,6-.9,6.5-.7,8.5.8,4.6.8,4.6c0,0-.3-.2-.4,1s-.5,2.1.1,2.8,1.5.6,1.5.6Z"/>
        <path class="cls-2" d="M582.9,39.8s-6.8,10.9-8,14.3c-1.3,3.4-4.8,12.6-4.8,12.6l-.9,4.2,1,1.9s.1-2.4.7-3.8,3.8-11.4,4.7-13.3c.9-1.9,5.6-10.8,5.9-11.5s.9-2.2,1.5-3.1-.1-1.3-.1-1.3Z"/>
        <path class="cls-3" d="M564.1,58.8s2.1,6.2,3.6,7.6,3.6,4.7,3.6,4.7l-1.3,2.1s-7.9-13.7-8.1-14.1,2.1-.2,2.1-.2Z"/>
        <path class="cls-4" d="M572.3,73.5s-.4,1.1-1.9,1-3.3-.9-3.3-.9l.3-1.3-5.1-11.9.4-2.4,5.1,10.8,2.1,3.8.6-2.9c0-.3.1-.5.7-.1l.4.2c.2.1.4.3.5.5.2.4.3.8.3.9v2.2Z"/>
        <path class="cls-3" d="M585,31.1s-.7-2.9.2-4.2c.9-1.3,1.6-1.6,1.4-2.9-.3-1.3-1.8-2.3-1.8-2.7s.4-3.2,1.6-3.5,2.3-1.5,2.9-1.6,3.1.2,4.6,1.2,3.6,4.1,4.3,4.4,2.4,1.9,2.8,3.1.6,4.7,1.3,5.1,2.6,1.9,3,2.9.3,5.7-.2,6.6-.8,3.6-.2,5.2-.7,5.4-.9,5.9-2,2.4-2,3.7.8,3.4.8,5-1.6,4.2-1.8,4.4-2-.7-2.3-1.3.1-.8-2.2-1.5-5.2-1.9-5.2-3.2,1.7-2-1-2.6c-1-.2-2.6-.6-2.9-3.9-.3-2.8-.3-6.9-2.2-7.8s-2.6-1.9-3.2-4.3-.4-2.9-2-4.8-3.4-3.7-2.9-6.4c.5-2.7.5-4.1.2-5.1s-1.1-3.2.2-3.4,2.5,1.6,2.5,1.6c0,0,1-.3,1.4.8s.9,2.8,1.4,3.8,2.4,5.1,2.4,5.1Z"/>
        <path class="cls-3" d="M560.4,16.8s4.3-4.3,5.3-6.4,2-3.1-.8-3.8-10,1.3-10,1.3c0,0-9.8,3.4-11.5,5.8s-6.7,10.1-7.1,11.9-1.6,4.3-2.2,5.1-1.5,6.1-1.3,7.8-.3,2.4-.5,3,0,1.8.2,3,.4,1.7.4,1.7l1.4-1.4.9-1.1s.4,0,2.6-.8c2.2-.7,8-5.1,8.8-6.5.8-1.4,5.1-6.2,6.8-7.4s4.5-4.4,7.6-6.2c3.1-1.8,8.4-5.2,10.1-7.2s.3-5.3-.2-5.9-2,.3-2,.3c0,0-4.5,4.4-6.3,5.5s-2.3,1.2-2.3,1.2Z"/>
        <path class="cls-3" d="M560.7,55.4s1.1-.3,2.7-.6c1.6-.3,2.7-.9,3.2-.4s1.4,2.5.6,3.7-2.8,3.4-4,3.8c-1.1.4-4.2,1.3-4.7,1.8s-2.9,1.7-4.4,1.8c-1.5,0-5.6.1-6.4-.4s-1.8-.6-2-1,.4-2.3.8-2.8,1.1-2.5,1.6-3.8,1.5-3.4,2.3-4.2,2.6-2.9,4.4-3.1,2.5-.6,3.1-.5.3,1.1,1,.7,1.2-1.1,2-.3,1.7,1.1,1.3,2.5-1.7,2.9-1.7,2.9Z"/>
        <path class="cls-5" d="M578.6,21.5l1.2,2.7.3-1.9v3.1c0,0,1.7,3.5,1.7,3.5,0,0,.7-1.4.6-1.9s-.1,2.3-.1,2.3l1.4,4.1s.5-1.6.5-2.2.2.7.2,1.5-.1,1.8-.1,1.8c0,0,1.3,3.4,1.8,3.7s1.4-5.8,1.5-6.2-1.4-3.5-1.4-3.5c0,0-.7-1.1,0-.5s1.3,2.3,1.3,2.3l.4.8.5-4.4s-1-.7-1-1.2c0-.4-.2-1.5.1-1.1s0,.8.4,1.2l.4.5.3-3s-1.7-1-1.8-2.3.1-1.9.3-1.6-.3.7.2,1.6,1,1.5,1,1.5v-4.8s.3.2.3.7.3,3.3.3,3.3c0,0,2.2-1.5,2.6-1.7s1-1,1.2-1.3.4.2.3.5-3.8,2.9-3.9,3.1-.3,5.6-.3,5.6c0,0,2.4-1,2.8-1.6s2.9-3.6,3.5-3.8l.6-.2s-1,1.2-1.3,1.6-1.8,1.8-1.9,2.2-2.1,1.9-2.6,2.1-1,.6-1,.6l-.8,4.5s2.4-1.3,3.7-2.3,5.1-5.4,4.9-4.2-.9,1-1.5,1.6-3.9,3.5-4.5,4-2.7,1.6-2.7,1.6l-.6,2.7-.6,2.3.9,1.6s.1-.2.3-.4c.7-.9,2.3-2.8,3.7-3.1s5.5-1.2,8.1-1c2.6.2,3.8,0,3.8,0,0,0-.3.4-.8.5s-3.3-.2-4.1-.1-7,1.1-7.2,1.3-3.1,2.4-3.2,2.9-.2.9-.2.9l2.6,3.8s5.3-.6,7.7,1,3,2.2,3,2.2c0,0-1.5-.7-2.9-1.5s-3.5-1.1-4.4-1.3-3.1.3-3.1.3l2.6,5.8s4.2,0,5.4,1,1.5,1.5,1.5,1.5c0,0-.8-.7-1.7-1.1s-3.1-1-3.8-1-1.1.2-1.1.2l3.3,5.7s2.8,1.2,3.5,1.7,0,.7,0,.7c0,0-1.8-1.1-2.4-1.4s1.7,3.9,1.7,3.9l-6.8-10.3s-1.4,1.6-1,2.6.3,3.3.3,3.3c0,0-.9-2.7-.8-3.4s1-3.2,1-3.2l-3.1-6.7s-.7,2.1-.8,2.9-.3,1.2-.3,1.2c0,0-.2-2.3,0-2.5s.6-2.7.6-2.7l-2.4-4s-2.5-3-2.6-3.3-2.8-2.7-4.1-3.9-.5-.5-.7-.7c-.8-.9-1-1.6-1-1.6l5.5,4.5-2.1-5.2s-1.6-1.3-2.4-2.1-1-1.4-1-1.4c0,0,.3-.5.6-.1s2.2,2.2,2.2,2.2c0,0-2-3.9-2-4.4s-.3-2.3-.3-2.3Z"/>
        <path class="cls-1" d="M578.7,33.1s2.1,2.5,2.4,3.3.7,3,.7,3l1.2,3.2s1.3.9,1.4,1.6.2,2,.2,2c0,0,1.8,2.1,2.1,3s.5,2.8.5,2.8c0,0-.6,1.5.7,2.3s1.9,1.2.8.2-.7-2.8-.6-3.4c.2-1,.2-3.1-.1-4s-1.6-2.7-2.6-3.6-1.4-1.5-1.4-1.5c0,0,0-1.6,0-2.3s.5-1.7-.3-2.6-5-4-5-4Z"/>
        <path class="cls-1" d="M546.6,36.4c.8-1.4,5.1-6.2,6.8-7.4s4.5-4.4,7.6-6.2c3.1-1.8,8.4-5.2,10.1-7.2s-7.3,2.2-10.2,5.2-3.3,2.7-4.6,3.4c-3.7,2-7.1,6.5-7.1,6.5,0,0-3.4,7-2.7,5.7Z"/>
      </g>
      <g>
        <path class="cls-3" d="M277.9,33.9s9.1,25.4,8.6,28.7c-.4,3.3,0-17,1.4-17.5s5.9-10.6,5.9-10.6l5.3-2.7s-4.5,4.1-5.9,8c-1.4,3.9-4.5,11.4-4.7,14.1-.3,2.7,1.4,16.7,1.7,17.8s-8.1,1.7-8.1.3.1-18.6-.8-21-2.9-13.2-4.5-14.4,1.1-2.7,1.1-2.7Z"/>
        <path class="cls-3" d="M277.1,29.6s-2.6-4.7-4.7-3.2-7.1,5.1-7,6.9c.1,1.9-6,15.3-5.3,23.1.7,7.8,4.5-2.1,4.5-2.1,0,0,3.3-2.4,5.6-3.7s15.7-19.4,14.8-20.7-7.8-.3-7.8-.3Z"/>
        <path class="cls-3" d="M293.8,34.4s6.4,0,8.1,1.3c1.7,1.3,6.8,9,7.5,9.8s4.2,6.1,5.6,5.8c1.4-.3,1.1-12.2-.3-14.1s-11.7-9.6-13.4-9.6-7.5,6.6-7.5,6.6Z"/>
      </g>
      <g>
        <path class="cls-4" d="M358.5,38.6s8.4,24.8,8,28c-.4,3.2,0-16.6,1.3-17.1s5.4-10.4,5.4-10.4l4.9-2.6s-4.1,4-5.4,7.8c-1.3,3.8-4.1,11.2-4.4,13.8-.3,2.6,1.3,16.4,1.5,17.4s-7.5,1.7-7.5.3.1-18.2-.8-20.5-2.7-12.9-4.1-14,1-2.6,1-2.6Z"/>
        <path class="cls-4" d="M357.8,34.4s-2.4-4.5-4.4-3.1-6.6,4.9-6.4,6.8c.1,1.8-5.5,14.9-4.9,22.6s4.1-2.1,4.1-2.1c0,0,3.1-2.3,5.1-3.6,2.1-1.3,14.5-19,13.6-20.3s-7.2-.3-7.2-.3Z"/>
        <path class="cls-4" d="M373.2,39.1s5.9,0,7.5,1.3c1.5,1.3,6.3,8.8,7,9.6s3.9,6,5.1,5.7,1-11.9-.3-13.8-10.8-9.3-12.4-9.3-7,6.5-7,6.5Z"/>
      </g>
      <g>
        <path class="cls-4" d="M252,41.9s7.5,22.2,7.2,25.1c-.3,2.9,0-14.9,1.2-15.4,1.2-.5,4.9-9.3,4.9-9.3l4.4-2.3s-3.7,3.6-4.9,7-3.7,10-3.9,12.3,1.2,14.7,1.4,15.6-6.7,1.5-6.7.2.1-16.3-.7-18.4-2.4-11.5-3.7-12.6.9-2.3.9-2.3Z"/>
        <path class="cls-4" d="M251.3,38.2s-2.2-4.1-3.9-2.8c-1.7,1.3-5.9,4.4-5.8,6.1.1,1.6-5,13.4-4.4,20.2.6,6.9,3.7-1.9,3.7-1.9,0,0,2.8-2.1,4.6-3.3s13.1-17,12.3-18.2c-.8-1.2-6.5-.2-6.5-.2Z"/>
        <path class="cls-4" d="M265.2,42.3s5.3,0,6.7,1.2c1.4,1.2,5.7,7.9,6.3,8.6s3.5,5.4,4.6,5.1.9-10.7-.2-12.3-9.8-8.4-11.1-8.4-6.3,5.8-6.3,5.8Z"/>
      </g>
      <g>
        <path class="cls-1" d="M480.9,25.2l.8,1s-.8,2.8-.6,5.6,1.4,9.4,1,10.7-.6,9-.6,9l-.6,1.8-1.9-.4s1.4-1.6,1.1-2.9.5-8.5.2-10-.1-4.9-.3-6.4.1-4.7.2-5.7.6-2.7.6-2.7Z"/>
        <path class="cls-1" d="M468.3,67.9v4.3s2.3-1.9,2.3-1.9c0,0,0-1.3,1.2-5.6,1.3-4.3.6-5.6.6-5.6,0,0-.8,2.3-1.1,3.5s-.8,3.2-1.5,4.4-1.5,1-1.5,1Z"/>
        <path class="cls-1" d="M468.8,68l-.6,9.3-1.7-.5s1.7-14.8,1.6-15.6,1,0,1,0l-.3,6.7Z"/>
        <path class="cls-1" d="M468.2,63.5s-1.9-2.6-1.1-3.9.5-3.1-.1-4.9-.7-6.5-.8-8.7.2-8.6-.5-9.7-1.2-6.7-1.6-8.1-.7-4.1-.3-5.5,2.3-1.8,2.3-1.8c0,0,.6-.4-.6.8s-1,2-.9,3.6,1.5,6.1,1.5,6.6,2.2,7,2.3,7.3,1.1,4.1,1.2,6.3,1,6.8.8,8.8-.9,4.8-.9,4.8c0,0,.3-.2.5,1s.5,2.2-.1,2.9-1.6.6-1.6.6Z"/>
        <path class="cls-2" d="M454.1,42s7.3,11.4,8.7,14.9,5.2,13.1,5.2,13.1l1,4.4-1.1,2s-.1-2.5-.8-4-4.1-11.9-5.1-13.8-6-11.3-6.4-12-1-2.3-1.6-3.2.1-1.4.1-1.4Z"/>
        <path class="cls-3" d="M474.4,61.8s-2.3,6.4-3.9,7.9-3.9,4.9-3.9,4.9l1.4,2.2s8.5-14.3,8.7-14.7-2.3-.2-2.3-.2Z"/>
        <path class="cls-4" d="M465.6,77.1s.5,1.2,2.1,1.1,3.6-1,3.6-1l-.3-1.3,5.6-12.4-.5-2.6-5.6,11.3-2.3,4-.7-3.1c0-.3-.1-.5-.7-.1l-.5.2c-.2.1-.4.3-.5.5-.2.4-.3.8-.3,1v2.3Z"/>
        <path class="cls-3" d="M451.9,32.9s.8-3.1-.2-4.4-1.7-1.6-1.5-3,1.9-2.4,1.9-2.8-.5-3.4-1.7-3.6-2.5-1.6-3.2-1.6-3.4.2-5,1.3-3.9,4.2-4.6,4.6-2.6,2-3,3.3-.6,4.9-1.4,5.4-2.8,2-3.3,3-.3,6,.2,6.9.8,3.8.2,5.5.8,5.7,1,6.2,2.1,2.5,2.1,3.9-.9,3.5-.9,5.2,1.7,4.4,1.9,4.6,2.1-.8,2.5-1.4-.1-.8,2.4-1.5,5.6-2,5.6-3.4-1.9-2,1.1-2.7c1-.2,2.8-.6,3.2-4.1.3-2.9.3-7.2,2.4-8.1,2-.9,2.8-2,3.5-4.5s.4-3.1,2.1-5,3.7-3.8,3.2-6.6-.5-4.2-.2-5.3,1.2-3.4-.2-3.6c-1.5-.2-2.7,1.6-2.7,1.6,0,0-1.1-.4-1.5.8s-1,3-1.5,4-2.6,5.4-2.6,5.4Z"/>
        <path class="cls-3" d="M478.4,18s-4.7-4.5-5.7-6.6c-1.1-2.2-2.1-3.2.9-4s10.8,1.4,10.8,1.4c0,0,10.5,3.5,12.4,6.1,1.9,2.6,7.2,10.5,7.7,12.5s1.7,4.5,2.4,5.3,1.6,6.4,1.4,8.2.3,2.6.6,3.1,0,1.9-.2,3.1-.5,1.8-.5,1.8l-1.5-1.5-1-1.2s-.4,0-2.8-.8c-2.4-.8-8.6-5.4-9.5-6.8s-5.5-6.5-7.3-7.7-4.8-4.6-8.2-6.5c-3.4-1.9-9.1-5.5-10.9-7.5s-.3-5.6.2-6.2,2.1.4,2.1.4c0,0,4.9,4.6,6.8,5.7,1.9,1.2,2.5,1.3,2.5,1.3Z"/>
        <path class="cls-3" d="M478.1,58.2s-1.2-.3-2.9-.6-2.9-1-3.5-.5-1.5,2.6-.7,3.8,3,3.6,4.3,4,4.6,1.3,5.1,1.9,3.1,1.8,4.7,1.9c1.6,0,6,.1,6.9-.5s1.9-.6,2.1-1.1-.5-2.4-.9-2.9-1.2-2.6-1.7-4-1.6-3.6-2.5-4.4-2.8-3.1-4.7-3.3-2.6-.6-3.4-.5-.3,1.1-1.1.7-1.3-1.1-2.1-.3-1.8,1.1-1.4,2.6,1.8,3,1.8,3Z"/>
        <path class="cls-5" d="M458.8,22.9l-1.3,2.9-.3-2v3.2c0,0-1.9,3.7-1.9,3.7,0,0-.8-1.4-.7-1.9s.2,2.4.2,2.4l-1.5,4.3s-.5-1.6-.5-2.3-.2.8-.2,1.5.2,1.9.2,1.9c0,0-1.4,3.6-2,3.9s-1.5-6-1.6-6.5,1.5-3.7,1.5-3.7c0,0,.8-1.2,0-.5s-1.4,2.4-1.4,2.4l-.5.9-.5-4.6s1.1-.8,1.1-1.2.2-1.6-.2-1.2,0,.8-.5,1.3l-.4.5-.3-3.2s1.8-1.1,2-2.4-.2-2-.3-1.7.3.7-.2,1.6-1.1,1.5-1.1,1.5v-5s-.3.2-.4.7-.3,3.4-.3,3.4c0,0-2.4-1.5-2.9-1.8s-1.1-1-1.3-1.3-.4.2-.3.5,4.1,3.1,4.2,3.2.4,5.8.4,5.8c0,0-2.6-1-3-1.6s-3.2-3.8-3.8-4l-.7-.2s1.1,1.2,1.4,1.7,2,1.9,2.1,2.2,2.2,1.9,2.8,2.2,1.1.7,1.1.7l.9,4.7s-2.6-1.3-4-2.4-5.5-5.7-5.3-4.4,1,1,1.6,1.7,4.2,3.7,4.8,4.2,2.9,1.7,2.9,1.7l.6,2.9.7,2.4-1,1.7s-.1-.2-.3-.4c-.7-.9-2.5-3-4-3.3s-5.9-1.3-8.8-1.1-4.1,0-4.1,0c0,0,.3.4.8.5s3.6-.2,4.4-.1,7.5,1.2,7.8,1.4,3.3,2.5,3.5,3,.2.9.2.9l-2.8,3.9s-5.7-.6-8.3,1-3.2,2.3-3.2,2.3c0,0,1.7-.7,3.2-1.6s3.8-1.2,4.7-1.4,3.4.4,3.4.4l-2.9,6.1s-4.5,0-5.8,1.1-1.6,1.6-1.6,1.6c0,0,.9-.7,1.9-1.2,1-.4,3.3-1.1,4.1-1.1s1.2.2,1.2.2l-3.5,6s-3,1.2-3.8,1.8,0,.7,0,.7c0,0,2-1.2,2.6-1.5s-1.9,4.1-1.9,4.1l7.4-10.8s1.5,1.7,1.1,2.7-.4,3.4-.4,3.4c0,0,.9-2.9.9-3.6s-1.1-3.3-1.1-3.3l3.4-7s.8,2.2.8,3,.3,1.2.3,1.2c0,0,.3-2.4,0-2.6s-.7-2.8-.7-2.8l2.6-4.2s2.7-3.1,2.8-3.4,3-2.8,4.4-4.1.5-.5.7-.7c.8-.9,1.1-1.6,1.1-1.6l-5.9,4.7,2.3-5.4s1.8-1.4,2.6-2.2,1.1-1.5,1.1-1.5c0,0-.4-.5-.7-.1s-2.3,2.3-2.3,2.3c0,0,2.1-4.1,2.2-4.6s.3-2.4.3-2.4Z"/>
        <path class="cls-1" d="M458.7,35s-2.3,2.6-2.6,3.4-.8,3.2-.8,3.2l-1.3,3.3s-1.4,1-1.5,1.7-.2,2.1-.2,2.1c0,0-2,2.2-2.3,3.2s-.5,2.9-.5,2.9c0,0,.6,1.6-.8,2.4s-2.1,1.2-.8.2.7-3,.6-3.6c-.3-1.1-.2-3.3.2-4.1s1.8-2.8,2.8-3.7,1.5-1.6,1.5-1.6c0,0,0-1.7,0-2.4s-.5-1.8.3-2.7,5.4-4.2,5.4-4.2Z"/>
        <path class="cls-1" d="M493.3,38.5c-.8-1.5-5.5-6.5-7.3-7.7s-4.8-4.6-8.2-6.5c-3.4-1.9-9.1-5.5-10.9-7.5s7.9,2.3,11,5.5c3.9,3.9,3.6,2.8,5,3.5,4,2.1,7.6,6.8,7.6,6.8,0,0,3.7,7.4,2.9,5.9Z"/>
      </g>
      <g>
        <path class="cls-1" d="M646,29.7l.6.8s-.6,2.2-.4,4.4,1,7.4.7,8.4-.4,7.1-.4,7.1l-.4,1.4-1.4-.3s1-1.2.8-2.3.4-6.7.2-7.9,0-3.8-.2-5,0-3.7.2-4.5.4-2.1.4-2.1Z"/>
        <path class="cls-1" d="M637,63.2v3.3s1.6-1.5,1.6-1.5c0,0,0-1,.8-4.4s.4-4.4.4-4.4c0,0-.5,1.8-.7,2.8s-.6,2.5-1.1,3.4-1.1.8-1.1.8Z"/>
        <path class="cls-1" d="M637.3,63.2l-.4,7.3-1.2-.4s1.2-11.6,1.1-12.2.7,0,.7,0l-.2,5.3Z"/>
        <path class="cls-1" d="M636.9,59.7s-1.3-2.1-.8-3.1.4-2.5,0-3.9-.5-5.1-.6-6.9.2-6.7-.3-7.6-.9-5.2-1.1-6.4-.5-3.2-.2-4.3,1.6-1.4,1.6-1.4c0,0,.4-.3-.4.6s-.7,1.6-.6,2.8,1,4.7,1,5.1,1.6,5.5,1.6,5.7.8,3.2.9,4.9.7,5.4.6,6.9-.6,3.8-.6,3.8c0,0,.2-.2.3.8s.4,1.7,0,2.3-1.1.5-1.1.5Z"/>
        <path class="cls-2" d="M627,42.9s5.2,8.9,6.1,11.7c1,2.8,3.7,10.3,3.7,10.3l.7,3.4-.8,1.6s0-1.9-.6-3.1-2.9-9.3-3.6-10.9-4.3-8.9-4.5-9.4-.7-1.8-1.1-2.5,0-1.1,0-1.1Z"/>
        <path class="cls-3" d="M641.4,58.4s-1.6,5-2.8,6.2-2.8,3.8-2.8,3.8l1,1.7s6-11.2,6.1-11.5-1.6-.2-1.6-.2Z"/>
        <path class="cls-4" d="M635.1,70.4s.3.9,1.5.9,2.5-.8,2.5-.8l-.2-1,3.9-9.7-.3-2-3.9,8.9-1.6,3.1-.5-2.4c0-.2-.1-.4-.5-.1l-.3.2c-.2,0-.3.2-.4.4-.1.3-.2.6-.2.8v1.8Z"/>
        <path class="cls-3" d="M625.4,35.7s.6-2.4-.2-3.4c-.7-1-1.2-1.3-1-2.4s1.4-1.9,1.4-2.2-.3-2.6-1.2-2.9-1.8-1.2-2.2-1.3-2.4.1-3.5,1-2.7,3.3-3.3,3.6-1.8,1.6-2.1,2.6-.4,3.9-1,4.2-1.9,1.6-2.3,2.4-.2,4.7.2,5.4.6,3,.2,4.3.6,4.5.7,4.9,1.5,1.9,1.5,3.1-.6,2.7-.6,4.1,1.2,3.5,1.4,3.6,1.5-.6,1.7-1.1,0-.6,1.7-1.2,4-1.6,4-2.6-1.3-1.6.8-2.1c.7-.2,2-.5,2.2-3.2.2-2.3.2-5.7,1.7-6.4s1.9-1.5,2.5-3.5.3-2.4,1.5-3.9,2.6-3,2.2-5.2-.4-3.3-.2-4.1.9-2.6-.2-2.8-1.9,1.3-1.9,1.3c0,0-.8-.3-1,.6s-.7,2.3-1,3.1-1.8,4.2-1.8,4.2Z"/>
        <path class="cls-3" d="M644.2,24s-3.3-3.5-4.1-5.2-1.5-2.5.6-3.1,7.6,1.1,7.6,1.1c0,0,7.4,2.7,8.7,4.8s5.1,8.2,5.4,9.8,1.2,3.5,1.7,4.1,1.2,5,1,6.4.2,2,.4,2.4,0,1.5-.2,2.4-.3,1.4-.3,1.4l-1-1.1-.7-.9s-.3,0-2-.6-6.1-4.2-6.7-5.4-3.9-5.1-5.2-6.1-3.4-3.6-5.8-5.1c-2.4-1.5-6.4-4.3-7.7-5.9s-.2-4.4.2-4.9,1.5.3,1.5.3c0,0,3.5,3.6,4.8,4.5s1.7,1,1.7,1Z"/>
        <path class="cls-3" d="M643.9,55.6s-.9-.2-2.1-.5-2.1-.7-2.5-.4-1.1,2.1-.5,3,2.1,2.8,3,3.1,3.2,1,3.6,1.5,2.2,1.4,3.3,1.5,4.3.1,4.9-.4,1.4-.5,1.5-.9-.3-1.9-.6-2.3-.8-2-1.2-3.1-1.1-2.8-1.7-3.4-2-2.4-3.3-2.6-1.9-.5-2.4-.4-.2.9-.8.6-.9-.9-1.5-.2-1.3.9-1,2.1,1.3,2.4,1.3,2.4Z"/>
        <path class="cls-5" d="M630.3,27.8l-.9,2.2-.2-1.6v2.5c0,0-1.3,2.9-1.3,2.9,0,0-.5-1.1-.5-1.5s.1,1.9.1,1.9l-1.1,3.3s-.4-1.3-.4-1.8-.1.6-.2,1.2.1,1.5.1,1.5c0,0-1,2.8-1.4,3s-1-4.7-1.1-5.1,1.1-2.9,1.1-2.9c0,0,.6-.9,0-.4s-1,1.9-1,1.9l-.3.7-.4-3.6s.7-.6.7-1,.1-1.2-.1-.9,0,.6-.3,1l-.3.4-.2-2.5s1.3-.8,1.4-1.9-.1-1.6-.2-1.3.2.5-.2,1.3-.8,1.2-.8,1.2v-3.9s-.2.1-.3.6-.2,2.7-.2,2.7c0,0-1.7-1.2-2-1.4s-.7-.8-.9-1-.3.2-.2.4,2.9,2.4,3,2.5.3,4.6.3,4.6c0,0-1.8-.8-2.1-1.3s-2.2-3-2.7-3.1l-.5-.2s.8,1,1,1.3,1.4,1.5,1.5,1.8,1.6,1.5,2,1.7.7.5.7.5l.6,3.7s-1.9-1-2.8-1.9-3.9-4.5-3.8-3.5.7.8,1.1,1.3,3,2.9,3.4,3.3,2.1,1.3,2.1,1.3l.4,2.2.5,1.9-.7,1.3s0-.1-.2-.3c-.5-.7-1.8-2.3-2.8-2.6s-4.2-1-6.2-.9c-2,.2-2.9,0-2.9,0,0,0,.2.3.6.4s2.5-.2,3.1,0,5.3.9,5.5,1.1,2.4,2,2.4,2.4.2.7.2.7l-2,3.1s-4.1-.5-5.9.8-2.3,1.8-2.3,1.8c0,0,1.2-.6,2.2-1.2s2.7-.9,3.3-1.1,2.4.3,2.4.3l-2,4.8s-3.2,0-4.1.9-1.1,1.2-1.1,1.2c0,0,.6-.6,1.3-.9s2.4-.8,2.9-.9.8.1.8.1l-2.5,4.7s-2.1,1-2.7,1.4,0,.6,0,.6c0,0,1.4-.9,1.9-1.1s-1.3,3.2-1.3,3.2l5.2-8.5s1.1,1.3.8,2.1-.3,2.7-.3,2.7c0,0,.7-2.2.6-2.8s-.7-2.6-.7-2.6l2.4-5.5s.5,1.7.6,2.4.2,1,.2,1c0,0,.2-1.9,0-2s-.5-2.2-.5-2.2l1.9-3.3s1.9-2.4,2-2.7,2.1-2.2,3.1-3.2.4-.4.5-.6c.6-.7.8-1.3.8-1.3l-4.2,3.7,1.6-4.2s1.2-1.1,1.9-1.7.8-1.1.8-1.1c0,0-.3-.4-.5,0s-1.6,1.8-1.6,1.8c0,0,1.5-3.2,1.5-3.6s.2-1.9.2-1.9Z"/>
        <path class="cls-1" d="M630.2,37.4s-1.6,2-1.9,2.7-.6,2.5-.6,2.5l-.9,2.6s-1,.8-1.1,1.3-.2,1.6-.2,1.6c0,0-1.4,1.7-1.6,2.5s-.4,2.3-.4,2.3c0,0,.5,1.3-.5,1.9s-1.5,1-.6.1.5-2.3.4-2.8c-.2-.8-.1-2.6.1-3.2s1.2-2.2,2-2.9,1.1-1.3,1.1-1.3c0,0,0-1.3,0-1.9s-.4-1.4.2-2.1,3.8-3.3,3.8-3.3Z"/>
        <path class="cls-1" d="M654.7,40.1c-.6-1.1-3.9-5.1-5.2-6.1s-3.4-3.6-5.8-5.1c-2.4-1.5-6.4-4.3-7.7-5.9s5.6,1.8,7.8,4.3,2.5,2.2,3.5,2.8c2.8,1.6,5.4,5.3,5.4,5.3,0,0,2.6,5.8,2,4.6Z"/>
      </g>
    </g>
  </g>
</svg>