<?xml version="1.0" encoding="UTF-8"?>
<svg id="Layer_2" data-name="Layer 2" xmlns="http://www.w3.org/2000/svg" viewBox="0 0 710.7 229.8">
  <defs>
    <style>
      .cls-1 {
        fill: #6d6e71;
      }

      .cls-1, .cls-2, .cls-3, .cls-4, .cls-5 {
        stroke-width: 0px;
      }

      .cls-2 {
        fill: #808285;
      }

      .cls-3 {
        fill: #939598;
      }

      .cls-4 {
        fill: #bcbec0;
      }

      .cls-5 {
        fill: #d1d3d4;
      }
    </style>
  </defs>
  <g id="Layer_3" data-name="Layer 3">
    <g>
      <path class="cls-1" d="M235.2,160.5c-.4.3-.5,1-.2,1.5,2.2,4.4-.4,11.5-1.7,15.5-1.2,3.7-2.1,2.5-3.5,5.6-.8,1.8-2.4,12.3-1.4,10.5,1.5-3,2.2-8.5,3-9.5,2.3-3.1,3.3-2.2,5-5.1.6-1,1.4-.3,2.1.6,1.3,2-1.3,6.8-1.3,11.1s.9,12.7,2.7,16.1c.5,0,1.4,5.7,1.9,5.5.7-3.3-3-11.8-2.4-15.3s.5-4.7.3-8.6,3.2-7.5,2.5-10.3-3.4-4.3-3.4-6.9.2-.2.7-.3.6,0,.7,0c.4-.1,2.4.7,2.7,1,2.4,2.3,7.2,1.9,9.1,2.5s-1.5-2.4-2.8-1.9c-2.8,1.1-7-1.9-7.5-2.4-.9-1-4.8.3-3.5-1.9,1.1-1.9,0-5.5,0-7.3s-.6-1.3-1.3-1.2c-.3,0-.6,0-.9.2s-.6.3-.8.6,0,.1-.1.1Z"/>
      <path class="cls-1" d="M496.1,158.2c-.4.3-.5,1-.2,1.5,2.2,4.4-.4,11.5-1.7,15.5-1.2,3.7-2.1,2.5-3.5,5.6-.8,1.8-2.4,12.3-1.4,10.5,1.5-3,2.2-8.5,3-9.5,2.3-3.1,3.3-2.2,5-5.1s1.4-.3,2.1.6c1.3,2-1.3,6.8-1.3,11.1s.9,12.7,2.7,16.1c.5,0,1.4,5.7,1.9,5.5.7-3.3-3-11.8-2.4-15.3.6-3.4.5-4.7.3-8.6s3.2-7.5,2.5-10.3-3.4-4.3-3.4-6.9.2-.2.7-.3.6,0,.7,0c.4-.1,2.4.7,2.7,1,2.4,2.3,7.2,1.9,9.1,2.5s-1.5-2.4-2.8-1.9c-2.8,1.1-7-1.9-7.5-2.4-.9-1-4.8.3-3.5-1.9s0-5.5,0-7.3-.6-1.3-1.3-1.2-.6,0-.9.2-.6.3-.8.6,0,.1-.1.1Z"/>
      <path class="cls-1" d="M442,153c7.1-5.3,3.6.9,3.1,7.5s6.9,20,7.2,23.3c.7,7.5,2.3,7.1,5.5,13.5s-2.7,13-.7,17.7c-5,0-2.6-13.9-4.8-17.3-1.8-2.7-3.8-14.9-5.8-15.4-3.8,5.5,4.3,16,1.9,22.4.1-3-2.3-6-3.6-8-1.7,3.9,0,12-2.9,16.4-4.3-5.1,5.6-23.9-2.3-24.4-.2,2.9-2.6,4.2-2.9,7.1s-2.3,5.1-3.4,8c-2.2,6.2.7,10.8-.2,16.9-.3.2-.6.4-1,.4-1.1-5.3-4.1-11.2-3-16.8s5.1-18.6,6.7-24.2,4.6-1.2,5.1-6.7-1-15.4,1-20.2c1,0,.7-1.5,0,0Z"/>
      <path class="cls-3" d="M320.8,147.8c0,3.7.3,6.1,1.1,9.8s-.4,2.6.1,5.4c1.1,5.6-.7,9,.4,14.9,6.6.3,8.9,1.1,14.3,3.5s11-3,16.8-1.7c-4.9,0-11.8,4.8-16.4,3.4-5.7-1.6-7.5-3.1-14.2-2.8-.3.8.5,6.7.8,7.4,4.3-.7,6.8-.7,10.5.2s9.7.7,14.1.6c2,0,4,0,5.8-.5,3.5-.8,2.6-1.2,5.2-2.5,2.6-1.4,2.6-1.4,5.4-2.5-4.6,1.6-3.2,3.7-7.1,5.4-3.2,1.4-6.7,1.5-10.5,1.9-7.9.9-15.5,0-23.1-.4-.3,1.3-1.1,4.3-.8,5.6,3.2.1.3,16.1,5.5,21.7-2.3,0-3.6-5.6-5.6-9.6-4.5,6.4,2.6,14.9,1.9,22.1-8.6-6.4-1.9-21.1-5.7-29.8-1.8,4.6-2.6,13.7-6.3,17.5-1.3-5.3,5.4-9.1,3.1-14.7-1.9,3.5-7,3.3-9.2,6.7-1.2-3.2,6.5-5.9,7.7-9.3,5.4.5,5.9-10.3,6.1-14s.6-.4-1-3c-1.4-2.1-5.1-1.2-9.2,1.5s-7,5.8-10.6,7.4c2.7-2.8,7.5-7.4,11.3-9.3,5.7-2.9,8.6-2.1,8.4-4.9-.8-10.3.7-9.9-2.1-11.2-2.1.6-5.2-1.6-6.3-.3,1-2.3,5.6-.8,6.3-2.2s.9-9.9,1-11.8c.2-3.6-.3-1.5,2.1-4.6Z"/>
      <path class="cls-1" d="M147.5,158.2c-.7.3-.7,1-.3,1.5,3.2,4.4-.6,11.5-2.5,15.5s-3.1,2.5-5.3,5.6c-1.3,1.8-3.6,12.3-2.2,10.5,2.3-3,3.3-8.5,4.5-9.5,3.5-3.1,5-2.2,7.5-5.1.9-1,2.2-.3,3.1.6,2,2-2,6.8-2,11.1s1.4,12.7,4,16.1c.8,0,2.1,5.7,2.9,5.5,1.1-3.3-4.5-11.8-3.5-15.3s.7-4.7.5-8.6,4.8-7.5,3.8-10.3c-1-2.6-5.1-4.3-5.2-6.9s.3-.2,1-.3.9,0,1.1,0c.6-.1,3.5.7,4,1,3.6,2.3,10.8,1.9,13.7,2.5,2,.4-2.2-2.4-4.2-1.9-4.2,1.1-10.5-1.9-11.2-2.4-1.3-1-7.1.3-5.2-1.9s0-5.5,0-7.3-.9-1.3-1.9-1.2-.9,0-1.3.2-.9.3-1.1.6,0,.1-.2.1Z"/>
      <path class="cls-4" d="M534.3,159.9c.5.4.5,1.2.3,1.7-2.6,5.3.5,13.7,2,18.5,1.4,4.4,2.5,3,4.2,6.6s2.8,14.7,1.7,12.5c-1.8-3.6-2.7-10.1-3.6-11.4-2.8-3.6-4-2.7-6-6.1-.7-1.2-1.7-.4-2.5.8-1.6,2.4,1.6,8.1,1.6,13.2s-1.1,15.1-3.2,19.2c-.6,0-1.7,6.8-2.3,6.6-.9-3.9,3.6-14.1,2.8-18.3-.7-4.1-.5-5.7-.4-10.3s-3.9-8.9-3-12.3,4-5.1,4.1-8.2-.3-.2-.8-.4-.7,0-.9,0c-.5-.2-2.8.9-3.2,1.2-2.9,2.8-8.6,2.3-10.9,3-1.6.5,1.7-2.9,3.3-2.3,3.3,1.3,8.4-2.3,8.9-2.9,1-1.2,5.7.3,4.1-2.2s0-6.6,0-8.8.7-1.5,1.5-1.4.7.1,1,.2.7.4.9.7,0,.1.1.2Z"/>
      <path class="cls-4" d="M127.3,155.4c7.1-5.8,3.6.9,3.1,8.1s6.9,21.6,7.2,25.2c.7,8.1,2.3,7.7,5.5,14.6,2.3,5.1-2.7,14.1-.7,19.1-5,0-2.6-15-4.8-18.7-1.8-3-3.8-16.1-5.8-16.6-3.8,5.9,4.3,17.3,1.9,24.2.1-3.3-2.3-6.5-3.6-8.6-1.7,4.2,0,13-2.9,17.7-4.3-5.6,5.6-25.9-2.3-26.5-.2,3.2-2.6,4.5-2.9,7.7s-2.3,5.5-3.4,8.6c-2.2,6.7.7,11.7-.2,18.3-.3.2-.6.4-1,.5-1.1-5.7-4.1-12.1-3-18.2s5.1-20.1,6.7-26.2,4.6-1.3,5.1-7.3c.6-5.7-1-16.7,1-21.8,1,0,.7-1.6,0,0Z"/>
      <path class="cls-1" d="M672.4,158.6c4.9-3.7,2.5.6,2.1,5.2s4.7,14,4.9,16.2c.5,5.2,1.6,5,3.8,9.4,1.6,3.3-1.8,9.1-.5,12.3-3.4,0-1.8-9.7-3.3-12.1s-2.6-10.4-4-10.7c-2.6,3.8,3,11.2,1.3,15.6,0-2.1-1.6-4.2-2.5-5.6-1.1,2.7,0,8.4-2,11.4-3-3.6,3.9-16.7-1.6-17.1-.1,2-1.8,2.9-2,4.9s-1.6,3.5-2.3,5.6c-1.5,4.3.5,7.6-.1,11.8-.2.2-.4.3-.7.3-.8-3.7-2.8-7.8-2.1-11.7s3.5-13,4.6-16.9,3.1-.8,3.5-4.7-.7-10.8.7-14.1c.7,0,.5-1,0,0Z"/>
      <path class="cls-1" d="M34.3,162.6c-.4.3-.5,1-.2,1.5,2.2,4.4-.4,11.5-1.7,15.5-1.2,3.7-2.1,2.5-3.5,5.6-.8,1.8-2.4,12.3-1.4,10.5,1.5-3,2.2-8.5,3-9.5,2.3-3.1,3.3-2.2,5-5.1s1.4-.3,2.1.6c1.3,2-1.3,6.8-1.3,11.1s.9,12.7,2.7,16.1c.5,0,1.4,5.7,1.9,5.5.7-3.3-3-11.8-2.4-15.3.6-3.4.5-4.7.3-8.6s3.2-7.5,2.5-10.3-3.4-4.3-3.4-6.9.2-.2.7-.3.6,0,.7,0c.4-.1,2.4.7,2.7,1,2.4,2.3,7.2,1.9,9.1,2.5s-1.5-2.4-2.8-1.9c-2.8,1.1-7-1.9-7.5-2.4-.9-1-4.8.3-3.5-1.9s0-5.5,0-7.3-.6-1.3-1.3-1.2-.6,0-.9.2-.6.3-.8.6,0,.1-.1.1Z"/>
      <path class="cls-1" d="M318.9,110.2c1.7-3.7,11.2-16.3,14.9-19.4,3.7-3.1,9.8-11.5,16.7-16.2,6.9-4.7,18.4-13.7,22.2-18.7,3.8-5-16.1,5.9-22.3,13.7-7.8,9.9-7.3,7.1-10.1,8.9-8.1,5.2-15.5,17-15.5,17,0,0-7.5,18.5-5.8,14.8Z"/>
      <g>
        <path class="cls-1" d="M24.6,98.8s12.4,39.1,11.9,44.2c-.6,5.1,0-26.2,1.9-27,1.9-.8,8-16.4,8-16.4l7.3-4.1s-6.1,6.3-8,12.3-6.1,17.6-6.5,21.7c-.4,4.1,1.9,25.8,2.3,27.4s-11.1,2.7-11.1.4.2-28.7-1.1-32.4c-1.3-3.7-4-20.3-6.1-22.1s1.5-4.1,1.5-4.1Z"/>
        <path class="cls-1" d="M23.4,92.2s-3.6-7.2-6.5-4.9c-2.9,2.3-9.8,7.8-9.6,10.6.2,2.9-8.2,23.5-7.3,35.6,1,12.1,6.1-3.3,6.1-3.3,0,0,4.6-3.7,7.7-5.7,3.1-2,21.6-29.9,20.3-31.9-1.3-2-10.7-.4-10.7-.4Z"/>
        <path class="cls-1" d="M46.4,99.6s8.8,0,11.1,2c2.3,2,9.4,13.9,10.3,15.2s5.7,9.4,7.7,9,1.5-18.8-.4-21.7c-1.9-2.9-16.1-14.7-18.4-14.7s-10.3,10.2-10.3,10.2Z"/>
      </g>
      <g>
        <path class="cls-1" d="M136.8,75.6s12.4,51.8,11.9,58.6c-.6,6.8,0-34.7,1.9-35.8,1.9-1.1,8-21.7,8-21.7l7.3-5.4s-6.1,8.4-8,16.3-6.1,23.3-6.5,28.7c-.4,5.4,1.9,34.2,2.3,36.3s-11.1,3.5-11.1.5.2-38-1.1-42.8-4-26.8-6.1-29.3,1.5-5.4,1.5-5.4Z"/>
        <path class="cls-1" d="M135.7,66.9s-3.6-9.5-6.5-6.5c-2.9,3-9.8,10.3-9.6,14.1.2,3.8-8.2,31.2-7.3,47.2,1,16,6.1-4.3,6.1-4.3,0,0,4.6-4.9,7.7-7.6,3.1-2.7,21.6-39.6,20.3-42.3-1.3-2.7-10.7-.5-10.7-.5Z"/>
        <path class="cls-1" d="M158.6,76.6s8.8,0,11.1,2.7c2.3,2.7,9.4,18.4,10.3,20.1,1,1.6,5.7,12.5,7.7,11.9s1.5-24.9-.4-28.7c-1.9-3.8-16.1-19.5-18.4-19.5s-10.3,13.6-10.3,13.6Z"/>
      </g>
      <g>
        <path class="cls-1" d="M106.1,40.1l-1.5,2.2s1.5,6.2,1.1,12.3-2.7,20.8-1.9,23.9,1.1,20,1.1,20l1.1,4,3.7-.8s-2.6-3.5-2.2-6.5-1-18.9-.4-22.2.2-10.8.6-14.2c.4-3.3-.2-10.5-.4-12.7s-1.1-6.1-1.1-6.1Z"/>
        <path class="cls-1" d="M130.4,134.9v9.4l-4.3-4.3s.1-3-2.3-12.4c-2.4-9.4-1.2-12.4-1.2-12.4,0,0,1.4,5.1,2,7.8s1.6,7.1,2.9,9.7c1.3,2.6,2.9,2.2,2.9,2.2Z"/>
        <path class="cls-1" d="M129.5,135l1.1,20.6,3.2-1s-3.2-32.8-3-34.6-1.9,0-1.9,0l.6,15Z"/>
        <path class="cls-1" d="M130.6,125.1s3.6-5.9,2.2-8.7-1-7,.2-10.9c1.2-3.9,1.4-14.5,1.5-19.4s-.4-19,.9-21.6c1.3-2.6,2.4-14.9,3-18,.6-3.1,1.4-9.2.6-12.1s-4.3-4-4.3-4c0,0-1.1-.9,1.1,1.8s1.9,4.5,1.7,7.9-2.8,13.4-2.8,14.6-4.2,15.6-4.3,16.2-2.2,9-2.4,13.9-1.8,15.2-1.5,19.6,1.7,10.7,1.7,10.7c0,0-.5-.5-.9,2.2s-1,5,.2,6.5c1.2,1.5,3,1.4,3,1.4Z"/>
        <path class="cls-2" d="M157.5,77.4s-14,25.3-16.6,33.2c-2.6,7.9-9.9,29.1-9.9,29.1l-1.9,9.7,2.2,4.4s.2-5.5,1.5-8.9,7.9-26.4,9.7-30.7c1.8-4.3,11.5-25.1,12.3-26.7s1.9-5.1,3-7.1-.2-3-.2-3Z"/>
        <path class="cls-3" d="M118.6,121.4s4.3,14.3,7.5,17.5,7.5,10.8,7.5,10.8l-2.6,4.9s-16.2-31.7-16.7-32.6,4.3-.5,4.3-.5Z"/>
        <path class="cls-4" d="M135.6,155.4s-.9,2.6-4,2.4-6.9-2.2-6.9-2.2l.6-3-10.6-27.5.9-5.7,10.6,25.1,4.3,8.9,1.3-6.8c.1-.6.3-1.1,1.4-.3l.9.5c.5.3.8.7,1,1.2.3.9.6,1.8.6,2.2v5.1Z"/>
        <path class="cls-3" d="M161.8,57.2s-1.5-6.8.4-9.7c1.9-2.9,3.3-3.6,2.8-6.7s-3.7-5.4-3.7-6.3.9-7.5,3.2-8.1,4.9-3.5,6-3.6c1.2-.1,6.5.4,9.5,2.8,3,2.4,7.4,9.4,8.8,10.1s5,4.4,5.8,7.3,1.2,10.9,2.6,11.9c1.4,1,5.3,4.4,6.3,6.7s.5,13.2-.4,15.4-1.6,8.4-.4,12.1-1.5,12.6-1.9,13.7-4.1,5.5-4.1,8.7,1.7,7.8,1.7,11.5-3.2,9.8-3.7,10.3-4.1-1.7-4.7-3,.2-1.8-4.5-3.4-10.8-4.4-10.8-7.5,3.6-4.5-2.2-6.1c-2-.5-5.4-1.4-6-9.1-.6-6.5-.6-16.1-4.5-18s-5.3-4.3-6.7-9.9-.8-6.8-4.1-11.1c-3.3-4.3-7-8.5-6-14.8s1-9.4.4-11.7-2.4-7.5.4-7.9c2.8-.4,5.2,3.6,5.2,3.6,0,0,2-.8,2.8,1.8s1.9,6.6,2.8,8.9,5,11.9,5,11.9Z"/>
        <path class="cls-3" d="M110.9,24s9-9.9,11-14.8c2-4.9,4.1-7.2-1.7-8.9-5.8-1.7-20.7,3-20.7,3,0,0-20.2,7.8-23.7,13.5s-13.8,23.4-14.7,27.7c-.9,4.3-3.2,10-4.5,11.7s-3.1,14.3-2.6,18.2-.6,5.7-1.1,6.9,0,4.1.4,6.9.9,4,.9,4l2.8-3.2,1.9-2.6s.8-.1,5.4-1.8,16.5-11.9,18.1-15.2c1.6-3.2,10.6-14.5,14-17.2,3.5-2.7,9.3-10.2,15.7-14.4,6.5-4.1,17.4-12.1,20.9-16.6,3.6-4.4.5-12.3-.4-13.7s-4.1.8-4.1.8c0,0-9.4,10.1-12.9,12.7-3.6,2.6-4.7,2.8-4.7,2.8Z"/>
        <path class="cls-3" d="M111.6,113.4s2.4-.7,5.6-1.4,5.6-2.1,6.7-1c1.1,1.1,2.9,5.9,1.3,8.5-1.6,2.6-5.8,8-8.2,8.9-2.4.9-8.7,2.9-9.7,4.2-1,1.3-5.9,4-9.1,4.2s-11.5.3-13.2-1c-1.6-1.3-3.7-1.4-4.1-2.4s.9-5.3,1.7-6.5,2.3-5.8,3.2-8.9,3-8,4.7-9.7c1.7-1.7,5.4-6.8,9.1-7.3s5.1-1.3,6.5-1.2c1.4.1.6,2.5,2.2,1.6s2.5-2.5,4.1-.6c1.6,1.9,3.5,2.5,2.6,5.9s-3.5,6.7-3.5,6.7Z"/>
        <path class="cls-5" d="M148.6,34.9l2.4,6.3.6-4.4v7.1c.1,0,3.6,8.2,3.6,8.2,0,0,1.4-3.2,1.3-4.3s-.3,5.4-.3,5.4l2.9,9.4s1-3.6,1-5.1.4,1.7.4,3.4-.3,4.2-.3,4.2c0,0,2.7,8,3.7,8.6s2.8-13.3,3-14.4-2.9-8.2-2.9-8.2c0,0-1.5-2.6,0-1.2,1.5,1.4,2.6,5.3,2.6,5.3l.9,1.9,1-10.2s-2-1.7-2-2.7-.4-3.5.3-2.6,0,1.8.9,2.8l.8,1.1.6-7s-3.5-2.4-3.7-5.3.3-4.4.6-3.8-.6,1.5.4,3.6c1,2.1,2.2,3.4,2.2,3.4v-11.1s.6.4.7,1.6.6,7.5.6,7.5c0,0,4.5-3.4,5.5-4s2-2.2,2.4-3,.8.5.6,1.1-7.8,6.8-8.1,7.1-.7,12.9-.7,12.9c0,0,4.9-2.2,5.8-3.6.9-1.4,6-8.4,7.3-8.9l1.3-.5s-2.2,2.8-2.7,3.8-3.7,4.2-4,5-4.2,4.3-5.3,4.9-2,1.5-2,1.5l-1.7,10.5s5-3,7.6-5.3c2.6-2.3,10.6-12.6,10.2-9.8s-1.9,2.2-3,3.8c-1.1,1.5-8.1,8.2-9.2,9.3-1.2,1.1-5.6,3.8-5.6,3.8l-1.2,6.3-1.3,5.3,1.9,3.8s.2-.4.6-.9c1.4-2,4.9-6.6,7.7-7.3,3.7-.9,11.4-2.9,16.8-2.4,5.5.5,7.9,0,7.9,0,0,0-.6.9-1.6,1.1s-6.9-.5-8.5-.3c-1.6.3-14.5,2.6-15,3.1s-6.4,5.5-6.6,6.7-.4,2-.4,2l5.3,8.8s11-1.3,16,2.3c5,3.6,6.2,5.1,6.2,5.1,0,0-3.2-1.6-6-3.5-2.9-1.9-7.3-2.6-9.1-3.1-1.7-.5-6.5.8-6.5.8l5.5,13.5s8.6.2,11.1,2.4c2.4,2.2,3,3.5,3,3.5,0,0-1.7-1.6-3.6-2.6-1.9-.9-6.4-2.4-7.9-2.4s-2.3.4-2.3.4l6.8,13.2s5.8,2.8,7.2,4c1.4,1.3.1,1.6.1,1.6,0,0-3.8-2.6-5-3.2-1.2-.6,3.6,9,3.6,9l-14.1-24s-2.9,3.7-2.2,5.9c.8,2.2.7,7.5.7,7.5,0,0-1.8-6.3-1.7-8s2-7.4,2-7.4l-6.5-15.6s-1.4,4.9-1.6,6.7-.6,2.7-.6,2.7c0,0-.5-5.3-.1-5.8s1.3-6.2,1.3-6.2l-5-9.3s-5.1-6.9-5.3-7.5-5.8-6.3-8.5-9c-.6-.6-1-1.1-1.4-1.6-1.6-2-2.2-3.6-2.2-3.6l11.4,10.5-4.3-12s-3.4-3.1-5-4.9-2.2-3.2-2.2-3.2c0,0,.7-1.1,1.3-.3s4.5,5.1,4.5,5.1c0,0-4.1-9.1-4.2-10.1s-.6-5.3-.6-5.3Z"/>
        <path class="cls-1" d="M148.8,61.8s4.4,5.8,5,7.5,1.5,7,1.5,7l2.5,7.4s2.7,2.2,2.9,3.8.4,4.6.4,4.6c0,0,3.7,4.8,4.3,7s1,6.5,1,6.5c0,0-1.2,3.6,1.4,5.3.8.5,4,2.8,1.6.4s-1.4-6.6-1.2-7.9c.5-2.4.4-7.3-.3-9.2s-3.4-6.2-5.4-8.3c-2-2.1-2.9-3.6-2.9-3.6,0,0-.1-3.7,0-5.3s1-4-.6-6.1c-1.6-2.1-10.4-9.3-10.4-9.3Z"/>
        <path class="cls-1" d="M82.5,69.5c1.6-3.2,10.6-14.5,14-17.2,3.5-2.7,9.3-10.2,15.7-14.4,6.5-4.1,17.4-12.1,20.9-16.6,3.6-4.4-15.2,5.2-21,12.1-7.4,8.8-6.9,6.3-9.5,7.8-7.7,4.6-14.6,15-14.6,15,0,0-7.1,16.3-5.5,13.1Z"/>
      </g>
      <g>
        <path class="cls-1" d="M341.4,48.7l1.3,2s-1.3,5.6-.9,11.2c.4,5.6,2.3,18.9,1.7,21.6s-.9,18.2-.9,18.2l-.9,3.7-3.1-.7s2.2-3.2,1.8-5.9.8-17.1.4-20.2-.2-9.8-.6-12.8.2-9.5.4-11.6.9-5.5.9-5.5Z"/>
        <path class="cls-1" d="M320.8,134.7v8.6s3.7-3.9,3.7-3.9c0,0-.1-2.7,2-11.2,2.1-8.6,1-11.2,1-11.2,0,0-1.2,4.6-1.7,7.1s-1.3,6.5-2.4,8.8-2.4,2-2.4,2Z"/>
        <path class="cls-1" d="M321.6,134.8l-.9,18.7-2.8-.9s2.8-29.7,2.6-31.4,1.7,0,1.7,0l-.6,13.6Z"/>
        <path class="cls-1" d="M320.7,125.8s-3-5.3-1.8-7.9c1.2-2.6.8-6.3-.2-9.9-1-3.6-1.2-13.1-1.3-17.6,0-4.5.4-17.2-.7-19.6s-2-13.5-2.6-16.3c-.6-2.8-1.2-8.3-.6-11s3.7-3.7,3.7-3.7c0,0,.9-.8-.9,1.7-1.8,2.5-1.7,4.1-1.5,7.2s2.4,12.2,2.4,13.2,3.6,14.1,3.7,14.7,1.8,8.2,2,12.7c.2,4.5,1.6,13.8,1.3,17.8s-1.5,9.7-1.5,9.7c0,0,.5-.5.7,2s.8,4.5-.2,5.9c-1,1.4-2.6,1.3-2.6,1.3Z"/>
        <path class="cls-2" d="M297.8,82.5s11.9,22.9,14.1,30.1,8.4,26.4,8.4,26.4l1.7,8.8-1.8,4s-.2-5-1.3-8.1-6.7-23.9-8.3-27.9-9.8-22.7-10.5-24.2-1.7-4.6-2.6-6.4c-.9-1.8.2-2.8.2-2.8Z"/>
        <path class="cls-3" d="M330.9,122.4s-3.7,13-6.4,15.9c-2.7,2.9-6.4,9.8-6.4,9.8l2.2,4.4s13.8-28.7,14.2-29.6-3.7-.5-3.7-.5Z"/>
        <path class="cls-4" d="M316.4,153.2s.7,2.3,3.4,2.2,5.9-2,5.9-2l-.5-2.7,9-24.9-.7-5.1-9,22.7-3.7,8.1-1.1-6.2c-.1-.6-.2-1-1.2-.3l-.8.5c-.4.3-.7.6-.8,1.1-.3.8-.5,1.7-.5,2v4.6Z"/>
        <path class="cls-3" d="M294.1,64.2s1.3-6.1-.4-8.8c-1.7-2.7-2.8-3.3-2.4-6.1.5-2.8,3.1-4.9,3.1-5.7s-.7-6.8-2.8-7.3-4.1-3.2-5.1-3.3c-1,0-5.5.4-8.1,2.6-2.6,2.2-6.3,8.5-7.5,9.2s-4.2,4-5,6.6c-.7,2.6-1,9.9-2.2,10.8-1.2.9-4.5,4-5.3,6.1-.8,2-.5,12,.4,13.9s1.4,7.6.4,11c-1,3.4,1.3,11.5,1.7,12.5s3.5,5,3.5,7.9-1.5,7.1-1.5,10.5,2.8,8.9,3.1,9.4,3.5-1.6,4-2.8-.2-1.7,3.9-3.1c4-1.5,9.2-4,9.2-6.8s-3.1-4.1,1.8-5.5c1.7-.5,4.6-1.3,5.1-8.3.5-5.9.6-14.6,3.9-16.3,3.3-1.7,4.5-3.9,5.7-9,1.2-5,.6-6.1,3.5-10.1,2.8-3.9,6-7.7,5.1-13.4-.8-5.7-.8-8.5-.4-10.6s2-6.8-.4-7.2c-2.4-.4-4.4,3.3-4.4,3.3,0,0-1.7-.7-2.4,1.7s-1.7,6-2.4,8.1-4.2,10.8-4.2,10.8Z"/>
        <path class="cls-3" d="M337.4,34.1s-7.6-9-9.4-13.4c-1.7-4.4-3.5-6.5,1.5-8.1,5-1.6,17.6,2.8,17.6,2.8,0,0,17.1,7.1,20.2,12.3,3,5.2,11.7,21.2,12.5,25.1s2.8,9.1,3.9,10.6c1.1,1.6,2.7,12.9,2.2,16.5s.6,5.1.9,6.2c.4,1.1,0,3.8-.4,6.2s-.7,3.7-.7,3.7l-2.4-2.9-1.7-2.4s-.6,0-4.6-1.7c-3.9-1.6-14-10.8-15.4-13.8-1.4-2.9-9-13.1-11.9-15.6s-7.9-9.3-13.4-13c-5.5-3.8-14.8-11-17.8-15s-.5-11.2.4-12.5c.8-1.3,3.5.7,3.5.7,0,0,8,9.2,11,11.6,3,2.4,4,2.6,4,2.6Z"/>
        <path class="cls-3" d="M336.8,115.2s-2-.6-4.8-1.3-4.8-1.9-5.7-.9-2.5,5.3-1.1,7.7,5,7.2,7,8.1c2,.8,7.4,2.7,8.3,3.9s5,3.7,7.7,3.9c2.7.2,9.8.3,11.2-.9,1.4-1.2,3.1-1.3,3.5-2.2s-.7-4.8-1.5-5.9-1.9-5.2-2.8-8.1-2.6-7.2-4-8.8c-1.5-1.6-4.6-6.1-7.7-6.6-3.1-.5-4.3-1.2-5.5-1.1s-.6,2.3-1.8,1.5c-1.3-.8-2.1-2.3-3.5-.6s-2.9,2.3-2.2,5.3c.7,3,2.9,6.1,2.9,6.1Z"/>
        <path class="cls-5" d="M305.3,43.9l-2.1,5.7-.5-4v6.5c-.1,0-3.1,7.5-3.1,7.5,0,0-1.2-2.9-1.1-3.9s.2,4.9.2,4.9l-2.4,8.6s-.9-3.3-.9-4.6-.3,1.5-.4,3.1.2,3.8.2,3.8c0,0-2.3,7.2-3.2,7.8s-2.4-12.1-2.6-13.1,2.4-7.5,2.4-7.5c0,0,1.3-2.4,0-1.1-1.3,1.3-2.2,4.8-2.2,4.8l-.7,1.7-.9-9.3s1.7-1.5,1.7-2.4.3-3.2-.2-2.3,0,1.6-.7,2.6l-.7,1-.6-6.4s3-2.1,3.2-4.8-.2-4-.5-3.4.5,1.4-.4,3.3c-.9,1.9-1.8,3.1-1.8,3.1v-10s-.6.4-.6,1.5-.5,6.8-.5,6.8c0,0-3.9-3.1-4.6-3.7s-1.7-2-2.1-2.7-.7.4-.5,1,6.7,6.2,6.8,6.5.6,11.7.6,11.7c0,0-4.2-2-4.9-3.3-.7-1.3-5.1-7.6-6.2-8.1l-1.1-.5s1.8,2.5,2.3,3.4,3.2,3.8,3.4,4.5,3.6,3.9,4.5,4.4,1.7,1.3,1.7,1.3l1.5,9.5s-4.3-2.7-6.5-4.8c-2.2-2.1-9-11.4-8.7-8.9s1.7,2,2.6,3.4c.9,1.4,6.8,7.4,7.8,8.4,1,1,4.8,3.4,4.8,3.4l1,5.7,1.1,4.8-1.6,3.4s-.2-.3-.5-.9c-1.2-1.8-4.1-6-6.6-6.6s-9.7-2.6-14.3-2.2c-4.6.4-6.7,0-6.7,0,0,0,.6.9,1.3,1s5.9-.5,7.2-.2c1.3.2,12.3,2.4,12.7,2.8s5.4,5,5.6,6.1.4,1.8.4,1.8l-4.5,7.9s-9.4-1.2-13.6,2.1c-4.2,3.2-5.3,4.6-5.3,4.6,0,0,2.7-1.5,5.1-3.2,2.4-1.7,6.2-2.4,7.7-2.8,1.5-.4,5.5.7,5.5.7l-4.6,12.2s-7.3.2-9.4,2.2c-2.1,2-2.6,3.2-2.6,3.2,0,0,1.5-1.5,3.1-2.3,1.6-.9,5.4-2.1,6.7-2.2,1.3,0,2,.4,2,.4l-5.7,12s-4.9,2.5-6.1,3.7c-1.2,1.2-.1,1.5-.1,1.5,0,0,3.2-2.4,4.3-2.9s-3.1,8.2-3.1,8.2l12-21.8s2.5,3.4,1.8,5.4c-.7,2-.6,6.8-.6,6.8,0,0,1.5-5.7,1.5-7.2s-1.7-6.7-1.7-6.7l5.5-14.2s1.2,4.4,1.3,6.1.5,2.4.5,2.4c0,0,.4-4.8.1-5.3s-1.1-5.6-1.1-5.6l4.3-8.4s4.3-6.2,4.5-6.8,4.9-5.7,7.2-8.2c.5-.5.9-1,1.2-1.5,1.4-1.9,1.8-3.3,1.8-3.3l-9.7,9.5,3.7-10.9s2.9-2.8,4.3-4.4c1.4-1.6,1.8-2.9,1.8-2.9,0,0-.6-1-1.1-.2-.5.7-3.8,4.6-3.8,4.6,0,0,3.5-8.3,3.5-9.2s.5-4.8.5-4.8Z"/>
        <path class="cls-1" d="M305.2,68.4s-3.7,5.3-4.3,6.8-1.3,6.4-1.3,6.4l-2.1,6.7s-2.3,2-2.4,3.4-.4,4.2-.4,4.2c0,0-3.2,4.3-3.7,6.4-.5,2-.9,5.9-.9,5.9,0,0,1,3.2-1.2,4.8-.7.5-3.4,2.5-1.3.4s1.2-6,1-7.2c-.4-2.1-.3-6.6.2-8.3s2.9-5.6,4.6-7.5c1.7-1.9,2.5-3.2,2.5-3.2,0,0,.1-3.4,0-4.8s-.9-3.6.5-5.5,8.8-8.4,8.8-8.4Z"/>
        <path class="cls-1" d="M361.6,75.4c-1.4-2.9-9-13.1-11.9-15.6s-7.9-9.3-13.4-13c-5.5-3.8-14.8-11-17.8-15s12.9,4.7,17.9,11,5.8,5.7,8.1,7.1c6.5,4.2,12.5,13.6,12.5,13.6,0,0,6,14.8,4.7,11.9Z"/>
      </g>
      <g>
        <path class="cls-1" d="M662.8,103.3s11.4,35.9,10.9,40.6c-.5,4.7,0-24.1,1.8-24.8s7.4-15,7.4-15l6.7-3.8s-5.6,5.8-7.4,11.3c-1.8,5.5-5.6,16.2-6,19.9-.4,3.8,1.8,23.7,2.1,25.2s-10.2,2.4-10.2.4.2-26.3-1.1-29.7-3.7-18.6-5.6-20.3,1.4-3.8,1.4-3.8Z"/>
        <path class="cls-1" d="M661.8,97.3s-3.3-6.6-6-4.5c-2.6,2.1-9,7.1-8.8,9.8s-7.6,21.6-6.7,32.7c.9,11.1,5.6-3,5.6-3,0,0,4.2-3.4,7-5.3,2.8-1.9,19.9-27.4,18.6-29.3-1.2-1.9-9.8-.4-9.8-.4Z"/>
        <path class="cls-1" d="M682.9,104s8.1,0,10.2,1.9c2.1,1.9,8.6,12.8,9.5,13.9.9,1.1,5.3,8.6,7,8.3,1.8-.4,1.4-17.3-.4-19.9-1.8-2.6-14.8-13.5-16.9-13.5s-9.5,9.4-9.5,9.4Z"/>
      </g>
      <g>
        <path class="cls-1" d="M394.1,98.9s11.4,35.9,10.9,40.6c-.5,4.7,0-24.1,1.8-24.8,1.8-.8,7.4-15,7.4-15l6.7-3.8s-5.6,5.8-7.4,11.3c-1.8,5.5-5.6,16.2-6,19.9-.4,3.8,1.8,23.7,2.1,25.2s-10.2,2.4-10.2.4.2-26.3-1.1-29.7-3.7-18.6-5.6-20.3c-1.9-1.7,1.4-3.8,1.4-3.8Z"/>
        <path class="cls-1" d="M393.1,92.8s-3.3-6.6-6-4.5c-2.6,2.1-9,7.1-8.8,9.8.2,2.6-7.6,21.6-6.7,32.7.9,11.1,5.6-3,5.6-3,0,0,4.2-3.4,7-5.3,2.8-1.9,19.9-27.4,18.6-29.3-1.2-1.9-9.8-.4-9.8-.4Z"/>
        <path class="cls-1" d="M414.2,99.6s8.1,0,10.2,1.9c2.1,1.9,8.6,12.8,9.5,13.9.9,1.1,5.3,8.6,7,8.3,1.8-.4,1.4-17.3-.4-19.9-1.8-2.6-14.8-13.5-16.9-13.5s-9.5,9.4-9.5,9.4Z"/>
      </g>
      <g>
        <path class="cls-1" d="M598.4,94.1s12,42.2,11.4,47.7c-.6,5.5,0-28.3,1.8-29.2,1.8-.9,7.8-17.7,7.8-17.7l7-4.4s-5.9,6.8-7.8,13.3c-1.8,6.4-5.9,19-6.3,23.4-.4,4.4,1.8,27.8,2.2,29.6s-10.7,2.9-10.7.4.2-30.9-1.1-34.9-3.9-21.9-5.9-23.9,1.5-4.4,1.5-4.4Z"/>
        <path class="cls-1" d="M597.3,87.1s-3.5-7.7-6.3-5.3-9.4,8.4-9.2,11.5c.2,3.1-7.9,25.4-7,38.4.9,13,5.9-3.5,5.9-3.5,0,0,4.4-4,7.4-6.2,3-2.2,20.9-32.3,19.6-34.5-1.3-2.2-10.3-.4-10.3-.4Z"/>
        <path class="cls-1" d="M619.5,95s8.5,0,10.7,2.2c2.2,2.2,9,15,10,16.3.9,1.3,5.5,10.2,7.4,9.7,1.8-.4,1.5-20.3-.4-23.4-1.8-3.1-15.5-15.9-17.7-15.9s-10,11-10,11Z"/>
      </g>
      <g>
        <path class="cls-1" d="M486.3,89.3s11.4,47.5,10.9,53.8c-.5,6.2,0-31.9,1.8-32.8,1.8-1,7.4-19.9,7.4-19.9l6.7-5s-5.6,7.7-7.4,14.9c-1.8,7.2-5.6,21.4-6,26.4-.4,5,1.8,31.4,2.1,33.3s-10.2,3.2-10.2.5.2-34.8-1.1-39.3c-1.2-4.5-3.7-24.6-5.6-26.9-1.9-2.2,1.4-5,1.4-5Z"/>
        <path class="cls-1" d="M485.3,81.3s-3.3-8.7-6-6c-2.6,2.7-9,9.5-8.8,12.9.2,3.5-7.6,28.6-6.7,43.3.9,14.7,5.6-4,5.6-4,0,0,4.2-4.5,7-7,2.8-2.5,19.9-36.3,18.6-38.8-1.2-2.5-9.8-.5-9.8-.5Z"/>
        <path class="cls-1" d="M506.4,90.2s8.1,0,10.2,2.5,8.6,16.9,9.5,18.4,5.3,11.4,7,10.9c1.8-.5,1.4-22.9-.4-26.4-1.8-3.5-14.8-17.9-16.9-17.9s-9.5,12.4-9.5,12.4Z"/>
      </g>
      <g>
        <path class="cls-1" d="M545.6,74.8l1,1.5s-1,4.2-.7,8.4,1.7,14.1,1.2,16.2-.7,13.6-.7,13.6l-.7,2.7-2.3-.5s1.6-2.4,1.4-4.4.6-12.8.3-15.1-.1-7.3-.4-9.6.1-7.1.3-8.6.7-4.1.7-4.1Z"/>
        <path class="cls-1" d="M530.3,139v6.4s2.7-2.9,2.7-2.9c0,0,0-2,1.5-8.4,1.5-6.4.7-8.4.7-8.4,0,0-.9,3.5-1.3,5.3s-1,4.8-1.8,6.6c-.8,1.7-1.8,1.5-1.8,1.5Z"/>
        <path class="cls-1" d="M530.9,139.1l-.7,14-2-.7s2-22.2,1.9-23.4,1.2,0,1.2,0l-.4,10.1Z"/>
        <path class="cls-1" d="M530.2,132.4s-2.3-4-1.4-5.9.6-4.7-.1-7.4c-.8-2.7-.9-9.8-1-13.2s.3-12.9-.5-14.7-1.5-10.1-1.9-12.2-.9-6.2-.4-8.2,2.7-2.7,2.7-2.7c0,0,.7-.6-.7,1.2s-1.2,3.1-1.1,5.3,1.8,9.1,1.8,9.9,2.7,10.6,2.7,11,1.4,6.1,1.5,9.5,1.2,10.3,1,13.3-1.1,7.3-1.1,7.3c0,0,.3-.3.5,1.5s.6,3.4-.1,4.4-1.9,1-1.9,1Z"/>
        <path class="cls-2" d="M513.1,100.1s8.9,17.1,10.5,22.5c1.6,5.3,6.3,19.7,6.3,19.7l1.2,6.6-1.4,3s-.1-3.7-1-6-5-17.9-6.1-20.8c-1.2-2.9-7.3-17-7.8-18.1s-1.2-3.4-1.9-4.8.1-2.1.1-2.1Z"/>
        <path class="cls-3" d="M537.7,129.9s-2.7,9.7-4.7,11.9-4.7,7.3-4.7,7.3l1.6,3.3s10.3-21.5,10.6-22.1-2.7-.4-2.7-.4Z"/>
        <path class="cls-4" d="M527,152.9s.5,1.7,2.5,1.6,4.4-1.5,4.4-1.5l-.4-2,6.7-18.6-.5-3.8-6.7,17-2.7,6-.8-4.6c0-.4-.2-.8-.9-.2l-.6.4c-.3.2-.5.5-.6.8-.2.6-.4,1.2-.4,1.5v3.5Z"/>
        <path class="cls-3" d="M510.4,86.3s1-4.6-.3-6.6c-1.2-2-2.1-2.5-1.8-4.5s2.3-3.6,2.3-4.3-.5-5.1-2-5.5-3.1-2.4-3.8-2.5-4.1.3-6,1.9-4.7,6.4-5.6,6.9-3.1,3-3.7,4.9-.8,7.4-1.6,8.1-3.3,3-4,4.5-.3,9,.3,10.4,1,5.7.3,8.2,1,8.6,1.2,9.3,2.6,3.7,2.6,5.9-1.1,5.3-1.1,7.8,2,6.7,2.3,7,2.6-1.2,3-2.1-.1-1.2,2.9-2.3,6.8-3,6.8-5.1-2.3-3.1,1.4-4.1c1.3-.4,3.4-.9,3.8-6.2.4-4.4.4-10.9,2.9-12.2s3.3-2.9,4.2-6.7c.9-3.8.5-4.6,2.6-7.5s4.4-5.8,3.8-10-.6-6.4-.3-8,1.5-5.1-.3-5.3c-1.8-.3-3.3,2.5-3.3,2.5,0,0-1.3-.5-1.8,1.2s-1.2,4.5-1.8,6-3.1,8.1-3.1,8.1Z"/>
        <path class="cls-3" d="M542.6,63.9s-5.7-6.7-7-10c-1.3-3.3-2.6-4.9,1.1-6s13.1,2.1,13.1,2.1c0,0,12.8,5.3,15,9.2,2.3,3.9,8.7,15.8,9.3,18.8s2,6.8,2.9,8,2,9.7,1.6,12.3.4,3.8.7,4.7,0,2.8-.3,4.7-.5,2.7-.5,2.7l-1.8-2.2-1.2-1.8s-.5,0-3.4-1.2c-2.9-1.2-10.4-8.1-11.5-10.3s-6.7-9.8-8.9-11.7-5.9-6.9-10-9.7c-4.1-2.8-11-8.2-13.2-11.2s-.3-8.4.3-9.3,2.6.5,2.6.5c0,0,5.9,6.9,8.2,8.6,2.3,1.8,3,1.9,3,1.9Z"/>
        <path class="cls-3" d="M542.2,124.5s-1.5-.5-3.5-1c-2-.5-3.5-1.4-4.2-.7s-1.8,4-.8,5.8,3.7,5.4,5.2,6,5.5,2,6.1,2.9,3.8,2.7,5.7,2.9c2,.1,7.3.2,8.3-.7s2.3-1,2.6-1.6-.5-3.6-1.1-4.4-1.4-3.9-2-6-1.9-5.4-3-6.6-3.4-4.6-5.7-4.9-3.2-.9-4.1-.8-.4,1.7-1.4,1.1c-1-.6-1.6-1.7-2.6-.4s-2.2,1.7-1.6,4,2.2,4.5,2.2,4.5Z"/>
        <path class="cls-5" d="M518.7,71.2l-1.5,4.3-.4-3v4.8c0,0-2.3,5.6-2.3,5.6,0,0-.9-2.1-.8-2.9s.2,3.7.2,3.7l-1.8,6.4s-.6-2.5-.6-3.5-.2,1.1-.3,2.3.2,2.8.2,2.8c0,0-1.7,5.4-2.4,5.9s-1.8-9-1.9-9.8,1.8-5.6,1.8-5.6c0,0,1-1.8,0-.8s-1.6,3.6-1.6,3.6l-.5,1.3-.6-6.9s1.3-1.1,1.3-1.8.2-2.4-.2-1.7,0,1.2-.5,1.9l-.5.7-.4-4.8s2.2-1.6,2.4-3.6-.2-3-.4-2.6.4,1.1-.3,2.5-1.4,2.3-1.4,2.3v-7.5s-.4.3-.5,1.1-.4,5.1-.4,5.1c0,0-2.9-2.3-3.5-2.7s-1.3-1.5-1.5-2-.5.3-.4.7,5,4.6,5.1,4.8.5,8.8.5,8.8c0,0-3.1-1.5-3.6-2.5s-3.8-5.7-4.6-6l-.8-.4s1.4,1.9,1.7,2.6,2.4,2.8,2.5,3.4,2.7,2.9,3.4,3.3,1.3,1,1.3,1l1.1,7.1s-3.2-2-4.8-3.6-6.7-8.6-6.5-6.7,1.2,1.5,1.9,2.6,5.1,5.5,5.8,6.3,3.5,2.6,3.5,2.6l.7,4.3.8,3.6-1.2,2.6s-.1-.2-.4-.6c-.9-1.4-3.1-4.5-4.9-4.9s-7.2-2-10.6-1.6-5,0-5,0c0,0,.4.6,1,.7s4.4-.4,5.4-.2c1,.2,9.1,1.8,9.5,2.1s4,3.7,4.2,4.6.3,1.4.3,1.4l-3.4,5.9s-7-.9-10.1,1.6c-3.1,2.4-3.9,3.5-3.9,3.5,0,0,2-1.1,3.8-2.4s4.6-1.8,5.7-2.1c1.1-.3,4.1.5,4.1.5l-3.5,9.1s-5.5.1-7,1.6-1.9,2.4-1.9,2.4c0,0,1.1-1.1,2.3-1.7,1.2-.6,4-1.6,5-1.6,1,0,1.5.3,1.5.3l-4.3,9s-3.6,1.9-4.5,2.7,0,1.1,0,1.1c0,0,2.4-1.8,3.2-2.2s-2.3,6.1-2.3,6.1l8.9-16.3s1.9,2.5,1.4,4-.5,5.1-.5,5.1c0,0,1.1-4.3,1.1-5.4s-1.3-5-1.3-5l4.1-10.6s.9,3.3,1,4.6.4,1.8.4,1.8c0,0,.3-3.6,0-3.9s-.8-4.2-.8-4.2l3.2-6.3s3.2-4.7,3.4-5.1,3.6-4.3,5.4-6.1c.3-.4.7-.8.9-1.1,1-1.4,1.4-2.5,1.4-2.5l-7.2,7.1,2.7-8.1s2.1-2.1,3.2-3.3,1.4-2.2,1.4-2.2c0,0-.5-.7-.8-.2s-2.8,3.5-2.8,3.5c0,0,2.6-6.2,2.6-6.9s.4-3.6.4-3.6Z"/>
        <path class="cls-1" d="M518.6,89.5s-2.8,3.9-3.2,5.1-1,4.8-1,4.8l-1.6,5s-1.7,1.5-1.8,2.6-.3,3.1-.3,3.1c0,0-2.4,3.2-2.7,4.8s-.6,4.4-.6,4.4c0,0,.8,2.4-.9,3.6s-2.5,1.9-1,.3c.8-.8.9-4.5.7-5.3-.3-1.6-.2-4.9.2-6.2s2.1-4.2,3.4-5.6,1.8-2.4,1.8-2.4c0,0,0-2.5,0-3.6s-.6-2.7.4-4.1,6.5-6.3,6.5-6.3Z"/>
        <path class="cls-1" d="M560.6,94.7c-1-2.2-6.7-9.8-8.9-11.7s-5.9-6.9-10-9.7c-4.1-2.8-11-8.2-13.2-11.2s9.6,3.5,13.3,8.2c4.7,5.9,4.3,4.2,6,5.3,4.9,3.1,9.3,10.2,9.3,10.2,0,0,4.5,11.1,3.5,8.9Z"/>
      </g>
      <path class="cls-2" d="M28.7,151.5c-1.5.9-8.7.4-12.1,1.3-3.2.8-5.8,2.7-8.3,4,7.3,10,29.8,5.4,41.6,5.1,7.5-.2,15-1.4,22.4-1.1,12.5.5,24.6,3,37.4,2.6,11.9-.3,22.1-2.5,34.1-1.7,9.3.7,18.8.4,28.3,1,20.5,1.3,43.1-.6,63.2,2.2,6.7.9,12.2,2.5,19.1,2.2,7.6-.4,14.3-1.9,22-1.6,13.7.5,24.1-.5,36.9-2.5,9.4-1.5,17.4,0,26.4,1.3,16.2,2.2,32.5-1.5,48.9-.9,23.2.8,45.9-.7,69.2,1,15,1.1,28.9-.6,43.9,1.6,20.2,2.9,38.2.2,58.4-1.6,14.3-1.3,27.3-2,41.4-3.9,13.7-1.8,27.4,1.9,41.4,1.5,11.4-.4,22.9-.5,34.5-.5,6.4,0,11.9.3,17.7-1.7,3.2-1.1,5.9-3.1,9.9-3.6-4.6-8.2-22-5.9-32.1-7-8.9-1-15.9-1.1-25.1-.5-7.5.5-15.5-2.5-22.2-1.6-1.5,5-21-1.1-25.7-1.7-8.8-1.2-14,1.7-21.6,2.6-5.3.6-12.3.4-17.3-.7-5.4-1.2-8.7-3.6-15.2-2.5s-6.8,3.5-15.1,2.8c-6-.5-12-2.4-18.1-1.6-2.4,4.8-12.5,2.8-17.6,2.1-8.6-1.2-12.5-.3-20.4.4-10.1,1-12.6-3.1-20.8-4.3-9.5-1.4-11.4,2.9-20.9,2.2-6.6-.5-10.8-1.6-16.5.5-5,1.8-7.8,3.4-14.6,4.1-6.9.7-13.3-.2-20.1,0-4.4.1-9.5,1.5-14.3,1.7-8,.4-15.8-1.1-23.6-2.1s-9.4,0-11.5-1c-3.2-1.5-1.9-3.7-5.1-5.3-4.7-2.4-16.5-1.2-21.3.1-1.3,2.2-5.4,3.4-8.6,4-3.6.6-5.4-.6-8.5-.3-5.8.6-10.3,4.6-16.9,1.4,4.6-7.3-10.8-6.1-16.8-4.7-8.8,2-11.8,4.1-22.6,3.7.2-.8-.4-1.9-.3-2.6-10.7-3.1-19,.2-28.2,1.6-3.5.5-7.6-.3-11-.4-4.6-.1-10.9,1-14.5.9-6.7-.3-14.3-4.4-19.5-7.2-8.5,4.1-19.6,8.5-30.2,8.9-11.4.4-23.6-2.9-35.1-2.1-3.9.3-10.1,1.5-13.7,1.5-6,0-11.2-3.1-17.3-2.5-4.3.4-6.2,2.5-10.6,3.1-5.9.9-12.6-1.2-17.4-3.2-2.7,1.6-7.3,2.4-6.1,5.3Z"/>
      <g>
        <path class="cls-1" d="M248.4,88.6s-11.4,42.1-10.9,47.6c.5,5.5,0-28.2-1.8-29.1s-7.4-17.6-7.4-17.6l-6.7-4.4s5.6,6.8,7.4,13.2c1.8,6.4,5.6,18.9,6,23.4.4,4.4-1.8,27.8-2.1,29.5s10.2,2.9,10.2.4-.2-30.8,1.1-34.8,3.7-21.8,5.6-23.8c1.9-2-1.4-4.4-1.4-4.4Z"/>
        <path class="cls-1" d="M249.5,81.6s3.3-7.7,6-5.3c2.6,2.4,9,8.4,8.8,11.5s7.6,25.3,6.7,38.3c-.9,13-5.6-3.5-5.6-3.5,0,0-4.2-4-7-6.2-2.8-2.2-19.9-32.2-18.6-34.4,1.2-2.2,9.8-.4,9.8-.4Z"/>
        <path class="cls-1" d="M228.4,89.5s-8.1,0-10.2,2.2-8.6,15-9.5,16.3-5.3,10.1-7,9.7c-1.8-.4-1.4-20.3.4-23.4,1.8-3.1,14.8-15.9,16.9-15.9s9.5,11,9.5,11Z"/>
      </g>
      <g>
        <path class="cls-1" d="M430.8,72.9s-2.1,1.5-1.7-.8.9-4-.1-4.3c-1.1-.3-1.8.3-2.4,0s-3.2-3-4.1-2.6-2,3-4.1,3.3-3,.2-3.8-.6c-.8-.7-2.2.8-2.2.8,0,0-1.5,2.4-2.6,1.9s-3.1-.9-5.1,1.5c-1.9,2.4-4.5,2.3-7.3,5.9-.3.4-.5,2.6.1,3.4s2.6,1.3,2.4,2.4-1.2,3.6,2.7,4.1c3.9.5,5,.8,5.4,1.8s-.8,4.4-.2,5.3,1.3,1.3,2.4,1.7.2,1.5.7,2.1,1.3.5,1.3.5c0,0,2.2-2.2,3-3.8s3.8-6.9,4.3-6.9,2.6-1.3,2.8-.2-.3.5,0,1.2,2.4,2.7,4.9,1.4c2.5-1.3,3.2-4.2,3.8-4s1.7.6,3,.1,1.6-.5,1.9,0,.2,2.3.9,2.3,1.7-1.8,2.2-1.9,1.8.5,2.4,1,2.8-.4,2.8-.9.9-1.7,1.3-1.6,1.8.6,2.6.5,7.8-3.6,8.2-5.9,1.8-5.1.2-7.8-3.8-5.9-6.9-5.8c-3.1.2-5.6-.4-6.5-.4s-4.3.5-4.9,1.6-1.6,0-2,.1-3.7,3.4-4.1,3.7-1.3.8-1.3.8Z"/>
        <path class="cls-1" d="M449.9,147.2s-3.4,3-6.3,1.9c-2.9-1.1-10.5-1.9-10.5-1.9,0,0,3.2-4.3,3.9-11.1.2-1.9,0-5.7.7-9.3,1.7-9.3,2.2-16.1,2.8-19.5s-13-25.1-10.7-21.9c1.2,1.7-4.6,2.1-.6-1.4s11.5,20.2,11.8,17.4c1.6-18.9,6-61.3,11.3-63.7,8.7-3.9,15-8.8,15-8.8l6,7.9-19.8,9.4s-3.9,5-5.5,18.1c-4.9,41.3-3,46-2.7,46.7,1,2.4,6.9-41.3,8.2-43,1.2-1.8,6.6-7.8,6.6-7.8l7.2,5.6s-10,1.5-10.5,3.6c-.6,2.1-4.9,16.7-5.6,19.8-.7,3.1,5.4-6.6,5.4-6.6,0,0,1.1.3,1.1,1.3s-4.3,6.3-4.1,7.5-3.4,7.1-3.6,11.9,0,8.6,0,8.6c0,0,.1.7-2,8.8-2.2,8.1,1.9,26.7,1.9,26.7Z"/>
        <path class="cls-3" d="M450.1,65.6s2.9.8,1.6-2.3c-1.3-3.1-.7-3.7-.2-3.6s.9-1.3.5-1.5-.8-1.6.4-2.2c1.2-.6.7-.9.9-1.6s4.1-6.6,5.4-6.6,9-5.6,14.3-2.5c5.3,3.1,8.9,9.6,9.9,9.2,1-.4,6.1,1.4,7.1,4.2.9,2.8,8.6,8.9,7.4,10.6s-1.9,1.5-1.2,2.8,3.3,2.3,2.2,3.4-.9,2.1-.5,2.4,2.1,1.2,1.8,2,.7,2.4,1.2,2.8,6.4,6.9,6,7.3.5,3.2-1.7,4.8c-2.2,1.6-.8-.7-2.5-.7-1.7,0-10-2.3-10.1-3.4s0-2.7-1.4-2.4c-1.3.2-3.4.1-4.3-.6s0-1.6-1.3-2.3-3.4-1.5-4-1.4-1,.9-1.8,1-1.9-.7-2.7-1.2-1.9-.4-2.3.3-.8.9-1.8.9-3.2-1.7-3.9-1.2-2.5,1.1-3.3.8-1.2.5-3,1.2c-1.8.8-2.3.3-3.2-.2s-3,.3-3.3.9-1.2.7-2.3-.2-.9-.7-2.9-.7-12.7-5.3-12.4-9.7-.2-12.2,4.8-12.6c5-.4,6.7,1.8,6.7,1.8Z"/>
        <path id="Shadow" class="cls-1" d="M450.1,65.6s2.9.8,1.6-2.3c-1.3-3.1-.7-3.7-.2-3.6s.9-1.3.5-1.5-.8-1.6.4-2.2c1.2-.6.7-.9.9-1.6s4.1-6.6,5.4-6.6,9-5.6,14.3-2.5c5.3,3.1,8.9,9.6,9.9,9.2,1-.4,6.1,1.4,7.1,4.2.9,2.8,8.6,8.9,7.4,10.6s-1.9,1.5-1.2,2.8,3.3,2.3,2.2,3.4-.9,2.1-.5,2.4,2.1,1.2,1.8,2-3.2,1.4-5.8.3-7,1-6.7,1.2c.5.4-5.7,1.6-7.1-1.9s-1.1-2.4-9.9-3.5c-8.5-1.1-26.6-2.7-26.4-4.9.3-4.4-5.3-7-.3-7.5,5-.4,6.7,1.8,6.7,1.8Z"/>
        <g>
          <path class="cls-4" d="M455.2,63.8c5,1.9,11.1,4.3,16.7,5.5.4,0,1.3.2,1.7.3.6,0,1.3-.1,1.9,0,2.5.6,4.6,1.8,6.8,3,4.2,2.4,8.3,5,12.2,8.1,1,.8,1.7,1.8,2.5,2.8,0,0,2.3,2.8,2.3,2.8l4.6,5.6c.3.4-.2.9-.6.5-2.9-3.1-5.8-6.2-8.5-9.5-2-2.1-4.7-3.6-7-5.3-3.9-2.5-7.9-5.6-12.4-6.9-.8-.1-1.6,0-2.7,0-3.9-.5-7.8-1.6-11.6-2.6-1.8-.5-4.8-1.4-6.6-2-.9-.2-1.6-1.2-.9-2,.4-.5,1.1-.5,1.6-.1h0Z"/>
          <path class="cls-4" d="M483.4,75.2c-1.2,1.4-1,3.7-.3,5.3.1.3,0,.6-.3.7-.3.1-.6,0-.7-.4-.6-2.1-.2-4.1,0-6.2,0-.5.3-.9.8-.9.8,0,1.1,1,.6,1.5h0Z"/>
          <path class="cls-4" d="M458.8,67.3c-3.1,0-13.1.5-12.4,5.1.2.8.7,2.1.9,3,.6,2.1,1.3,4.1,1.8,6.2,0,.4-.1.7-.5.8-.4,0-.7-.1-.8-.5-.6-3.1-1.7-6.2-2.6-9.2-.9-6,9.6-6.5,13.6-7,1.1,0,1.2,1.7,0,1.6h0Z"/>
          <path class="cls-4" d="M484.4,73.4c2.2-.1,4.4-.2,6.5.4.7.2,1.5.5,1.9,1.1,0,0,0,.1,0,.1-1.4-.3-2.6-.7-4.1-.7-1.4-.1-2.8,0-4.2,0-.6,0-.7-.9,0-1h0Z"/>
          <path class="cls-4" d="M458.7,66.2c.4-4,1.8-8.7,6.7-8.1,2.6,0,5.2,0,7.7.1,2.1.2,4.2.3,6.1,1.2.2,0,0,.4-.1.3-3.8-1.4-8.1-.8-12.1-.6-.5,0-1.8.1-2.3.2-3.4,0-3.9,4.3-3.6,7,.1,1.7-2.5,1.7-2.4,0h0Z"/>
          <path class="cls-4" d="M468.2,68.7c2.5-7.1,11.5-4.6,17-3.1.3,0,.6.4.5.8,0,.4-.5.6-.9.4-4.1-1.8-13.4-4-14.6,2.2,0,1.5-2.3,1.2-1.9-.3h0Z"/>
          <path class="cls-4" d="M468.2,69.9c-2-.4-6.1-.7-5,2.5.6,2.6,1.8,5.1,3.2,7.4.3.5-.5.9-.7.4-1.2-2.5-2.4-4.9-3.3-7.6-.2-.6-.4-1.5-.1-2.3.7-1.6,2.5-1.8,4-2,.9,0,2.9-.5,2.9.9,0,.5-.5.9-1,.7h0Z"/>
        </g>
        <path class="cls-3" d="M470.3,30.2s2.9,2.3,2.4-1.2-1.3-6.1.2-6.5c1.5-.4,2.5.5,3.3,0s4.5-4.5,5.7-3.9c1.3.6,2.7,4.6,5.7,5s4.1.2,5.3-.8c1.1-1.1,3.1,1.1,3.1,1.1,0,0,2.1,3.7,3.6,2.9,1.5-.8,4.4-1.4,7.1,2.3,2.7,3.7,6.4,3.5,10.3,8.9s.7,4-.1,5.1-3.6,1.9-3.3,3.6,1.6,5.5-3.8,6.2-7,1.2-7.6,2.8,1.2,6.6.3,8c-.8,1.4-1.8,1.9-3.4,2.6s-.3,2.3-.9,3.1-1.9.8-1.9.8c0,0-3.1-3.3-4.2-5.7s-5.4-10.4-6-10.4-3.6-2-4-.3.4.8,0,1.8-3.3,4-6.8,2.1c-3.5-1.9-4.5-6.3-5.3-6-.8.2-2.4.8-4.2.2-1.8-.7-2.3-.8-2.6,0s-.2,3.4-1.3,3.5-2.3-2.8-3-2.8-2.5.8-3.3,1.5-4-.7-3.9-1.3-1.3-2.5-1.8-2.4-2.5.8-3.7.8-10.9-5.5-11.5-8.9c-.6-3.5-2.5-7.7-.3-11.7,2.3-4,5.3-8.9,9.7-8.7,4.4.3,7.8-.7,9-.7s6,.8,6.8,2.4c.8,1.6,2.2,0,2.8.2s5.2,5.2,5.7,5.6,1.9,1.2,1.9,1.2Z"/>
        <path class="cls-1" d="M465.1,27.9s-7.5-3.9-9.3-2.5c-1.8,1.4,2.1,2.1,3.3,4.5s.3,1.9,3.2,3,7.2,2.9,8.6,5.5c1.4,2.5,8.2,4,9,6.1s3.6,5.5,5.1,5.6c1.5.1,4.8,4.3,5.1,4.9s4.1,3.6,4.1,3.9-4.5-10.3-4.5-10.3l-13.6-13.3s-4.3-3.3-6.7-3.6c-2.4-.4-4.4-3.8-4.4-3.8Z"/>
        <path class="cls-4" d="M473.4,31.7c4.9,4.9,10.2,9.4,14.5,14.9,2.2,2.7,4.7,5.3,5.6,8.8,1,2.8,1.8,5.8,2.8,8.6l.2.6v.3c.3.3.4.9,0,1-.4.1-.6-.3-.7-.6,0-.2-.3-.8-.4-.9-.9-2.8-1.8-5.9-2.8-8.6-.9-3.3-3.4-5.8-5.5-8.4-1.7-2-3.3-3.9-5.1-5.8-3.2-2.9-6.3-5.9-9.5-8.7-.7-.6.3-1.8,1-1.1h0Z"/>
        <path class="cls-4" d="M493.6,30.2c-3.9.8-14.6,2.6-15.6,6.9,0,.6-1.1.6-1,0,.6-3.3,4.7-4.5,7.4-5.6,2.9-1,5.9-1.7,9-2.2.6-.1.8.9.2,1h0Z"/>
        <path class="cls-4" d="M509,44.3c-7.7-4.2-20.8-11.1-29.1-5.5-.5.4-1.1-.4-.6-.8,8.4-6.9,22.5.2,30.2,5.4.5.4,0,1.2-.6.8h0Z"/>
        <path class="cls-4" d="M487.3,46c4.9.1,13.5.8,16.8,4.9.4.5-.4,1.1-.8.6-1.8-2-4.9-2.6-7.5-3.2-2.8-.5-5.7-.9-8.5-1.2-.6,0-.6-1,0-1h0Z"/>
        <path class="cls-4" d="M474,34.9c-4.2-2.5-13-8-17.8-6.1-2.8,2.1-5.2,5.1-7.3,7.9-.8,1.2-1.7,2.4-2.2,3.7-.1.3-.4.4-.7.3-.3-.1-.4-.4-.3-.7.6-1.5,1.4-2.7,2.3-3.9,2.3-3,4.5-6,7.6-8.2,3.7-1.5,7.6.5,11,1.9,2.7,1.3,5.3,2.7,7.8,4.3.6.4,0,1.2-.5.8h0Z"/>
        <path class="cls-4" d="M477.7,37.8c-4-1.6-10.6-5.4-14.3-2-2.1,2.5-4.1,5-6.3,7.5-.4.5-1.2,0-.8-.6,1.9-2.7,3.9-5.3,5.9-7.9,2.5-2.9,7-2.1,10.1-1,2.1.8,4.1,1.8,5.9,3.2.2.2.3.5,0,.7-.1.2-.4.3-.6.1h0Z"/>
        <path class="cls-4" d="M480.9,40.9c-2.2-.2-4.3-.7-6.5-.9-.8,0-1.8-.2-2.4.3-.9,1.8-1.5,3.8-2.8,5.4-.4.5-2.1,2.2-2.6,1.2,0-.3,0-.5.3-.6,2.7-.8,3.3-4.1,4.6-6.3.2-.2.4-.3.6-.4,1.5-.5,3-.4,4.6-.3,1.5.1,3,.4,4.4.8.3,0,.4.4.3.6,0,.2-.3.4-.5.4h0Z"/>
        <path class="cls-4" d="M484.5,45.3c-3.3.2-6,2.8-4.9,6.3.1.6-.8.9-1,.2-.9-4.1,2-6.7,5.7-7.5.7-.2.9,1,.1,1h0Z"/>
      </g>
    </g>
  </g>
</svg>