<?xml version="1.0" encoding="UTF-8"?>
<svg id="Layer_2" data-name="Layer 2" xmlns="http://www.w3.org/2000/svg" viewBox="0 0 350.9 317.1">
  <defs>
    <style>
      .cls-1 {
        fill: #d1d3d4;
        stroke: #d1d3d4;
      }

      .cls-1, .cls-2, .cls-3, .cls-4 {
        stroke-miterlimit: 10;
      }

      .cls-2 {
        stroke: #ed2024;
      }

      .cls-2, .cls-4, .cls-5 {
        fill: none;
      }

      .cls-3 {
        fill: #a7a9ac;
        stroke: #a7a9ac;
      }

      .cls-4 {
        stroke: #808285;
      }

      .cls-5 {
        stroke: #dbb927;
        stroke-linecap: round;
      }
    </style>
  </defs>
  <g id="Layer_6" data-name="Layer 6">
    <g>
      <path class="cls-2" d="M160.9,233.1l3,.2,2.7,4.3,2.3-.2-1.6,2.5,5.3,3.9,2.1-2.5,3,2.3-1.1,1.6,3.4,3-1.6,2.1-3.9-.7-.2,3,7.1,2.7-.9,2.1,4.1,4.6,4.6,3.9,1.8,2.7.9,2.3,2.5.7-1.1,2.1,2.1,1.8-.2,3.2-.9,3.4.7,4.3-.2,6.2-3,2.1-2.7.7-.9,2.1-3.4-.2.7,1.8,2.3,1.8-1.1,1.6-1.6-1.6-4.1,2.3-4.1,1.4,1.4,1.6,2.3.5-.2,1.8-.7,3,.7,4.8,3.9-3.7,3.7-1.1,2.7-3.7.7-3h5.3l3-2.1,4.8-3.4,2.1-8.7-1.1-2.5-.2-5-2.1-5-.7-1.8-1.4-2.3-3.4-4.6-3.2-.7-1.6-3.4-3-2.1-.7-3.4-2.3-1.4-2.5-3.9,1.6-4.8,3.9-2.7,1.8-4.1,4.8-1.4,2.5-2.1,2.6-2.2,3.4,2.5,4.3-.5-1.8,2.1.7,4.8,3,1.1,1.4-1.8-1.6-2.7,5.5-2.7,6.4-2.1,6.6-1.8,1.6-4.3.9,2.1,3-1.6,2.3.7,1.6-1.6,2.3,1.1,1.4-2.1,1.1,1.6,3-1.1,4.1-4.8,5.3-2.3-.9-2.7,4.1-.7-.5-2.3,4.1-.7-.5-2.3,2.7-2.5v-3.4l-1.4-1.6,3.4-.7,3-4.6,1.4-3,1.8-.7,2.7-2.1-.9-2.7,2.7-2.3.9-5.3-2.3-.5-2.7-2.3-2.3.5.5-1.8,3-.9,3.4-1.4-4.8-4.8-3-1.1.2-1.8,7.1,3.9v-3.2l-2.7-1.6-2.7-5.3-4.1-8.9-6.2-4.1.5-2.1,9.1-9.4,3.4-2.1,2.5-.7,3,.5.5-2.5,1.1-1.8-3.4-.9-3.9-.2-3.4-2.1-1.8.7-2.7,1.8-2.7,2.7-3-.9-.9-2.7,1.4-1.8-2.1-2.1-2.5.5-3.2-1.6-1.8-3.4,1.4-2.3,2.3-1.1,1.8,1.8,4.1-1.6,2.1-5.5,5.3-1.8,3.7-5.3,2.7-.2,3.2,1.1,1.4,2.3-2.7,3.4-1.8.2v1.8l-1.8.2v1.8l2.5.2v2.3l-3,1.1v1.6l2.7-.5,3.7-3,.2-1.6,6.4-3.2,3.4,1.4,2.3-4.6,4.6-3,7.1-6.4.7-1.8h1.8l1.8,2.3,4.8.5,1.4-1.6-2.1-3.2h5.3l2.1-4.3,2.5.9v-5l1.8.5,2.3,4.3,1.6,3v-3.9l-1.6-1.4,3.4-2.3,1.6-2.7v-4.8l-3-6.6,3.7-1.6,2.5-2.1,5.9,2.7.9-1.6v-2.1l2.1-1.1-.9-1.8,1.8-.9v-1.6l2.1-1.4-.9-2.3,1.4-1.6.7-3.2-.2-2.1,2.5-.9,1.4-1.6-1.4-2.3,1.1-3.9-1.6-1.1-2.3.2-.5,2.1-2.5-.5-1.4,2.3-1.6-1.1-2.5,1.6-.5,2.1-8.7.5-2.1-3.4,1.6-1.8-.5-2.1-2.7-.5,1.6-2.5-2.5.7-4.1-6.4-1.6,1.6-2.3-.5-.5-2.3-3.4,1.6-3-.7-1.1-3.7,1.1-2.5-1.6-.7.5-3.9-3.2-1.8.5-3.4-2.5-4.6,1.1-2.1-3-.7,1.6-.9h0s-3-2.8-3-2.8l.7-2.1-3.2-2.5-2.3-2.1-1.4,1.6-6.2-5.5-1.6,1.6-1.8-.7-2.3,1.4-2.7-1.4-1.1,1.6-7.1,1.4-2.7,2.7-1.8,1.6.5,2.1,1.8-.7,1.6.7-.2,2.1.9,1.8-1.1,2.1-3,2.1-1.8,5.5-4.1,6.4,1.8.9-1.4,3.2-3.4-.2-4.8,3.7-4.1-1.4-1.6-1.1-5.5,11.2-1.1,3.2v2.3l2.5,2.1,2.1-1.4,3-.5,3.4,3,2.3-4.3h3.2l1.6,2.3,2.3.7,4.8,6.6-.7,2.3-2.7.9-1.1-1.6-5,.2-2.5,1.6-2.1-.9-.5,2.1-4.6.2-1.8,2.5v2.5l-4.6,3-5.7-.2-2.5,3.4-1.8,1.8-5-.9-1.4-1.6-3.7-.5-1.4,1.8-1.4,3.9,2.7,3.2-.2,2.7-5.3,2.3-2.7,4.3-2.3,1.4-7.8,2.1-7.1-1.1-13,5-1.8,1.6-1.8-.2-.5-1.8-4.3.7-6.2-3-3.2-.2-1.4-1.8-5.5-1.8-8.5,1.1-13-2.1-4.1,1.4.2-1.8-3.2-3.2-1.4-5.5-1.6-.4.6-2.1h-3.7l-7.3-5.2-14.9-2.4-1.2-3,1.8-4-.3-2.4.6-2.7-3-4.3-.5-3-1.5-1.3-.9-1.6-1.6,1-.9-1.8-2.4,1-2.6-2.1-.5-1.9-3.3-1.3.7-1.7-1.8-.9,1-1.5-.9-1.5-1.9,1-3.3-.6-1.4,4-2.1,1.9-1.9-.7-2.4,3.3.7,5.4-.6,3.7h-1.7l-1.6,1.8-1.8-1.7-4.3.8-5-2.4-3.3,10.4-1.1,3.5,2.1.9v1.9c-.1,0-3.5.1-3.5.1l-1-1.6-4.9,2.4-4.2.3-1.6,1.5,2.9,1.9.5,6.1,1.6,5.9-2.5,2.1-.3,5.8-9.1,4-4.9,3.9h-4.7c0,.1-2.7,4.6-2.7,4.6l-4.7,1.1-.7-3-4.1,2.5-3,1.8-2.1.7v2.5l-2.7,2.3.9,1.6.5,2.5,2.5,1.8,2.3.5,1.8,2.5v7c.1,0,5.7,4.8,5.7,4.8l5.3,2.6v3.7l6,.6,9.1-3,4.3,2.7-1.4,5.7-4.6,2.5-2.4,2.7.5,3.5,4.7,4.9-4.3,3.4-.8-3.4-2.7,2.7,4,8.3,3.1.6,6.9,5,2.8,2.3.8-3,3.8-.6,10.7,8.9,5,3.7,6.2,1.8,2.4,1.6,2.9-.5,3.7,2.1h2.1c.8-.1,1-1.1.4-1.5l2-.4,6.9,1.2,1.8-2,11.4,2.9,4.1-1.4,6.2-4.3,5.3-4.4,4.1.5,4.6-.5,5,4.1,2.3,3.2,3.2-2.3,2.5,6.1,3-.6-.5,7.8v4.1l-3.6,2.3-3.3,4.1.8,5.8,1.9-2.1,5.3.8-.3,5.5,4,1.7-1.6,5.3,3.2.9,1.6,2.1,2.7.8,2.6-1.7.8,3.5,3.7.2-1.4-8.1Z"/>
      <path class="cls-4" d="M160.9,233.1l3,.2,2.7,4.3,2.3-.2-1.6,2.5,5.3,3.9,2.1-2.5,3,2.3-1.1,1.6,3.4,3-1.6,2.1-3.9-.7-.2,3,7.1,2.7-.9,2.1,4.1,4.6,4.6,3.9,1.8,2.7.9,2.3,2.5.7-1.1,2.1,2.1,1.8-.2,3.2-.9,3.4.7,4.3-.2,6.2-3,2.1-2.7.7-.9,2.1-3.4-.2.7,1.8,2.3,1.8-1.1,1.6-1.6-1.6-4.1,2.3-4.1,1.4,1.4,1.6,2.3.5-.2,1.8-.7,3,.7,4.8,3.9-3.7,3.7-1.1,2.7-3.7.7-3h5.3l3-2.1,4.8-3.4,2.1-8.7-1.1-2.5-.2-5-2.1-5-.7-1.8-1.4-2.3-3.4-4.6-3.2-.7-1.6-3.4-3-2.1-.7-3.4-2.3-1.4-2.5-3.9,1.6-4.8,3.9-2.7,1.8-4.1,4.8-1.4,2.5-2.1,2.6-2.2,3.4,2.5,4.3-.5-1.8,2.1.7,4.8,3,1.1,1.4-1.8-1.6-2.7,5.5-2.7,6.4-2.1,6.6-1.8,1.6-4.3.9,2.1,3-1.6,2.3.7,1.6-1.6,2.3,1.1,1.4-2.1,1.1,1.6,3-1.1,4.1-4.8,5.3-2.3-.9-2.7,4.1-.7-.5-2.3,4.1-.7-.5-2.3,2.7-2.5v-3.4l-1.4-1.6,3.4-.7,3-4.6,1.4-3,1.8-.7,2.7-2.1-.9-2.7,2.7-2.3.9-5.3-2.3-.5-2.7-2.3-2.3.5.5-1.8,3-.9,3.4-1.4-4.8-4.8-3-1.1.2-1.8,7.1,3.9v-3.2l-2.7-1.6-2.7-5.3-4.1-8.9-6.2-4.1.5-2.1,9.1-9.4,3.4-2.1,2.5-.7,3,.5.5-2.5,1.1-1.8-3.4-.9-3.9-.2-3.4-2.1-1.8.7-2.7,1.8-2.7,2.7-3-.9-.9-2.7,1.4-1.8-2.1-2.1-2.5.5-3.2-1.6-1.8-3.4,1.4-2.3,2.3-1.1,1.8,1.8,4.1-1.6,2.1-5.5,5.3-1.8,3.7-5.3,2.7-.2,3.2,1.1,1.4,2.3-2.7,3.4-1.8.2v1.8l-1.8.2v1.8l2.5.2v2.3l-3,1.1v1.6l2.7-.5,3.7-3,.2-1.6,6.4-3.2,3.4,1.4,2.3-4.6,4.6-3,7.1-6.4.7-1.8h1.8l1.8,2.3,4.8.5,1.4-1.6-2.1-3.2h5.3l2.1-4.3,2.5.9v-5l1.8.5,2.3,4.3,1.6,3v-3.9l-1.6-1.4,3.4-2.3,1.6-2.7v-4.8l-3-6.6,3.7-1.6,2.5-2.1,5.9,2.7.9-1.6v-2.1l2.1-1.1-.9-1.8,1.8-.9v-1.6l2.1-1.4-.9-2.3,1.4-1.6.7-3.2-.2-2.1,2.5-.9,1.4-1.6-1.4-2.3,1.1-3.9-1.6-1.1-2.3.2-.5,2.1-2.5-.5-1.4,2.3-1.6-1.1-2.5,1.6-.5,2.1-8.7.5-2.1-3.4,1.6-1.8-.5-2.1-2.7-.5,1.6-2.5-2.5.7-4.1-6.4-1.6,1.6-2.3-.5-.5-2.3-3.4,1.6-3-.7-1.1-3.7,1.1-2.5-1.6-.7.5-3.9-3.2-1.8.5-3.4-2.5-4.6,1.1-2.1-3-.7,1.6-.9h0s-3-2.8-3-2.8l.7-2.1-3.2-2.5-2.3-2.1-1.4,1.6-6.2-5.5-1.6,1.6-1.8-.7-2.3,1.4-2.7-1.4-1.1,1.6-7.1,1.4-2.7,2.7-1.8,1.6.5,2.1,1.8-.7,1.6.7-.2,2.1.9,1.8-1.1,2.1-3,2.1-1.8,5.5-4.1,6.4,1.8.9-1.4,3.2-3.4-.2-4.8,3.7-4.1-1.4-1.6-1.1-5.5,11.2-1.1,3.2v2.3l2.5,2.1,2.1-1.4,3-.5,3.4,3,2.3-4.3h3.2l1.6,2.3,2.3.7,4.8,6.6-.7,2.3-2.7.9-1.1-1.6-5,.2-2.5,1.6-2.1-.9-.5,2.1-4.6.2-1.8,2.5v2.5l-4.6,3-5.7-.2-2.5,3.4-1.8,1.8-5-.9-1.4-1.6-3.7-.5-1.4,1.8-1.4,3.9,2.7,3.2-.2,2.7-5.3,2.3-2.7,4.3-2.3,1.4-7.8,2.1-7.1-1.1-13,5-1.8,1.6-1.8-.2-.5-1.8-4.3.7-6.2-3-3.2-.2-1.4-1.8-5.5-1.8-8.5,1.1-13-2.1-4.1,1.4.2-1.8-3.2-3.2-1.4-5.5-1.6-.4.6-2.1h-3.7l-7.3-5.2-14.9-2.4-1.2-3,1.8-4-.3-2.4.6-2.7-3-4.3-.5-3-1.5-1.3-.9-1.6-1.6,1-.9-1.8-2.4,1-2.6-2.1-.5-1.9-3.3-1.3.7-1.7-1.8-.9,1-1.5-.9-1.5-1.9,1-3.3-.6-1.4,4-2.1,1.9-1.9-.7-2.4,3.3.7,5.4-.6,3.7h-1.7l-1.6,1.8-1.8-1.7-4.3.8-5-2.4-3.3,10.4-1.1,3.5,2.1.9v1.9c-.1,0-3.5.1-3.5.1l-1-1.6-4.9,2.4-4.2.3-1.6,1.5,2.9,1.9.5,6.1,1.6,5.9-2.5,2.1-.3,5.8-9.1,4-4.9,3.9h-4.7c0,.1-2.7,4.6-2.7,4.6l-4.7,1.1-.7-3-4.1,2.5-3,1.8-2.1.7v2.5l-2.7,2.3.9,1.6.5,2.5,2.5,1.8,2.3.5,1.8,2.5v7c.1,0,5.7,4.8,5.7,4.8l5.3,2.6v3.7l6,.6,9.1-3,4.3,2.7-1.4,5.7-4.6,2.5-2.4,2.7.5,3.5,4.7,4.9-4.3,3.4-.8-3.4-2.7,2.7,4,8.3,3.1.6,6.9,5,2.8,2.3.8-3,3.8-.6,10.7,8.9,5,3.7,6.2,1.8,2.4,1.6,2.9-.5,3.7,2.1h2.1c.8-.1,1-1.1.4-1.5l2-.4,6.9,1.2,1.8-2,11.4,2.9,4.1-1.4,6.2-4.3,5.3-4.4,4.1.5,4.6-.5,5,4.1,2.3,3.2,3.2-2.3,2.5,6.1,3-.6-.5,7.8v4.1l-3.6,2.3-3.3,4.1.8,5.8,1.9-2.1,5.3.8-.3,5.5,4,1.7-1.6,5.3,3.2.9,1.6,2.1,2.7.8,2.6-1.7.8,3.5,3.7.2-1.4-8.1Z"/>
      <polygon class="cls-3" points="193.9 238.3 198.4 239.3 196 241.4 191.2 242.7 189.3 246.9 185.4 249.6 183.8 254.4 186.4 258.3 188.6 259.7 189.3 263.1 192.3 265.1 193.9 268.6 197.1 269.3 200.5 273.8 201.9 276.1 202.6 277.9 204.6 283 204.9 288 206 290.5 204 299.2 199.2 302.6 196.2 304.7 190.9 304.7 190.2 307.7 187.5 311.3 183.8 312.5 180 316.1 179.3 311.3 180 308.3 180.2 306.5 177.9 306.1 176.5 304.5 180.6 303.1 184.8 300.8 186.4 302.4 187.5 300.8 185.2 299 184.5 297.1 188 297.4 188.9 295.3 191.6 294.6 194.6 292.6 194.8 286.4 194.1 282.1 195 278.6 195.3 275.4 193.2 273.6 194.4 271.5 191.8 270.9 190.9 268.6 189.1 265.8 184.5 261.9 180.4 257.4 181.3 255.3 174.2 252.6 174.5 249.6 178.4 250.3 180 248.2 176.5 245.3 177.7 243.7 174.7 241.4 172.6 243.9 167.4 240 169 237.5 166.7 237.7 164 233.4 166.3 231.4 169.1 233.1 170.4 230.8 172 231.8 172.6 230.8 174.5 232.6 174.9 230.6 176.7 231.5 179.3 229.9 179.3 228.8 181.9 227.3 183.3 228.6 184.9 230.2 190.5 230.6 188.9 233.5 189.9 235.5 193.9 238.3"/>
      <polygon class="cls-1" points="198.4 239.3 193.9 238.3 189.9 235.5 188.9 233.5 190.5 230.6 184.9 230.2 183.3 228.6 185.1 226.7 186.9 226.2 186 222.6 181.6 222.9 181.1 221 178.1 220.9 181.3 216.9 186.1 219.8 187.2 217.2 190.9 215.7 192.8 213 196.2 216.2 198 215.8 198.9 213.6 200.3 214.8 202.6 212.2 204.9 212.2 205.8 210.4 208.5 209.8 209.9 211.1 212.6 208.4 215.5 208.7 215.7 210.7 217.4 212 214.3 216.9 216.8 216.6 216.8 218.3 220.9 218.9 219.7 224.1 218.3 224.5 216.3 226.8 217.1 230.2 213.6 231.8 212.5 234.6 210.8 235.2 210.8 237 208.8 236.7 207.5 239.2 204.4 239.5 201 237 198.4 239.3"/>
      <g>
        <path class="cls-5" d="M89.8,257.4c0,1.2-.2,2.4,0,3.6.1,1.5.1,1.8-.1.1"/>
        <path class="cls-5" d="M90.2,257.5c1.1,0,2.2,3.3,3.2,4.1,1.2,1,1.1-4.7,1.1-5.6"/>
        <path class="cls-5" d="M96.7,257.5c-2.4,1.5,0,5.5,2.4,4.4,2.8-1.2,1.2-4.9-1.5-4.9"/>
        <path class="cls-5" d="M101.7,258.2l.4.3"/>
        <path class="cls-5" d="M101.4,257.7c-.6,0,.7,4.1.6,3.6-.6-2.3,1-4.3,3.4-3.4"/>
        <path class="cls-5" d="M107.3,255.7c0,2.2,1.1,4.3,1.9,6.3"/>
        <path class="cls-5" d="M105.8,259.5c-1.7,0,3.5-.6,5.2-.6"/>
        <path class="cls-5" d="M111.3,253.9c0,1.8.5,3.5,1,5.2.1.4.7,2.7.8,1.3,0-.5.5-3.5,1.3-3.3,1.3.3,1.6,2.6,1.8,3.6"/>
        <path class="cls-5" d="M118,260c1.8,1.7,3.5-2.4,2.2-3.5-1-.9-1.7,2.3-1.7,2.7.1,2.4,1.8,2.5,3.7,1.9"/>
        <path class="cls-5" d="M124.1,256.7c0,1,.4,1.8.8,2.7.1.2,1.4,2.2,1,1.3-.6-1.2-1-5.2,1.7-4.4"/>
        <path class="cls-5" d="M129.4,256.2c0,1,.8,2.2,1.3,3.2.4.9.3,1.6.3.5,0-.6.2-3.4,1.3-3.1,1.5.4,2,3.2,2.5,4.4"/>
        <path class="cls-5" d="M91.4,268c0-.7,0-.3.2.2.9,1.8,1.5,3.8,2.6,5.4.9,1.3,1.2-1.9,1.3-2.4.3-1.3.4-4,1.6-4.8"/>
        <path class="cls-5" d="M108.1,265.6c0,2.3.8,4.7,1,7"/>
        <path class="cls-5" d="M112.2,267.9c0,.9.5,1.9.8,2.8.8,2.1.4.2.5-.8,0-.8.8-3.5,2-2.2,1.2,1.3,1.7,3.3,2,4.9"/>
        <path class="cls-5" d="M122.3,268.4c-.8,0-1.2-2.4-2.3-1-.6.8-1.9,5.6.4,4.6,1.4-.7,2.9-5.5,2.3-4-.6,1.2,0,3.2.6,4.3"/>
        <path class="cls-5" d="M125.3,268.1c0,.7.5,3.5.5,3.2,0-1.4,1.5-6.7,2.5-3.1.3,1,.4,2.1.4,3.1s0-2.1.4-3.1c.5-1.6,2.4-1,3.4,0,.8,1,.9,2.3.9,3.5"/>
        <path class="cls-5" d="M99,270.8c.5,1,1.3,1.8,1.9,2.7"/>
        <path class="cls-5" d="M102,270.5c1.1,3.3,3.4-2.9.9-2-3.4,1.2.1,6.1,3.6,3.7"/>
        <path class="cls-5" d="M107.1,269.9c-.7,0,1.3,0,1.4,0,1.6-.2,3-1,4.6-1.2"/>
        <path class="cls-5" d="M98.5,266.4c0,.2.7,0,.8,0"/>
      </g>
      <g>
        <path class="cls-5" d="M223,225.2c5.5.4,9.5-.8,15.1,1.2,6.6,2.5,13.3,8.8,16.1,15.6"/>
        <path class="cls-5" d="M227.4,220.6c-1.7,2.9-5,3.9-5.2,4.6-.6,1,4.6,3.8,6.9,4"/>
      </g>
      <g>
        <path class="cls-5" d="M245.7,259.6c-.5.6.8,6.4,1.6,6.3"/>
        <path class="cls-5" d="M246,260.7c-2.4,0,1-1.9,2.1-1.8,3.3.3-1,3.7-2.4,4"/>
        <path class="cls-5" d="M249.6,261.9c.1.6.8,1.3,1,1.9,0,.2.9,2.5.7,1.4-.4-1.6,0-6.2,2.7-4"/>
        <path class="cls-5" d="M256,260.8c-1,.6-1.4,3.9.3,3.3,2.6-.9,1.9-3.8-.8-3.4"/>
        <path class="cls-5" d="M258.4,260.7c.3.4,2.6,3.5,2.8,2.9.3-.7,0-3.8.7-4.1"/>
        <path class="cls-5" d="M264.9,260.3c.1,1.2,1.1,2.3.7,3.5"/>
        <path class="cls-5" d="M263.4,258.4c0-.4.4-.3.6-.1"/>
        <path class="cls-5" d="M266.8,259.6c.2,1.1.6,2.3,1,3.4.3.8.3-1.5.3-1.8,0-.6.5-3.3,1.7-2.2,1.1.9,1.1,3,1.2,4.3"/>
        <path class="cls-5" d="M274.4,260.2c-.7-1.4-1.9.5-2,1.4-.2,2.7,2.8,2.2,4.4,1.2"/>
        <path class="cls-5" d="M277.4,260c-.7.8,5.2-.2,2.8-.9-1.5-.4-1.4-.7-2.6.7-.4.6,0,1.6.4,2.1.8,1,2.3.7,3.4.5"/>
        <path class="cls-5" d="M246.4,248.1c0,.5.6,0,.6-.4-.2-.9-1.4-1.6-2.3-1.6-3.6,0-3.8,5.9-1.7,7.7,1.2,1,5-.6,5.3-2.1.2-1.2-1.9-1.2-2.6-.9"/>
        <path class="cls-5" d="M249.1,250.3c.5.7.4,2.3,1.4,2.8,1.4.7,2.1-1.6,2.1-2.4,0-.6.7-2,.7-.8,0,.8,0,2.6,1.1,2.9"/>
        <path class="cls-5" d="M258.7,250.2c0-.9-.4-2.3-1.6-1.8-1.5.6-1,4,0,3.4.9-.5,1.7-3.5,1.2-2.7-.4.5.6,2.9,1.2,3.2"/>
        <path class="cls-5" d="M261.1,249.5c.4.8.4,1.8.7,2.6.3.7.2-1.9.4-2.4.2-.4,1.8-1.7,2.2-.8.3.7-.2,2.7.6,3.1"/>
        <path class="cls-5" d="M269.5,249.4c-.6-.6-1.3-1.8-1.9-.4-.7,1.7.1,3.8,1.2,1.3.5-1.2-.2-2.7.3-.8.4,1.7,1.9,6.4-1.2,6"/>
        <path class="cls-5" d="M271.3,248.2c.1,1,6,2.9,5.6,3.7"/>
        <path class="cls-5" d="M275.1,247.9c.8,0-.7,1.4-.9,1.7-.6.8-1.3,2.1-.9,3.1"/>
        <path class="cls-5" d="M277.3,247.8c-1-.1,1,5.2,1.7,3.9"/>
        <path class="cls-5" d="M277,246.7c-.1-.1-.2-.1,0-.2"/>
      </g>
      <g>
        <path class="cls-5" d="M171.6,237.2c.8-1.5,7.8-3.4,7.8-1.7,0,1.3-1.3,6.1-.5,6.9"/>
        <path class="cls-5" d="M179.2,235.1c-2.5,5.1-8.6,10.8-12,14.7-9.2,10.2-17.1,11.7-28,13.1"/>
      </g>
    </g>
  </g>
</svg>