<?xml version="1.0" encoding="UTF-8"?>
<svg id="Layer_2" data-name="Layer 2" xmlns="http://www.w3.org/2000/svg" viewBox="0 0 70.4 65.9">
  <defs>
    <style>
      .cls-1 {
        fill: #6d6e71;
        stroke-width: 0px;
      }
    </style>
  </defs>
  <g id="Layer_4" data-name="Layer 4">
    <g>
      <path class="cls-1" d="M22.6,10.9s11.4,35.9,10.9,40.6c-.5,4.7,0-24.1,1.8-24.8s7.4-15,7.4-15l6.7-3.8s-5.6,5.8-7.4,11.3c-1.8,5.5-5.6,16.2-6,19.9-.4,3.8,1.8,23.7,2.1,25.2s-10.2,2.4-10.2.4.2-26.3-1.1-29.7-3.7-18.6-5.6-20.3,1.4-3.8,1.4-3.8Z"/>
      <path class="cls-1" d="M21.5,4.9S18.2-1.7,15.5.4c-2.6,2.1-9,7.1-8.8,9.8S-.8,31.8,0,42.9c.9,11.1,5.6-3,5.6-3,0,0,4.2-3.4,7-5.3,2.8-1.9,19.9-27.4,18.6-29.3-1.2-1.9-9.8-.4-9.8-.4Z"/>
      <path class="cls-1" d="M42.6,11.7s8.1,0,10.2,1.9c2.1,1.9,8.6,12.8,9.5,13.9.9,1.1,5.3,8.6,7,8.3,1.8-.4,1.4-17.3-.4-19.9-1.8-2.6-14.8-13.5-16.9-13.5s-9.5,9.4-9.5,9.4Z"/>
    </g>
  </g>
</svg>